{
.appVersion = "3087";
DisplayStrings = (
abcdefghijklmnopqrstuvwxyz,
"/elhook-cy/dcroat/omega/omegatonos pþ/er-cy/ertick-cy/elhook-cy/yu-cy/alpha/alphatonos 5",
"i/idotless/idotless_ogonek í/ibreve/icaron îï/idotaccent/idotbelow ì/ij/imacron/iogonek/iota-latin/istroke/itilde \012+/minus ×÷=/notequal ></greaterequal/lessequal ±/approxequal ~¬^",
"O/dottedCircle",
"/Yusbig-cy/Qa-cy/yusbig-cy/qa-cy/KaiSymbol/kaiSymbol \012/ldot ll",
"/ldot"
);
classes = (
{
automatic = 1;

glyphs = (
{
glyphname = A;
lastChange = "2023-09-05 19:31:26 +0000";
layers = (
{
anchors = (
{
name = Bottom;
position = "{323, 0}";
},
{
name = Greek;
position = "{164, 558}";
},
{
name = Ogonek;
position = "{568, 0}";
},
{
name = Top;
position = "{353, 714}";
}
);
layerId = "FD4D3FDD-DE85-408F-A52A-FF600B1C6101";
paths = (
{
closed = 1;
nodes = (
"2 0 LINE",
"55 0 LINE",
"168 250 LINE",
"473 250 LINE",
"551 0 LINE",
"602 0 LINE",
"378 713 LINE",
"379 714 LINE",
"326 714 LINE"
);
},
{
closed = 1;
nodes = (
"348 646 LINE",
"458 298 LINE",
"190 298 LINE"
);
}
);
width = 640;
},
{
anchors = (
{
name = Bottom;
position = "{388, 0}";
},
{
name = Greek;
position = "{103, 558}";
},
{
name = Ogonek;
position = "{662, 0}";
},
{
name = Top;
position = "{438, 714}";
}
);
layerId = m002;
paths = (
{
closed = 1;
nodes = (
"2 0 LINE",
"215 0 LINE",
"258 98 LINE",
"494 98 LINE",
"523 0 LINE",
"734 0 LINE",
"524 713 LINE",
"525 714 LINE",
"312 714 LINE"
);
},
{
closed = 1;
nodes = (
"399 423 LINE",
"450 248 LINE",
"323 248 LINE"
);
}
);
width = 772;
}
);
leftKerningGroup = A;
rightKerningGroup = A;
unicode = 0041;
},
{
color = 10;
glyphname = Astroke;
lastChange = "2023-08-31 19:05:04 +0000";
layers = (
{
layerId = "FD4D3FDD-DE85-408F-A52A-FF600B1C6101";
paths = (
{
closed = 1;
nodes = (
"2 0 LINE",
"55 0 LINE",
"168 250 LINE",
"242.993 250 LINE",
"106 -53 LINE",
"156 -53 LINE",
"293 250 LINE",
"472 250 LINE",
"551 0 LINE",
"602 0 LINE",
"429 550 LINE",
"530 772 LINE",
"479 772 LINE",
"409 616 LINE",
"378 714 LINE",
"326 714 LINE"
);
},
{
closed = 1;
nodes = (
"347 646 LINE",
"378 549 LINE",
"265 298 LINE",
"190 298 LINE"
);
},
{
closed = 1;
nodes = (
"399 483 LINE",
"457 298 LINE",
"315 298 LINE"
);
}
);
width = 640;
},
{
layerId = m002;
paths = (
{
closed = 1;
nodes = (
"2 0 LINE",
"215 0 LINE",
"257 98 LINE",
"282 98 LINE",
"214 -53 LINE",
"266 -53 LINE",
"334 98 LINE",
"494 98 LINE",
"523 0 LINE",
"734 0 LINE",
"559 595 LINE",
"639 772 LINE",
"588 772 LINE",
"539 664 LINE",
"524 714 LINE",
"312 714 LINE"
);
},
{
closed = 1;
nodes = (
"398 423 LINE",
"411 381 LINE",
"350 248 LINE",
"322 248 LINE"
);
},
{
closed = 1;
nodes = (
"431 312 LINE",
"450 248 LINE",
"402 248 LINE"
);
}
);
width = 772;
}
);
leftKerningGroup = A;
leftMetricsKey = A;
rightKerningGroup = A;
rightMetricsKey = A;
unicode = 023A;
},
{
color = 10;
glyphname = AE;
lastChange = "2023-08-31 01:32:33 +0000";
layers = (
{
anchors = (
{
name = Top;
position = "{618, 714}";
}
);
layerId = "FD4D3FDD-DE85-408F-A52A-FF600B1C6101";
paths = (
{
closed = 1;
nodes = (
"2 0 LINE",
"55 0 LINE",
"203 250 LINE",
"458 250 LINE",
"441 0 LINE",
"832 0 LINE",
"835 48 LINE",
"494 48 LINE",
"515 344 LINE",
"835 344 LINE",
"838 392 LINE",
"518 392 LINE",
"537 666 LINE",
"878 666 LINE",
"882 714 LINE",
"426 714 LINE"
);
},
{
closed = 1;
nodes = (
"450 666 LINE",
"487 666 LINE",
"461 298 LINE",
"232 298 LINE"
);
}
);
width = 890;
},
{
anchors = (
{
name = Top;
position = "{728, 714}";
}
);
layerId = m002;
paths = (
{
closed = 1;
nodes = (
"2 0 LINE",
"215 0 LINE",
"297 138 LINE",
"520 138 LINE",
"511 0 LINE",
"1027 0 LINE",
"1038 168 LINE",
"732 168 LINE",
"740 284 LINE",
"1025 284 LINE",
"1037 452 LINE",
"752 452 LINE",
"759 546 LINE",
"1065 546 LINE",
"1077 714 LINE",
"427 714 LINE"
);
},
{
closed = 1;
nodes = (
"541 546 LINE",
"549 546 LINE",
"531 288 LINE",
"387 288 LINE"
);
}
);
width = 1065;
}
);
leftKerningGroup = A;
leftMetricsKey = A;
rightKerningGroup = E;
rightMetricsKey = E;
unicode = 00C6;
},
{
glyphname = B;
lastChange = "2023-08-31 01:28:21 +0000";
layers = (
{
layerId = "FD4D3FDD-DE85-408F-A52A-FF600B1C6101";
paths = (
{
closed = 1;
nodes = (
"292 0 LINE SMOOTH",
"431 0 OFFCURVE",
"518 80 OFFCURVE",
"518 215 CURVE SMOOTH",
"518 305 OFFCURVE",
"466 364 OFFCURVE",
"378 374 CURVE",
"380 376 LINE",
"468 389 OFFCURVE",
"521 450 OFFCURVE",
"521 543 CURVE SMOOTH",
"521 650 OFFCURVE",
"446 714 OFFCURVE",
"318 714 CURVE SMOOTH",
"72 714 LINE",
"22 0 LINE"
);
},
{
closed = 1;
nodes = (
"96 351 LINE",
"305 351 LINE SMOOTH",
"408 351 OFFCURVE",
"468 300 OFFCURVE",
"468 212 CURVE SMOOTH",
"468 110 OFFCURVE",
"400 48 OFFCURVE",
"292 48 CURVE SMOOTH",
"75 48 LINE"
);
},
{
closed = 1;
nodes = (
"118 666 LINE",
"316 666 LINE SMOOTH",
"415 666 OFFCURVE",
"471 620 OFFCURVE",
"471 540 CURVE SMOOTH",
"471 452 OFFCURVE",
"409 398 OFFCURVE",
"307 398 CURVE SMOOTH",
"99 398 LINE"
);
}
);
width = 552;
},
{
layerId = m002;
paths = (
{
closed = 1;
nodes = (
"354 0 LINE SMOOTH",
"531 0 OFFCURVE",
"639 83 OFFCURVE",
"639 223 CURVE SMOOTH",
"639 300 OFFCURVE",
"596 355 OFFCURVE",
"527 373 CURVE",
"532 375 LINE SMOOTH",
"599 395 OFFCURVE",
"640 455 OFFCURVE",
"640 533 CURVE SMOOTH",
"640 646 OFFCURVE",
"544 714 OFFCURVE",
"381 714 CURVE SMOOTH",
"52 714 LINE",
"2 0 LINE"
);
},
{
closed = 1;
nodes = (
"232 294 LINE",
"352 294 LINE SMOOTH",
"396 294 OFFCURVE",
"420 273 OFFCURVE",
"420 239 CURVE SMOOTH",
"420 189 OFFCURVE",
"391 160 OFFCURVE",
"349 160 CURVE SMOOTH",
"223 160 LINE"
);
},
{
closed = 1;
nodes = (
"250 554 LINE",
"365 554 LINE SMOOTH",
"401 554 OFFCURVE",
"419 539 OFFCURVE",
"419 513 CURVE SMOOTH",
"419 477 OFFCURVE",
"394 454 OFFCURVE",
"359 454 CURVE SMOOTH",
"243 454 LINE"
);
}
);
width = 662;
}
);
leftKerningGroup = H;
leftMetricsKey = N;
rightKerningGroup = B;
unicode = 0042;
},
{
glyphname = C;
lastChange = "2023-08-31 01:28:21 +0000";
layers = (
{
anchors = (
{
name = Bottom;
position = "{323, 0}";
},
{
name = Top;
position = "{363, 726}";
}
);
layerId = "FD4D3FDD-DE85-408F-A52A-FF600B1C6101";
paths = (
{
closed = 1;
nodes = (
"540 217 LINE",
"520 108 OFFCURVE",
"432 35 OFFCURVE",
"320 35 CURVE SMOOTH",
"180 35 OFFCURVE",
"87 148 OFFCURVE",
"87 318 CURVE SMOOTH",
"87 534 OFFCURVE",
"197 678 OFFCURVE",
"361 678 CURVE SMOOTH",
"479 678 OFFCURVE",
"561 606 OFFCURVE",
"567 497 CURVE",
"617 495 LINE",
"613 634 OFFCURVE",
"511 726 OFFCURVE",
"362 726 CURVE SMOOTH",
"166 726 OFFCURVE",
"36 562 OFFCURVE",
"36 317 CURVE SMOOTH",
"36 119 OFFCURVE",
"149 -13 OFFCURVE",
"319 -13 CURVE SMOOTH",
"460 -13 OFFCURVE",
"568 78 OFFCURVE",
"590 215 CURVE"
);
}
);
width = 631;
},
{
anchors = (
{
name = Bottom;
position = "{377, 0}";
},
{
name = Top;
position = "{407, 726}";
}
);
layerId = m002;
paths = (
{
closed = 1;
nodes = (
"514 288 LINE",
"499 204 OFFCURVE",
"446 155 OFFCURVE",
"373 155 CURVE SMOOTH",
"286 155 OFFCURVE",
"235 219 OFFCURVE",
"235 327 CURVE SMOOTH",
"235 472 OFFCURVE",
"300 558 OFFCURVE",
"410 558 CURVE SMOOTH",
"481 558 OFFCURVE",
"526 510 OFFCURVE",
"532 428 CURVE",
"751 424 LINE",
"744 614 OFFCURVE",
"615 726 OFFCURVE",
"403 726 CURVE SMOOTH",
"160 726 OFFCURVE",
"16 576 OFFCURVE",
"16 322 CURVE SMOOTH",
"16 111 OFFCURVE",
"147 -13 OFFCURVE",
"370 -13 CURVE SMOOTH",
"568 -13 OFFCURVE",
"703 97 OFFCURVE",
"734 284 CURVE"
);
}
);
width = 750;
}
);
leftKerningGroup = O;
leftMetricsKey = O;
rightKerningGroup = O;
rightMetricsKey = O;
unicode = 0043;
},
{
color = 10;
glyphname = Cstroke;
lastChange = "2023-08-31 19:03:06 +0000";
layers = (
{
layerId = "FD4D3FDD-DE85-408F-A52A-FF600B1C6101";
paths = (
{
closed = 1;
nodes = (
"540 217 LINE",
"520 108 OFFCURVE",
"432 35 OFFCURVE",
"320 35 CURVE SMOOTH",
"277 35 OFFCURVE",
"238 46 OFFCURVE",
"205 66 CURVE",
"471 653 LINE",
"527 622 OFFCURVE",
"563 567 OFFCURVE",
"567 497 CURVE",
"617 495 LINE",
"614 588 OFFCURVE",
"567 661 OFFCURVE",
"491 698 CURVE",
"525 772 LINE",
"474 772 LINE",
"448 715 LINE",
"422 722 OFFCURVE",
"393 726 OFFCURVE",
"362 726 CURVE SMOOTH",
"166 726 OFFCURVE",
"36 562 OFFCURVE",
"36 317 CURVE SMOOTH",
"36 198 OFFCURVE",
"77 103 OFFCURVE",
"146 46 CURVE",
"101 -53 LINE",
"151 -53 LINE",
"184 20 LINE",
"223 -1 OFFCURVE",
"269 -13 OFFCURVE",
"319 -13 CURVE SMOOTH",
"460 -13 OFFCURVE",
"568 78 OFFCURVE",
"590 215 CURVE"
);
},
{
closed = 1;
nodes = (
"87 534 OFFCURVE",
"197 678 OFFCURVE",
"361 678 CURVE SMOOTH",
"385 678 OFFCURVE",
"407 675 OFFCURVE",
"428 670 CURVE",
"168 95 LINE",
"117 144 OFFCURVE",
"87 222 OFFCURVE",
"87 318 CURVE SMOOTH"
);
}
);
width = 631;
},
{
layerId = m002;
paths = (
{
closed = 1;
nodes = (
"514 288 LINE",
"499 204 OFFCURVE",
"446 155 OFFCURVE",
"373 155 CURVE SMOOTH",
"352 155 OFFCURVE",
"333 159 OFFCURVE",
"316 166 CURVE",
"483 535 LINE",
"511 513 OFFCURVE",
"528 477 OFFCURVE",
"532 428 CURVE",
"751 424 LINE",
"746 562 OFFCURVE",
"677 659 OFFCURVE",
"558 701 CURVE",
"590 772 LINE",
"539 772 LINE",
"513 714 LINE",
"479 722 OFFCURVE",
"443 726 OFFCURVE",
"403 726 CURVE SMOOTH",
"160 726 OFFCURVE",
"16 576 OFFCURVE",
"16 322 CURVE SMOOTH",
"16 173 OFFCURVE",
"81 68 OFFCURVE",
"197 19 CURVE",
"165 -53 LINE",
"217 -53 LINE",
"242 3 LINE",
"281 -8 OFFCURVE",
"323 -13 OFFCURVE",
"370 -13 CURVE SMOOTH",
"568 -13 OFFCURVE",
"703 97 OFFCURVE",
"734 284 CURVE"
);
},
{
closed = 1;
nodes = (
"235 472 OFFCURVE",
"300 558 OFFCURVE",
"410 558 CURVE SMOOTH",
"421 558 OFFCURVE",
"431 557 OFFCURVE",
"441 555 CURVE",
"277 194 LINE",
"250 224 OFFCURVE",
"235 269 OFFCURVE",
"235 327 CURVE SMOOTH"
);
}
);
width = 750;
}
);
leftKerningGroup = O;
leftMetricsKey = C;
rightKerningGroup = O;
rightMetricsKey = C;
unicode = 023B;
},
{
glyphname = D;
lastChange = "2023-08-31 01:28:21 +0000";
layers = (
{
anchors = (
{
name = Bottom;
position = "{250, 0}";
},
{
name = Top;
position = "{296, 714}";
}
);
layerId = "FD4D3FDD-DE85-408F-A52A-FF600B1C6101";
paths = (
{
closed = 1;
nodes = (
"246 0 LINE SMOOTH",
"454 0 OFFCURVE",
"592 157 OFFCURVE",
"592 392 CURVE SMOOTH",
"592 585 OFFCURVE",
"473 714 OFFCURVE",
"295 714 CURVE SMOOTH",
"72 714 LINE",
"22 0 LINE"
);
},
{
closed = 1;
nodes = (
"118 666 LINE",
"293 666 LINE SMOOTH",
"442 666 OFFCURVE",
"542 555 OFFCURVE",
"542 389 CURVE SMOOTH",
"542 184 OFFCURVE",
"424 48 OFFCURVE",
"248 48 CURVE SMOOTH",
"75 48 LINE"
);
}
);
width = 614;
},
{
anchors = (
{
name = Bottom;
position = "{330, 0}";
},
{
name = Top;
position = "{376, 714}";
}
);
layerId = m002;
paths = (
{
closed = 1;
nodes = (
"318 0 LINE SMOOTH",
"571 0 OFFCURVE",
"721 144 OFFCURVE",
"721 388 CURVE SMOOTH",
"721 593 OFFCURVE",
"588 714 OFFCURVE",
"363 714 CURVE SMOOTH",
"52 714 LINE",
"2 0 LINE"
);
},
{
closed = 1;
nodes = (
"250 546 LINE",
"356 546 LINE SMOOTH",
"448 546 OFFCURVE",
"502 486 OFFCURVE",
"502 384 CURVE SMOOTH",
"502 248 OFFCURVE",
"436 168 OFFCURVE",
"325 168 CURVE SMOOTH",
"223 168 LINE"
);
}
);
width = 723;
}
);
leftKerningGroup = H;
leftMetricsKey = N;
rightKerningGroup = O;
rightMetricsKey = O;
unicode = 0044;
},
{
color = 10;
glyphname = Eth;
lastChange = "2023-08-31 01:33:01 +0000";
layers = (
{
layerId = "FD4D3FDD-DE85-408F-A52A-FF600B1C6101";
paths = (
{
closed = 1;
nodes = (
"298 0 LINE SMOOTH",
"506 0 OFFCURVE",
"644 157 OFFCURVE",
"644 392 CURVE SMOOTH",
"644 585 OFFCURVE",
"525 714 OFFCURVE",
"347 714 CURVE SMOOTH",
"124 714 LINE",
"101 381 LINE",
"50 386 LINE",
"46 341 LINE",
"98 341 LINE",
"74 0 LINE"
);
},
{
closed = 1;
nodes = (
"148 341 LINE",
"247 341 LINE",
"250 383 LINE",
"151 383 LINE",
"171 666 LINE",
"345 666 LINE SMOOTH",
"494 666 OFFCURVE",
"594 555 OFFCURVE",
"594 389 CURVE SMOOTH",
"594 184 OFFCURVE",
"476 48 OFFCURVE",
"300 48 CURVE SMOOTH",
"127 48 LINE"
);
}
);
width = 666;
},
{
layerId = m002;
paths = (
{
closed = 1;
nodes = (
"365 0 LINE SMOOTH",
"618 0 OFFCURVE",
"768 144 OFFCURVE",
"768 388 CURVE SMOOTH",
"768 593 OFFCURVE",
"635 714 OFFCURVE",
"410 714 CURVE SMOOTH",
"99 714 LINE",
"78 417 LINE",
"31 422 LINE",
"23 299 LINE",
"70 299 LINE",
"49 0 LINE"
);
},
{
closed = 1;
nodes = (
"280 299 LINE",
"387 299 LINE",
"395 419 LINE",
"288 419 LINE",
"297 546 LINE",
"403 546 LINE SMOOTH",
"495 546 OFFCURVE",
"549 486 OFFCURVE",
"549 384 CURVE SMOOTH",
"549 248 OFFCURVE",
"483 168 OFFCURVE",
"372 168 CURVE SMOOTH",
"271 168 LINE"
);
}
);
width = 770;
}
);
leftKerningGroup = H;
leftMetricsKey = D;
rightKerningGroup = O;
rightMetricsKey = D;
unicode = 00D0;
},
{
glyphname = E;
lastChange = "2023-08-31 21:59:03 +0000";
layers = (
{
anchors = (
{
name = Bottom;
position = "{377, 0}";
},
{
name = Dot;
position = "{241, 0}";
},
{
name = Greek;
position = "{-87, 558}";
},
{
name = Top;
position = "{265, 714}";
}
);
layerId = "FD4D3FDD-DE85-408F-A52A-FF600B1C6101";
paths = (
{
closed = 1;
nodes = (
"99 392 LINE",
"118 666 LINE",
"459 666 LINE",
"463 714 LINE",
"72 714 LINE",
"22 0 LINE",
"413 0 LINE",
"416 48 LINE",
"75 48 LINE",
"96 344 LINE",
"416 344 LINE",
"419 392 LINE"
);
}
);
width = 471;
},
{
anchors = (
{
name = Bottom;
position = "{446, 0}";
},
{
name = Dot;
position = "{276, 0}";
},
{
name = Greek;
position = "{-142, 558}";
},
{
name = Top;
position = "{305, 714}";
}
);
layerId = m002;
paths = (
{
closed = 1;
nodes = (
"243 452 LINE",
"250 546 LINE",
"556 546 LINE",
"568 714 LINE",
"52 714 LINE",
"2 0 LINE",
"518 0 LINE",
"529 168 LINE",
"223 168 LINE",
"231 284 LINE",
"516 284 LINE",
"528 452 LINE"
);
}
);
width = 556;
}
);
leftKerningGroup = H;
leftMetricsKey = N;
rightKerningGroup = E;
unicode = 0045;
},
{
color = 10;
glyphname = Eopen;
lastChange = "2023-08-31 02:39:36 +0000";
layers = (
{
layerId = "FD4D3FDD-DE85-408F-A52A-FF600B1C6101";
paths = (
{
closed = 1;
nodes = (
"86 280 OFFCURVE",
"171 348 OFFCURVE",
"299 348 CURVE SMOOTH",
"365 348 LINE",
"368 396 LINE",
"301 396 LINE SMOOTH",
"200 396 OFFCURVE",
"133 449 OFFCURVE",
"133 528 CURVE SMOOTH",
"133 619 OFFCURVE",
"214 680 OFFCURVE",
"336 680 CURVE SMOOTH",
"378 680 OFFCURVE",
"424 672 OFFCURVE",
"450 659 CURVE",
"452 704 LINE",
"425 717 OFFCURVE",
"376 726 OFFCURVE",
"330 726 CURVE SMOOTH",
"190 726 OFFCURVE",
"91 652 OFFCURVE",
"83 541 CURVE SMOOTH",
"78 468 OFFCURVE",
"126 401 OFFCURVE",
"204 373 CURVE",
"204 371 LINE",
"103 353 OFFCURVE",
"35 275 OFFCURVE",
"35 176 CURVE SMOOTH",
"35 63 OFFCURVE",
"132 -13 OFFCURVE",
"278 -13 CURVE SMOOTH",
"330 -13 OFFCURVE",
"380 -4 OFFCURVE",
"402 9 CURVE",
"404 54 LINE",
"380 41 OFFCURVE",
"333 33 OFFCURVE",
"286 33 CURVE SMOOTH",
"166 33 OFFCURVE",
"86 91 OFFCURVE",
"86 178 CURVE SMOOTH"
);
}
);
width = 462;
},
{
layerId = m002;
paths = (
{
closed = 1;
nodes = (
"218 277 OFFCURVE",
"261 307 OFFCURVE",
"334 307 CURVE SMOOTH",
"412 307 LINE",
"421 437 LINE",
"336 437 LINE SMOOTH",
"288 437 OFFCURVE",
"259 453 OFFCURVE",
"259 481 CURVE SMOOTH",
"259 531 OFFCURVE",
"311 561 OFFCURVE",
"399 561 CURVE SMOOTH",
"440 561 OFFCURVE",
"479 550 OFFCURVE",
"503 532 CURVE",
"510 693 LINE",
"470 714 OFFCURVE",
"413 726 OFFCURVE",
"359 726 CURVE SMOOTH",
"181 726 OFFCURVE",
"70 650 OFFCURVE",
"61 522 CURVE SMOOTH",
"56 456 OFFCURVE",
"85 401 OFFCURVE",
"139 374 CURVE",
"139 372 LINE",
"62 345 OFFCURVE",
"16 282 OFFCURVE",
"16 201 CURVE SMOOTH",
"16 66 OFFCURVE",
"136 -13 OFFCURVE",
"339 -13 CURVE SMOOTH",
"386 -13 OFFCURVE",
"436 -5 OFFCURVE",
"476 8 CURVE",
"484 178 LINE",
"450 164 OFFCURVE",
"403 155 OFFCURVE",
"357 155 CURVE SMOOTH",
"270 155 OFFCURVE",
"218 181 OFFCURVE",
"218 225 CURVE SMOOTH"
);
}
);
width = 514;
}
);
leftKerningGroup = O;
leftMetricsKey = E;
rightKerningGroup = E;
rightMetricsKey = E;
unicode = 0190;
},
{
color = 10;
glyphname = Ezh;
lastChange = "2023-08-31 02:39:52 +0000";
layers = (
{
anchors = (
{
name = Top;
position = "{300, 714}";
}
);
layerId = "FD4D3FDD-DE85-408F-A52A-FF600B1C6101";
paths = (
{
closed = 1;
nodes = (
"90 666 LINE",
"439 666 LINE",
"259 469 LINE",
"256 421 LINE",
"292 421 LINE SMOOTH",
"388 421 OFFCURVE",
"445 358 OFFCURVE",
"445 252 CURVE SMOOTH",
"445 116 OFFCURVE",
"374 35 OFFCURVE",
"255 35 CURVE SMOOTH",
"142 35 OFFCURVE",
"79 98 OFFCURVE",
"86 205 CURVE",
"36 207 LINE",
"26 69 OFFCURVE",
"107 -13 OFFCURVE",
"254 -13 CURVE SMOOTH",
"405 -13 OFFCURVE",
"495 87 OFFCURVE",
"495 255 CURVE SMOOTH",
"495 381 OFFCURVE",
"428 460 OFFCURVE",
"315 468 CURVE",
"497 666 LINE",
"501 714 LINE",
"94 714 LINE"
);
}
);
width = 536;
},
{
anchors = (
{
name = Top;
position = "{340, 714}";
}
);
layerId = m002;
paths = (
{
closed = 1;
nodes = (
"63 564 LINE",
"352 564 LINE",
"269 479 LINE",
"260 329 LINE",
"309 329 LINE SMOOTH",
"345 329 OFFCURVE",
"367 301 OFFCURVE",
"367 253 CURVE SMOOTH",
"367 188 OFFCURVE",
"338 149 OFFCURVE",
"290 149 CURVE SMOOTH",
"246 149 OFFCURVE",
"222 177 OFFCURVE",
"225 224 CURVE",
"18 228 LINE",
"7 77 OFFCURVE",
"107 -13 OFFCURVE",
"287 -13 CURVE SMOOTH",
"468 -13 OFFCURVE",
"575 84 OFFCURVE",
"575 249 CURVE SMOOTH",
"575 344 OFFCURVE",
"529 420 OFFCURVE",
"450 453 CURVE",
"571 564 LINE",
"581 714 LINE",
"74 714 LINE"
);
}
);
width = 597;
}
);
leftKerningGroup = three;
leftMetricsKey = E;
rightKerningGroup = O;
rightMetricsKey = E;
unicode = 01B7;
},
{
glyphname = F;
lastChange = "2023-08-31 01:28:21 +0000";
layers = (
{
anchors = (
{
name = Bottom;
position = "{245, 0}";
},
{
name = Top;
position = "{277, 726}";
}
);
layerId = "FD4D3FDD-DE85-408F-A52A-FF600B1C6101";
paths = (
{
closed = 1;
nodes = (
"118 666 LINE",
"462 666 LINE",
"466 714 LINE",
"72 714 LINE",
"22 0 LINE",
"72 0 LINE",
"96 344 LINE",
"417 344 LINE",
"420 392 LINE",
"99 392 LINE"
);
}
);
width = 464;
},
{
anchors = (
{
name = Bottom;
position = "{345, 0}";
},
{
name = Top;
position = "{337, 714}";
}
);
layerId = m002;
paths = (
{
closed = 1;
nodes = (
"250 546 LINE",
"555 546 LINE",
"567 714 LINE",
"52 714 LINE",
"2 0 LINE",
"212 0 LINE",
"231 275 LINE",
"513 275 LINE",
"525 443 LINE",
"243 443 LINE"
);
}
);
width = 555;
}
);
leftKerningGroup = H;
leftMetricsKey = N;
rightKerningGroup = F;
unicode = 0046;
},
{
glyphname = G;
lastChange = "2023-08-31 01:28:21 +0000";
layers = (
{
anchors = (
{
name = Bottom;
position = "{332, 0}";
},
{
name = Top;
position = "{389, 726}";
}
);
layerId = "FD4D3FDD-DE85-408F-A52A-FF600B1C6101";
paths = (
{
closed = 1;
nodes = (
"357 327 LINE",
"353 279 LINE",
"558 279 LINE",
"547 135 LINE",
"507 74 OFFCURVE",
"424 35 OFFCURVE",
"333 35 CURVE SMOOTH",
"185 35 OFFCURVE",
"86 149 OFFCURVE",
"86 320 CURVE SMOOTH",
"86 535 OFFCURVE",
"206 678 OFFCURVE",
"387 678 CURVE SMOOTH",
"506 678 OFFCURVE",
"590 606 OFFCURVE",
"596 497 CURVE",
"646 495 LINE",
"642 634 OFFCURVE",
"539 726 OFFCURVE",
"388 726 CURVE SMOOTH",
"177 726 OFFCURVE",
"36 563 OFFCURVE",
"36 319 CURVE SMOOTH",
"36 120 OFFCURVE",
"154 -13 OFFCURVE",
"332 -13 CURVE SMOOTH",
"407 -13 OFFCURVE",
"490 13 OFFCURVE",
"540 52 CURVE",
"541 52 LINE",
"522 0 LINE",
"588 0 LINE",
"611 327 LINE"
);
}
);
width = 670;
},
{
anchors = (
{
name = Bottom;
position = "{378, 0}";
},
{
name = Top;
position = "{404, 726}";
}
);
layerId = m002;
paths = (
{
closed = 1;
nodes = (
"373 389 LINE",
"365 279 LINE",
"542 279 LINE",
"537 202 LINE",
"511 167 OFFCURVE",
"456 145 OFFCURVE",
"389 145 CURVE SMOOTH",
"293 145 OFFCURVE",
"236 212 OFFCURVE",
"236 326 CURVE SMOOTH",
"236 472 OFFCURVE",
"303 558 OFFCURVE",
"417 558 CURVE SMOOTH",
"486 558 OFFCURVE",
"529 525 OFFCURVE",
"532 468 CURVE",
"751 464 LINE",
"745 629 OFFCURVE",
"616 726 OFFCURVE",
"404 726 CURVE SMOOTH",
"160 726 OFFCURVE",
"16 575 OFFCURVE",
"16 320 CURVE SMOOTH",
"16 111 OFFCURVE",
"138 -13 OFFCURVE",
"345 -13 CURVE SMOOTH",
"419 -13 OFFCURVE",
"485 10 OFFCURVE",
"525 50 CURVE",
"528 50 LINE",
"496 0 LINE",
"705 0 LINE",
"732 389 LINE"
);
}
);
width = 757;
}
);
leftKerningGroup = O;
leftMetricsKey = O;
rightKerningGroup = G;
rightMetricsKey = N;
unicode = 0047;
},
{
color = 10;
glyphname = Glottalstop;
lastChange = "2023-08-31 19:09:40 +0000";
layers = (
{
layerId = "FD4D3FDD-DE85-408F-A52A-FF600B1C6101";
paths = (
{
closed = 1;
nodes = (
"227 314 OFFCURVE",
"478 284 OFFCURVE",
"494 520 CURVE SMOOTH",
"503 649 OFFCURVE",
"427 726 OFFCURVE",
"290 726 CURVE SMOOTH",
"147 726 OFFCURVE",
"57 649 OFFCURVE",
"48 519 CURVE",
"98 521 LINE",
"105 620 OFFCURVE",
"175 678 OFFCURVE",
"287 678 CURVE SMOOTH",
"393 678 OFFCURVE",
"451 620 OFFCURVE",
"444 522 CURVE SMOOTH",
"430 316 OFFCURVE",
"178 341 OFFCURVE",
"155 1 CURVE",
"205 -1 LINE"
);
}
);
width = 506;
},
{
layerId = m002;
paths = (
{
closed = 1;
nodes = (
"332 256 OFFCURVE",
"604 214 OFFCURVE",
"622 473 CURVE SMOOTH",
"633 632 OFFCURVE",
"528 726 OFFCURVE",
"340 726 CURVE SMOOTH",
"152 726 OFFCURVE",
"35 628 OFFCURVE",
"24 463 CURVE",
"244 467 LINE",
"248 524 OFFCURVE",
"280 558 OFFCURVE",
"329 558 CURVE SMOOTH",
"378 558 OFFCURVE",
"405 528 OFFCURVE",
"401 477 CURVE SMOOTH",
"389 305 OFFCURVE",
"126 323 OFFCURVE",
"104 2 CURVE",
"313 -2 LINE"
);
}
);
width = 617;
}
);
leftKerningGroup = O;
leftMetricsKey = O;
rightKerningGroup = P;
rightMetricsKey = P;
unicode = 0241;
},
{
color = 10;
glyphname = Gstroke;
lastChange = "2023-08-31 16:33:23 +0000";
layers = (
{
layerId = "FD4D3FDD-DE85-408F-A52A-FF600B1C6101";
paths = (
{
closed = 1;
nodes = (
"357 327 LINE",
"353 279 LINE",
"558 279 LINE",
"553 222 LINE",
"454 227 LINE",
"450 182 LINE",
"550 182 LINE",
"546 127 LINE",
"506 71 OFFCURVE",
"423 35 OFFCURVE",
"333 35 CURVE SMOOTH",
"185 35 OFFCURVE",
"86 149 OFFCURVE",
"86 320 CURVE SMOOTH",
"86 535 OFFCURVE",
"206 678 OFFCURVE",
"387 678 CURVE SMOOTH",
"506 678 OFFCURVE",
"590 606 OFFCURVE",
"596 497 CURVE",
"646 495 LINE",
"642 634 OFFCURVE",
"539 726 OFFCURVE",
"388 726 CURVE SMOOTH",
"177 726 OFFCURVE",
"36 563 OFFCURVE",
"36 319 CURVE SMOOTH",
"36 120 OFFCURVE",
"154 -13 OFFCURVE",
"332 -13 CURVE SMOOTH",
"407 -13 OFFCURVE",
"490 13 OFFCURVE",
"540 52 CURVE",
"541 52 LINE",
"522 0 LINE",
"588 0 LINE",
"601 182 LINE",
"650 182 LINE",
"653 224 LINE",
"604 224 LINE",
"611 327 LINE"
);
}
);
width = 696;
},
{
layerId = m002;
paths = (
{
closed = 1;
nodes = (
"373 389 LINE",
"362 239 LINE",
"540 239 LINE",
"540 229 LINE",
"438 234 LINE",
"433 161 LINE",
"483 161 LINE",
"483 159 LINE",
"447 146 OFFCURVE",
"423 145 OFFCURVE",
"392 145 CURVE SMOOTH",
"296 145 OFFCURVE",
"236 212 OFFCURVE",
"236 326 CURVE SMOOTH",
"236 472 OFFCURVE",
"303 558 OFFCURVE",
"417 558 CURVE SMOOTH",
"486 558 OFFCURVE",
"529 525 OFFCURVE",
"532 468 CURVE",
"751 464 LINE",
"745 629 OFFCURVE",
"616 726 OFFCURVE",
"404 726 CURVE SMOOTH",
"160 726 OFFCURVE",
"16 575 OFFCURVE",
"16 320 CURVE SMOOTH",
"16 111 OFFCURVE",
"138 -13 OFFCURVE",
"345 -13 CURVE SMOOTH",
"419 -13 OFFCURVE",
"485 10 OFFCURVE",
"525 50 CURVE",
"530 52 LINE",
"496 0 LINE",
"705 0 LINE",
"716 161 LINE",
"764 161 LINE",
"769 231 LINE",
"721 231 LINE",
"732 389 LINE"
);
}
);
width = 791;
}
);
leftKerningGroup = O;
leftMetricsKey = G;
rightKerningGroup = G;
rightMetricsKey = G;
unicode = 01E4;
},
{
glyphname = H;
lastChange = "2023-08-31 22:04:34 +0000";
layers = (
{
anchors = (
{
name = Bottom;
position = "{284, 0}";
},
{
name = Greek;
position = "{-87, 558}";
},
{
name = Top;
position = "{334, 714}";
}
);
layerId = "FD4D3FDD-DE85-408F-A52A-FF600B1C6101";
paths = (
{
closed = 1;
nodes = (
"524 397 LINE",
"100 397 LINE",
"122 714 LINE",
"72 714 LINE",
"22 0 LINE",
"72 0 LINE",
"96 349 LINE",
"520 349 LINE",
"496 0 LINE",
"546 0 LINE",
"596 714 LINE",
"546 714 LINE"
);
}
);
width = 604;
},
{
anchors = (
{
name = Bottom;
position = "{332, 0}";
},
{
name = Greek;
position = "{-142, 558}";
},
{
name = Top;
position = "{382, 714}";
}
);
layerId = m002;
paths = (
{
closed = 1;
nodes = (
"477 448 LINE",
"243 448 LINE",
"262 714 LINE",
"52 714 LINE",
"2 0 LINE",
"212 0 LINE",
"232 280 LINE",
"466 280 LINE",
"446 0 LINE",
"656 0 LINE",
"706 714 LINE",
"496 714 LINE"
);
}
);
width = 694;
}
);
leftKerningGroup = H;
leftMetricsKey = N;
rightKerningGroup = H;
rightMetricsKey = N;
unicode = 0048;
},
{
color = 10;
glyphname = Hbar;
lastChange = "2023-08-31 02:35:37 +0000";
layers = (
{
layerId = "FD4D3FDD-DE85-408F-A52A-FF600B1C6101";
paths = (
{
closed = 1;
nodes = (
"638 602 LINE",
"214 600 LINE",
"222 714 LINE",
"172 714 LINE",
"164 601 LINE",
"64 605 LINE",
"61 560 LINE",
"161 560 LINE",
"122 0 LINE",
"172 0 LINE",
"196 349 LINE",
"620 349 LINE",
"596 0 LINE",
"646 0 LINE",
"685 560 LINE",
"785 560 LINE",
"788 602 LINE",
"688 602 LINE",
"696 714 LINE",
"646 714 LINE"
);
},
{
closed = 1;
nodes = (
"211 560 LINE",
"635 560 LINE",
"624 397 LINE",
"200 397 LINE"
);
}
);
width = 804;
},
{
layerId = m002;
paths = (
{
closed = 1;
nodes = (
"612 638 LINE",
"308 636 LINE",
"313 714 LINE",
"143 714 LINE",
"138 638 LINE",
"47 641 LINE",
"39 518 LINE",
"129 518 LINE",
"93 0 LINE",
"263 0 LINE",
"284 298 LINE",
"588 298 LINE",
"567 0 LINE",
"737 0 LINE",
"773 518 LINE",
"862 518 LINE",
"870 638 LINE",
"782 638 LINE",
"787 714 LINE",
"617 714 LINE"
);
},
{
closed = 1;
nodes = (
"299 518 LINE",
"603 518 LINE",
"598 448 LINE",
"294 448 LINE"
);
}
);
width = 864;
}
);
leftKerningGroup = H;
leftMetricsKey = N;
rightKerningGroup = H;
rightMetricsKey = N;
unicode = 0126;
},
{
glyphname = I;
lastChange = "2023-08-31 22:04:51 +0000";
layers = (
{
anchors = (
{
name = Bottom;
position = "{47, 0}";
},
{
name = Greek;
position = "{-87, 558}";
},
{
name = Top;
position = "{97, 714}";
}
);
layerId = "FD4D3FDD-DE85-408F-A52A-FF600B1C6101";
paths = (
{
closed = 1;
nodes = (
"22 0 LINE",
"72 0 LINE",
"122 714 LINE",
"72 714 LINE"
);
}
);
width = 130;
},
{
anchors = (
{
name = Bottom;
position = "{107, 0}";
},
{
name = Greek;
position = "{-142, 558}";
},
{
name = Top;
position = "{157, 714}";
}
);
layerId = m002;
paths = (
{
closed = 1;
nodes = (
"2 0 LINE",
"212 0 LINE",
"262 714 LINE",
"52 714 LINE"
);
}
);
width = 250;
}
);
leftKerningGroup = H;
leftMetricsKey = N;
rightKerningGroup = H;
rightMetricsKey = N;
unicode = 0049;
},
{
color = 10;
glyphname = IJ;
lastChange = "2023-08-31 01:33:12 +0000";
layers = (
{
layerId = "FD4D3FDD-DE85-408F-A52A-FF600B1C6101";
paths = (
{
closed = 1;
nodes = (
"33 160 LINE",
"83 160 LINE",
"122 714 LINE",
"72 714 LINE"
);
},
{
closed = 1;
nodes = (
"60 -8 OFFCURVE",
"84 -13 OFFCURVE",
"108 -13 CURVE SMOOTH",
"224 -13 OFFCURVE",
"297 47 OFFCURVE",
"304 151 CURVE SMOOTH",
"344 714 LINE",
"294 714 LINE",
"254 153 LINE SMOOTH",
"249 79 OFFCURVE",
"195 34 OFFCURVE",
"110 34 CURVE SMOOTH",
"83 34 OFFCURVE",
"59 39 OFFCURVE",
"44 48 CURVE",
"42 0 LINE"
);
}
);
width = 352;
},
{
layerId = m002;
paths = (
{
closed = 1;
nodes = (
"19 240 LINE",
"189 240 LINE",
"223 714 LINE",
"53 714 LINE"
);
},
{
closed = 1;
nodes = (
"152 -7 OFFCURVE",
"175 -13 OFFCURVE",
"197 -13 CURVE SMOOTH",
"353 -13 OFFCURVE",
"449 65 OFFCURVE",
"459 200 CURVE SMOOTH",
"495 714 LINE",
"325 714 LINE",
"291 234 LINE SMOOTH",
"288 184 OFFCURVE",
"253 153 OFFCURVE",
"201 153 CURVE SMOOTH",
"180 153 OFFCURVE",
"158 158 OFFCURVE",
"142 167 CURVE",
"135 1 LINE"
);
}
);
width = 483;
}
);
leftKerningGroup = I;
leftMetricsKey = N;
rightKerningGroup = U;
rightMetricsKey = N;
unicode = 0132;
},
{
color = 10;
glyphname = Istroke;
lastChange = "2023-08-31 02:38:37 +0000";
layers = (
{
layerId = "FD4D3FDD-DE85-408F-A52A-FF600B1C6101";
paths = (
{
closed = 1;
nodes = (
"120 381 LINE",
"50 386 LINE",
"46 341 LINE",
"117 341 LINE",
"93 0 LINE",
"143 0 LINE",
"167 341 LINE",
"236 341 LINE",
"239 383 LINE",
"170 383 LINE",
"193 714 LINE",
"143 714 LINE"
);
}
);
width = 270;
},
{
layerId = m002;
paths = (
{
closed = 1;
nodes = (
"107 417 LINE",
"31 422 LINE",
"23 299 LINE",
"99 299 LINE",
"78 0 LINE",
"288 0 LINE",
"309 299 LINE",
"385 299 LINE",
"393 419 LINE",
"317 419 LINE",
"338 714 LINE",
"128 714 LINE"
);
}
);
width = 402;
}
);
leftKerningGroup = Istroke;
leftMetricsKey = N;
rightKerningGroup = Istroke;
rightMetricsKey = N;
unicode = 0197;
},
{
glyphname = J;
lastChange = "2023-08-31 21:53:49 +0000";
layers = (
{
anchors = (
{
name = Bottom;
position = "{42, 0}";
},
{
name = Top;
position = "{270, 714}";
}
);
layerId = "FD4D3FDD-DE85-408F-A52A-FF600B1C6101";
paths = (
{
closed = 1;
nodes = (
"295 714 LINE",
"245 714 LINE",
"205 153 LINE SMOOTH",
"200 79 OFFCURVE",
"150 34 OFFCURVE",
"71 34 CURVE SMOOTH",
"48 34 OFFCURVE",
"28 39 OFFCURVE",
"15 48 CURVE",
"13 0 LINE",
"31 -8 OFFCURVE",
"51 -13 OFFCURVE",
"69 -13 CURVE SMOOTH",
"179 -13 OFFCURVE",
"248 47 OFFCURVE",
"255 151 CURVE SMOOTH"
);
}
);
width = 303;
},
{
anchors = (
{
name = Bottom;
position = "{53, 0}";
},
{
name = Top;
position = "{281, 714}";
}
);
layerId = m002;
paths = (
{
closed = 1;
nodes = (
"386 714 LINE",
"176 714 LINE",
"142 234 LINE SMOOTH",
"139 184 OFFCURVE",
"112 153 OFFCURVE",
"72 153 CURVE SMOOTH",
"52 153 OFFCURVE",
"30 158 OFFCURVE",
"13 167 CURVE",
"6 1 LINE",
"23 -7 OFFCURVE",
"46 -13 OFFCURVE",
"68 -13 CURVE SMOOTH",
"236 -13 OFFCURVE",
"340 65 OFFCURVE",
"350 200 CURVE SMOOTH"
);
}
);
width = 374;
}
);
leftKerningGroup = J;
rightKerningGroup = U;
rightMetricsKey = N;
unicode = 004A;
},
{
glyphname = K;
lastChange = "2023-08-31 01:28:21 +0000";
layers = (
{
anchors = (
{
name = Bottom;
position = "{261, 0}";
},
{
name = Top;
position = "{265, 714}";
}
);
layerId = "FD4D3FDD-DE85-408F-A52A-FF600B1C6101";
paths = (
{
closed = 1;
nodes = (
"22 0 LINE",
"72 0 LINE",
"90 263 LINE",
"236 399 LINE",
"458 0 LINE",
"514 0 LINE",
"274 435 LINE",
"573 714 LINE",
"502 714 LINE",
"97 336 LINE",
"96 336 LINE",
"122 714 LINE",
"72 714 LINE"
);
}
);
width = 561;
},
{
anchors = (
{
name = Bottom;
position = "{348, 0}";
},
{
name = Top;
position = "{362, 714}";
}
);
layerId = m002;
paths = (
{
closed = 1;
nodes = (
"2 0 LINE",
"212 0 LINE",
"225 179 LINE",
"321 271 LINE",
"474 0 LINE",
"718 0 LINE",
"483 427 LINE",
"783 714 LINE",
"505 714 LINE",
"247 472 LINE",
"245 472 LINE",
"262 714 LINE",
"52 714 LINE"
);
}
);
width = 771;
}
);
leftKerningGroup = H;
leftMetricsKey = N;
rightKerningGroup = K;
rightMetricsKey = A;
unicode = 004B;
},
{
glyphname = L;
lastChange = "2023-08-31 01:28:21 +0000";
layers = (
{
anchors = (
{
name = Bottom;
position = "{229, 0}";
},
{
name = Caron;
position = "{255, 548}";
},
{
name = Top;
position = "{98, 714}";
}
);
layerId = "FD4D3FDD-DE85-408F-A52A-FF600B1C6101";
paths = (
{
closed = 1;
nodes = (
"75 48 LINE",
"122 714 LINE",
"72 714 LINE",
"22 0 LINE",
"410 0 LINE",
"413 48 LINE"
);
}
);
width = 448;
},
{
anchors = (
{
name = Bottom;
position = "{279, 0}";
},
{
name = Caron;
position = "{365, 548}";
},
{
name = Top;
position = "{158, 714}";
}
);
layerId = m002;
paths = (
{
closed = 1;
nodes = (
"223 168 LINE",
"262 714 LINE",
"52 714 LINE",
"2 0 LINE",
"500 0 LINE",
"511 168 LINE"
);
}
);
width = 538;
}
);
leftKerningGroup = H;
leftMetricsKey = N;
rightKerningGroup = L;
rightMetricsKey = A;
unicode = 004C;
},
{
color = 10;
glyphname = Lbar;
lastChange = "2023-08-31 19:03:49 +0000";
layers = (
{
layerId = "FD4D3FDD-DE85-408F-A52A-FF600B1C6101";
paths = (
{
closed = 1;
nodes = (
"126 48 LINE",
"147 341 LINE",
"247 341 LINE",
"250 383 LINE",
"150 383 LINE",
"173 714 LINE",
"123 714 LINE",
"100 381 LINE",
"50 386 LINE",
"46 341 LINE",
"97 341 LINE",
"73 0 LINE",
"461 0 LINE",
"464 48 LINE"
);
}
);
width = 499;
},
{
layerId = m002;
paths = (
{
closed = 1;
nodes = (
"270 168 LINE",
"279 299 LINE",
"385 299 LINE",
"393 419 LINE",
"288 419 LINE",
"309 714 LINE",
"99 714 LINE",
"78 417 LINE",
"31 422 LINE",
"23 299 LINE",
"70 299 LINE",
"49 0 LINE",
"547 0 LINE",
"558 168 LINE"
);
}
);
width = 585;
}
);
leftKerningGroup = H;
leftMetricsKey = L;
rightKerningGroup = L;
rightMetricsKey = L;
unicode = 023D;
},
{
color = 10;
glyphname = Lmiddletilde;
lastChange = "2023-08-31 19:03:55 +0000";
layers = (
{
layerId = "FD4D3FDD-DE85-408F-A52A-FF600B1C6101";
paths = (
{
closed = 1;
nodes = (
"534 0 LINE",
"537 48 LINE",
"199 48 LINE",
"220 339 LINE",
"231 336 OFFCURVE",
"244 333 OFFCURVE",
"258 333 CURVE SMOOTH",
"307 333 OFFCURVE",
"341 365 OFFCURVE",
"345 414 CURVE",
"297 414 LINE",
"295 391 OFFCURVE",
"279 376 OFFCURVE",
"259 376 CURVE SMOOTH",
"246 376 OFFCURVE",
"234 379 OFFCURVE",
"223 383 CURVE",
"246 714 LINE",
"196 714 LINE",
"174 404 LINE",
"161 409 OFFCURVE",
"147 413 OFFCURVE",
"131 413 CURVE SMOOTH",
"83 413 OFFCURVE",
"48 381 OFFCURVE",
"45 332 CURVE",
"93 332 LINE",
"94 355 OFFCURVE",
"110 370 OFFCURVE",
"131 370 CURVE SMOOTH",
"145 370 OFFCURVE",
"158 366 OFFCURVE",
"171 360 CURVE",
"146 0 LINE"
);
}
);
width = 572;
},
{
layerId = m002;
paths = (
{
closed = 1;
nodes = (
"635 0 LINE",
"646 168 LINE",
"358 168 LINE",
"370 308 LINE",
"376 308 OFFCURVE",
"384 308 OFFCURVE",
"399 308 CURVE SMOOTH",
"461 308 OFFCURVE",
"507 353 OFFCURVE",
"512 424 CURVE",
"408 428 LINE",
"407 416 OFFCURVE",
"395 406 OFFCURVE",
"379 406 CURVE SMOOTH",
"377 406 OFFCURVE",
"375 406 OFFCURVE",
"373 406 CURVE",
"397 714 LINE",
"187 714 LINE",
"164 428 LINE",
"158 429 OFFCURVE",
"150 430 OFFCURVE",
"139 430 CURVE SMOOTH",
"74 430 OFFCURVE",
"29 385 OFFCURVE",
"24 314 CURVE",
"128 310 LINE",
"129 323 OFFCURVE",
"141 333 OFFCURVE",
"157 333 CURVE SMOOTH",
"158 333 OFFCURVE",
"160 333 OFFCURVE",
"162 333 CURVE",
"137 0 LINE"
);
}
);
width = 673;
}
);
leftKerningGroup = H;
leftMetricsKey = L;
rightKerningGroup = L;
rightMetricsKey = L;
unicode = 2C62;
},
{
color = 10;
glyphname = Lslash;
lastChange = "2023-08-31 02:32:55 +0000";
layers = (
{
layerId = "FD4D3FDD-DE85-408F-A52A-FF600B1C6101";
paths = (
{
closed = 1;
nodes = (
"146 48 LINE",
"171 404 LINE",
"303 479 LINE",
"307 537 LINE",
"175 462 LINE",
"193 714 LINE",
"143 714 LINE",
"123 432 LINE",
"49 390 LINE",
"45 332 LINE",
"119 374 LINE",
"93 0 LINE",
"481 0 LINE",
"484 48 LINE"
);
}
);
width = 519;
},
{
layerId = m002;
paths = (
{
closed = 1;
nodes = (
"296 168 LINE",
"314 418 LINE",
"403 476 LINE",
"412 612 LINE",
"324 555 LINE",
"335 714 LINE",
"125 714 LINE",
"104 414 LINE",
"27 365 LINE",
"18 227 LINE",
"94 276 LINE",
"75 0 LINE",
"573 0 LINE",
"584 168 LINE"
);
}
);
width = 611;
}
);
leftKerningGroup = H;
leftMetricsKey = N;
rightKerningGroup = L;
rightMetricsKey = A;
unicode = 0141;
},
{
glyphname = M;
lastChange = "2023-08-31 01:28:21 +0000";
layers = (
{
anchors = (
{
name = Bottom;
position = "{351, 0}";
}
);
layerId = "FD4D3FDD-DE85-408F-A52A-FF600B1C6101";
paths = (
{
closed = 1;
nodes = (
"22 0 LINE",
"72 0 LINE",
"114 593 LINE",
"115 593 LINE",
"328 0 LINE",
"376 0 LINE",
"671 593 LINE",
"674 593 LINE",
"632 0 LINE",
"682 0 LINE",
"732 714 LINE",
"674 714 LINE",
"358 79 LINE",
"356 79 LINE",
"128 714 LINE",
"72 714 LINE"
);
}
);
width = 740;
},
{
anchors = (
{
name = Bottom;
position = "{407, 0}";
}
);
layerId = m002;
paths = (
{
closed = 1;
nodes = (
"2 0 LINE",
"212 0 LINE",
"235 323 LINE",
"237 323 LINE",
"342 0 LINE",
"470 0 LINE",
"621 323 LINE",
"623 323 LINE",
"600 0 LINE",
"810 0 LINE",
"860 714 LINE",
"642 714 LINE",
"424 259 LINE",
"422 259 LINE",
"268 714 LINE",
"52 714 LINE"
);
}
);
width = 848;
}
);
leftKerningGroup = H;
leftMetricsKey = N;
rightKerningGroup = H;
rightMetricsKey = N;
unicode = 004D;
},
{
glyphname = N;
lastChange = "2023-08-31 01:28:21 +0000";
layers = (
{
anchors = (
{
name = Bottom;
position = "{283, 0}";
},
{
name = Top;
position = "{338, 714}";
}
);
layerId = "FD4D3FDD-DE85-408F-A52A-FF600B1C6101";
paths = (
{
closed = 1;
nodes = (
"72 714 LINE",
"22 0 LINE",
"72 0 LINE",
"116 626 LINE",
"118 626 LINE",
"497 0 LINE",
"547 0 LINE",
"597 714 LINE",
"547 714 LINE",
"503 88 LINE",
"501 88 LINE",
"122 714 LINE"
);
}
);
width = 605;
},
{
anchors = (
{
name = Bottom;
position = "{363, 0}";
},
{
name = Top;
position = "{418, 714}";
}
);
layerId = m002;
paths = (
{
closed = 1;
nodes = (
"52 714 LINE",
"2 0 LINE",
"212 0 LINE",
"239 379 LINE",
"241 379 LINE",
"487 0 LINE",
"697 0 LINE",
"747 714 LINE",
"537 714 LINE",
"510 335 LINE",
"508 335 LINE",
"262 714 LINE"
);
}
);
width = 735;
}
);
leftKerningGroup = H;
rightKerningGroup = H;
unicode = 004E;
},
{
color = 10;
glyphname = Eng;
lastChange = "2023-08-31 02:38:54 +0000";
layers = (
{
layerId = "FD4D3FDD-DE85-408F-A52A-FF600B1C6101";
paths = (
{
closed = 1;
nodes = (
"72 714 LINE",
"22 0 LINE",
"72 0 LINE",
"115 626 LINE",
"118 626 LINE",
"497 0 LINE",
"492 -67 LINE SMOOTH",
"487 -141 OFFCURVE",
"437 -186 OFFCURVE",
"357 -186 CURVE SMOOTH",
"335 -186 OFFCURVE",
"314 -181 OFFCURVE",
"302 -172 CURVE",
"300 -220 LINE",
"317 -228 OFFCURVE",
"338 -233 OFFCURVE",
"356 -233 CURVE SMOOTH",
"466 -233 OFFCURVE",
"535 -173 OFFCURVE",
"542 -69 CURVE SMOOTH",
"597 714 LINE",
"547 714 LINE",
"503 88 LINE",
"501 88 LINE",
"121 714 LINE"
);
}
);
width = 605;
},
{
layerId = m002;
paths = (
{
closed = 1;
nodes = (
"52 714 LINE",
"2 0 LINE",
"212 0 LINE",
"238 379 LINE",
"241 379 LINE",
"487 3 LINE",
"487 0 LINE SMOOTH",
"486 -41 OFFCURVE",
"454 -67 OFFCURVE",
"417 -67 CURVE SMOOTH",
"398 -67 OFFCURVE",
"375 -62 OFFCURVE",
"359 -53 CURVE",
"351 -219 LINE",
"369 -227 OFFCURVE",
"392 -233 OFFCURVE",
"414 -233 CURVE SMOOTH",
"582 -233 OFFCURVE",
"685 -155 OFFCURVE",
"695 -20 CURVE SMOOTH",
"747 714 LINE",
"537 714 LINE",
"510 335 LINE",
"507 335 LINE",
"261 714 LINE"
);
}
);
width = 735;
}
);
leftKerningGroup = N;
leftMetricsKey = N;
rightKerningGroup = N;
rightMetricsKey = N;
unicode = 014A;
},
{
glyphname = O;
lastChange = "2023-08-31 22:05:21 +0000";
layers = (
{
anchors = (
{
name = Bottom;
position = "{329, 0}";
},
{
name = Greek;
position = "{-4, 558}";
},
{
name = Top;
position = "{378, 726}";
}
);
layerId = "FD4D3FDD-DE85-408F-A52A-FF600B1C6101";
paths = (
{
closed = 1;
nodes = (
"533 -13 OFFCURVE",
"670 150 OFFCURVE",
"670 395 CURVE SMOOTH",
"670 594 OFFCURVE",
"553 726 OFFCURVE",
"377 726 CURVE SMOOTH",
"172 726 OFFCURVE",
"36 562 OFFCURVE",
"36 317 CURVE SMOOTH",
"36 119 OFFCURVE",
"153 -13 OFFCURVE",
"328 -13 CURVE SMOOTH"
);
},
{
closed = 1;
nodes = (
"85 535 OFFCURVE",
"201 677 OFFCURVE",
"376 677 CURVE SMOOTH",
"523 677 OFFCURVE",
"621 563 OFFCURVE",
"621 391 CURVE SMOOTH",
"621 177 OFFCURVE",
"504 35 OFFCURVE",
"329 35 CURVE SMOOTH",
"183 35 OFFCURVE",
"85 149 OFFCURVE",
"85 321 CURVE SMOOTH"
);
}
);
width = 692;
},
{
anchors = (
{
name = Bottom;
position = "{361, 0}";
},
{
name = Greek;
position = "{-44, 558}";
},
{
name = Top;
position = "{411, 726}";
}
);
layerId = m002;
paths = (
{
closed = 1;
nodes = (
"609 -13 OFFCURVE",
"754 137 OFFCURVE",
"754 391 CURVE SMOOTH",
"754 602 OFFCURVE",
"625 726 OFFCURVE",
"406 726 CURVE SMOOTH",
"161 726 OFFCURVE",
"16 576 OFFCURVE",
"16 321 CURVE SMOOTH",
"16 111 OFFCURVE",
"145 -13 OFFCURVE",
"363 -13 CURVE SMOOTH"
);
},
{
closed = 1;
nodes = (
"235 471 OFFCURVE",
"297 558 OFFCURVE",
"403 558 CURVE SMOOTH",
"486 558 OFFCURVE",
"535 496 OFFCURVE",
"535 390 CURVE SMOOTH",
"535 242 OFFCURVE",
"472 155 OFFCURVE",
"366 155 CURVE SMOOTH",
"284 155 OFFCURVE",
"235 218 OFFCURVE",
"235 325 CURVE SMOOTH"
);
}
);
width = 756;
}
);
leftKerningGroup = O;
rightKerningGroup = O;
unicode = 004F;
},
{
color = 10;
glyphname = Oopen;
lastChange = "2023-08-31 02:40:05 +0000";
layers = (
{
layerId = "FD4D3FDD-DE85-408F-A52A-FF600B1C6101";
paths = (
{
closed = 1;
nodes = (
"54 607 LINE",
"103 650 OFFCURVE",
"185 678 OFFCURVE",
"261 678 CURVE SMOOTH",
"398 678 OFFCURVE",
"489 564 OFFCURVE",
"489 394 CURVE SMOOTH",
"489 179 OFFCURVE",
"377 35 OFFCURVE",
"208 35 CURVE SMOOTH",
"137 35 OFFCURVE",
"61 63 OFFCURVE",
"19 105 CURVE",
"16 49 LINE",
"55 12 OFFCURVE",
"132 -13 OFFCURVE",
"207 -13 CURVE SMOOTH",
"406 -13 OFFCURVE",
"539 150 OFFCURVE",
"539 395 CURVE SMOOTH",
"539 594 OFFCURVE",
"428 726 OFFCURVE",
"262 726 CURVE SMOOTH",
"187 726 OFFCURVE",
"105 702 OFFCURVE",
"58 666 CURVE"
);
}
);
width = 561;
},
{
layerId = m002;
paths = (
{
closed = 1;
nodes = (
"31 504 LINE",
"70 538 OFFCURVE",
"123 558 OFFCURVE",
"173 558 CURVE SMOOTH",
"275 558 OFFCURVE",
"335 494 OFFCURVE",
"335 386 CURVE SMOOTH",
"335 241 OFFCURVE",
"270 155 OFFCURVE",
"160 155 CURVE SMOOTH",
"96 155 OFFCURVE",
"39 173 OFFCURVE",
"6 204 CURVE",
"-4 9 LINE",
"45 -5 OFFCURVE",
"105 -13 OFFCURVE",
"157 -13 CURVE SMOOTH",
"407 -13 OFFCURVE",
"554 137 OFFCURVE",
"554 391 CURVE SMOOTH",
"554 602 OFFCURVE",
"419 726 OFFCURVE",
"190 726 CURVE SMOOTH",
"149 726 OFFCURVE",
"93 718 OFFCURVE",
"41 704 CURVE"
);
}
);
width = 556;
}
);
leftKerningGroup = O;
leftMetricsKey = O;
rightKerningGroup = O;
rightMetricsKey = O;
unicode = 0186;
},
{
color = 10;
glyphname = Oslash;
lastChange = "2023-08-31 01:34:18 +0000";
layers = (
{
anchors = (
{
name = Top;
position = "{393, 726}";
}
);
layerId = "FD4D3FDD-DE85-408F-A52A-FF600B1C6101";
paths = (
{
closed = 1;
nodes = (
"547 -13 OFFCURVE",
"669 179 OFFCURVE",
"669 394 CURVE SMOOTH",
"669 531 OFFCURVE",
"616 637 OFFCURVE",
"525 689 CURVE",
"564 778 LINE",
"506 778 LINE",
"477 711 LINE",
"446 721 OFFCURVE",
"413 726 OFFCURVE",
"376 726 CURVE SMOOTH",
"157 726 OFFCURVE",
"35 535 OFFCURVE",
"35 318 CURVE SMOOTH",
"35 181 OFFCURVE",
"88 75 OFFCURVE",
"180 23 CURVE",
"141 -64 LINE",
"199 -64 LINE",
"229 2 LINE",
"258 -8 OFFCURVE",
"291 -13 OFFCURVE",
"327 -13 CURVE SMOOTH"
);
},
{
closed = 1;
nodes = (
"104 615 OFFCURVE",
"303 719 OFFCURVE",
"458 664 CURVE",
"199 70 LINE",
"119 121 OFFCURVE",
"76 222 OFFCURVE",
"85 355 CURVE SMOOTH"
);
},
{
closed = 1;
nodes = (
"505 641 LINE",
"585 590 OFFCURVE",
"628 489 OFFCURVE",
"619 357 CURVE SMOOTH",
"600 91 OFFCURVE",
"393 -5 OFFCURVE",
"247 48 CURVE"
);
}
);
width = 691;
},
{
anchors = (
{
name = Top;
position = "{404, 726}";
}
);
layerId = m002;
paths = (
{
closed = 1;
nodes = (
"576 -13 OFFCURVE",
"714 167 OFFCURVE",
"714 387 CURVE SMOOTH",
"714 512 OFFCURVE",
"666 609 OFFCURVE",
"586 667 CURVE",
"637 778 LINE",
"459 778 LINE",
"433 723 LINE",
"419 725 OFFCURVE",
"404 726 OFFCURVE",
"386 726 CURVE SMOOTH",
"157 726 OFFCURVE",
"16 550 OFFCURVE",
"16 325 CURVE SMOOTH",
"16 200 OFFCURVE",
"64 103 OFFCURVE",
"144 46 CURVE",
"94 -64 LINE",
"272 -64 LINE",
"297 -11 LINE",
"311 -12 OFFCURVE",
"326 -13 OFFCURVE",
"343 -13 CURVE SMOOTH"
);
},
{
closed = 1;
nodes = (
"185 462 OFFCURVE",
"262 551 OFFCURVE",
"367 558 CURVE",
"216 218 LINE",
"196 248 OFFCURVE",
"185 288 OFFCURVE",
"185 333 CURVE SMOOTH"
);
},
{
closed = 1;
nodes = (
"514 494 LINE",
"534 464 OFFCURVE",
"545 425 OFFCURVE",
"545 382 CURVE SMOOTH",
"545 252 OFFCURVE",
"469 163 OFFCURVE",
"364 156 CURVE"
);
}
);
width = 716;
}
);
leftKerningGroup = O;
leftMetricsKey = O;
rightKerningGroup = O;
rightMetricsKey = O;
unicode = 00D8;
},
{
color = 10;
glyphname = OE;
lastChange = "2023-08-31 01:34:22 +0000";
layers = (
{
layerId = "FD4D3FDD-DE85-408F-A52A-FF600B1C6101";
paths = (
{
closed = 1;
nodes = (
"583 392 LINE",
"603 666 LINE",
"943 666 LINE",
"947 714 LINE",
"381 714 LINE SMOOTH",
"159 714 OFFCURVE",
"36 530 OFFCURVE",
"36 322 CURVE SMOOTH",
"36 128 OFFCURVE",
"151 0 OFFCURVE",
"332 0 CURVE SMOOTH",
"897 0 LINE",
"900 48 LINE",
"559 48 LINE",
"580 344 LINE",
"900 344 LINE",
"903 392 LINE"
);
},
{
closed = 1;
nodes = (
"85 504 OFFCURVE",
"192 666 OFFCURVE",
"379 666 CURVE SMOOTH",
"553 666 LINE",
"509 48 LINE",
"334 48 LINE SMOOTH",
"181 48 OFFCURVE",
"85 157 OFFCURVE",
"85 325 CURVE SMOOTH"
);
}
);
width = 955;
},
{
layerId = m002;
paths = (
{
closed = 1;
nodes = (
"668 452 LINE",
"674 546 LINE",
"980 546 LINE",
"992 714 LINE",
"414 714 LINE SMOOTH",
"152 714 OFFCURVE",
"16 553 OFFCURVE",
"16 326 CURVE SMOOTH",
"16 121 OFFCURVE",
"146 0 OFFCURVE",
"369 0 CURVE SMOOTH",
"942 0 LINE",
"953 168 LINE",
"648 168 LINE",
"656 284 LINE",
"940 284 LINE",
"952 452 LINE"
);
},
{
closed = 1;
nodes = (
"235 440 OFFCURVE",
"288 546 OFFCURVE",
"407 546 CURVE SMOOTH",
"464 546 LINE",
"438 168 LINE",
"376 168 LINE SMOOTH",
"286 168 OFFCURVE",
"235 227 OFFCURVE",
"235 329 CURVE SMOOTH"
);
}
);
width = 980;
}
);
leftKerningGroup = O;
leftMetricsKey = O;
rightKerningGroup = E;
rightMetricsKey = E;
unicode = 0152;
},
{
glyphname = P;
lastChange = "2023-08-31 01:28:21 +0000";
layers = (
{
anchors = (
{
name = Bottom;
position = "{216, 0}";
},
{
name = Top;
position = "{252, 714}";
}
);
layerId = "FD4D3FDD-DE85-408F-A52A-FF600B1C6101";
paths = (
{
closed = 1;
nodes = (
"92 291 LINE",
"281 291 LINE SMOOTH",
"406 291 OFFCURVE",
"490 383 OFFCURVE",
"490 522 CURVE SMOOTH",
"490 637 OFFCURVE",
"413 714 OFFCURVE",
"298 714 CURVE SMOOTH",
"72 714 LINE",
"22 0 LINE",
"72 0 LINE"
);
},
{
closed = 1;
nodes = (
"119 666 LINE",
"296 666 LINE SMOOTH",
"382 666 OFFCURVE",
"440 608 OFFCURVE",
"440 520 CURVE SMOOTH",
"440 411 OFFCURVE",
"377 338 OFFCURVE",
"283 338 CURVE SMOOTH",
"96 338 LINE"
);
}
);
width = 502;
},
{
anchors = (
{
name = Bottom;
position = "{256, 0}";
},
{
name = Top;
position = "{292, 714}";
}
);
layerId = m002;
paths = (
{
closed = 1;
nodes = (
"227 221 LINE",
"347 221 LINE SMOOTH",
"536 221 OFFCURVE",
"647 319 OFFCURVE",
"647 485 CURVE SMOOTH",
"647 629 OFFCURVE",
"543 714 OFFCURVE",
"366 714 CURVE SMOOTH",
"52 714 LINE",
"2 0 LINE",
"212 0 LINE"
);
},
{
closed = 1;
nodes = (
"250 546 LINE",
"359 546 LINE SMOOTH",
"408 546 OFFCURVE",
"437 521 OFFCURVE",
"437 480 CURVE SMOOTH",
"437 423 OFFCURVE",
"407 389 OFFCURVE",
"355 389 CURVE SMOOTH",
"239 389 LINE"
);
}
);
width = 642;
}
);
leftKerningGroup = H;
leftMetricsKey = N;
rightKerningGroup = P;
unicode = 0050;
},
{
color = 10;
glyphname = Thorn;
lastChange = "2023-08-31 01:34:31 +0000";
layers = (
{
layerId = "FD4D3FDD-DE85-408F-A52A-FF600B1C6101";
paths = (
{
closed = 1;
nodes = (
"83 151 LINE",
"281 151 LINE SMOOTH",
"417 151 OFFCURVE",
"499 236 OFFCURVE",
"499 378 CURVE SMOOTH",
"499 501 OFFCURVE",
"425 574 OFFCURVE",
"298 574 CURVE SMOOTH",
"112 574 LINE",
"122 714 LINE",
"72 714 LINE",
"22 0 LINE",
"72 0 LINE"
);
},
{
closed = 1;
nodes = (
"109 526 LINE",
"296 526 LINE SMOOTH",
"394 526 OFFCURVE",
"450 471 OFFCURVE",
"450 375 CURVE SMOOTH",
"450 265 OFFCURVE",
"386 198 OFFCURVE",
"283 198 CURVE SMOOTH",
"86 198 LINE"
);
}
);
width = 522;
},
{
layerId = m002;
paths = (
{
closed = 1;
nodes = (
"179 99 LINE",
"319 99 LINE SMOOTH",
"484 99 OFFCURVE",
"598 200 OFFCURVE",
"598 351 CURVE SMOOTH",
"598 485 OFFCURVE",
"495 574 OFFCURVE",
"337 574 CURVE SMOOTH",
"212 574 LINE",
"222 714 LINE",
"52 714 LINE",
"2 0 LINE",
"172 0 LINE"
);
},
{
closed = 1;
nodes = (
"202 424 LINE",
"331 424 LINE SMOOTH",
"392 424 OFFCURVE",
"428 393 OFFCURVE",
"428 347 CURVE SMOOTH",
"428 288 OFFCURVE",
"383 249 OFFCURVE",
"325 249 CURVE SMOOTH",
"189 249 LINE"
);
}
);
width = 602;
}
);
leftKerningGroup = H;
leftMetricsKey = P;
rightKerningGroup = P;
rightMetricsKey = P;
unicode = 00DE;
},
{
glyphname = Q;
lastChange = "2023-08-31 22:44:28 +0000";
layers = (
{
layerId = "FD4D3FDD-DE85-408F-A52A-FF600B1C6101";
paths = (
{
closed = 1;
nodes = (
"386 -13 OFFCURVE",
"438 -2 OFFCURVE",
"483 20 CURVE",
"520 -54 LINE",
"565 -29 LINE",
"527 46 LINE",
"620 113 OFFCURVE",
"671 236 OFFCURVE",
"671 401 CURVE SMOOTH",
"671 605 OFFCURVE",
"562 726 OFFCURVE",
"377 726 CURVE SMOOTH",
"162 726 OFFCURVE",
"35 572 OFFCURVE",
"35 311 CURVE SMOOTH",
"35 107 OFFCURVE",
"144 -13 OFFCURVE",
"328 -13 CURVE SMOOTH"
);
},
{
closed = 1;
nodes = (
"85 543 OFFCURVE",
"193 678 OFFCURVE",
"376 678 CURVE SMOOTH",
"530 678 OFFCURVE",
"621 574 OFFCURVE",
"621 397 CURVE SMOOTH",
"621 255 OFFCURVE",
"579 150 OFFCURVE",
"504 91 CURVE",
"441 213 LINE",
"397 188 LINE",
"460 63 LINE",
"422 45 OFFCURVE",
"378 35 OFFCURVE",
"329 35 CURVE SMOOTH",
"176 35 OFFCURVE",
"85 139 OFFCURVE",
"85 315 CURVE SMOOTH"
);
}
);
width = 693;
},
{
layerId = m002;
paths = (
{
closed = 1;
nodes = (
"398 -13 OFFCURVE",
"433 -9 OFFCURVE",
"466 -3 CURVE",
"506 -84 LINE",
"640 -9 LINE",
"607 58 LINE",
"716 135 OFFCURVE",
"754 266 OFFCURVE",
"754 391 CURVE SMOOTH",
"754 603 OFFCURVE",
"626 726 OFFCURVE",
"406 726 CURVE SMOOTH",
"146 726 OFFCURVE",
"16 554 OFFCURVE",
"16 321 CURVE SMOOTH",
"16 110 OFFCURVE",
"144 -13 OFFCURVE",
"363 -13 CURVE SMOOTH"
);
},
{
closed = 1;
nodes = (
"225 471 OFFCURVE",
"296 558 OFFCURVE",
"403 558 CURVE SMOOTH",
"494 558 OFFCURVE",
"545 495 OFFCURVE",
"545 388 CURVE SMOOTH",
"545 326 OFFCURVE",
"532 280 OFFCURVE",
"513 243 CURVE",
"489 285 LINE",
"356 210 LINE",
"382 155 LINE",
"376 155 OFFCURVE",
"372 155 OFFCURVE",
"366 155 CURVE",
"276 155 OFFCURVE",
"225 218 OFFCURVE",
"225 327 CURVE SMOOTH"
);
}
);
width = 756;
}
);
leftKerningGroup = O;
leftMetricsKey = O;
rightKerningGroup = O;
rightMetricsKey = O;
unicode = 0051;
},
{
glyphname = R;
lastChange = "2023-08-31 01:28:21 +0000";
layers = (
{
anchors = (
{
name = Bottom;
position = "{237, 0}";
},
{
name = Top;
position = "{260, 714}";
}
);
layerId = "FD4D3FDD-DE85-408F-A52A-FF600B1C6101";
paths = (
{
closed = 1;
nodes = (
"92 291 LINE",
"288 291 LINE",
"437 0 LINE",
"493 0 LINE",
"342 298 LINE",
"434 318 OFFCURVE",
"491 388 OFFCURVE",
"498 494 CURVE SMOOTH",
"508 632 OFFCURVE",
"434 714 OFFCURVE",
"298 714 CURVE SMOOTH",
"72 714 LINE",
"22 0 LINE",
"72 0 LINE"
);
},
{
closed = 1;
nodes = (
"119 666 LINE",
"296 666 LINE SMOOTH",
"400 666 OFFCURVE",
"456 604 OFFCURVE",
"448 498 CURVE SMOOTH",
"441 397 OFFCURVE",
"380 338 OFFCURVE",
"283 338 CURVE SMOOTH",
"96 338 LINE"
);
}
);
width = 531;
},
{
anchors = (
{
name = Bottom;
position = "{307, 0}";
},
{
name = Top;
position = "{310, 714}";
}
);
layerId = m002;
paths = (
{
closed = 1;
nodes = (
"229 240 LINE",
"297 240 LINE",
"419 0 LINE",
"634 0 LINE",
"499 264 LINE",
"587 299 OFFCURVE",
"639 371 OFFCURVE",
"647 472 CURVE SMOOTH",
"657 624 OFFCURVE",
"555 714 OFFCURVE",
"376 714 CURVE SMOOTH",
"52 714 LINE",
"2 0 LINE",
"212 0 LINE"
);
},
{
closed = 1;
nodes = (
"250 546 LINE",
"369 546 LINE SMOOTH",
"416 546 OFFCURVE",
"440 522 OFFCURVE",
"437 482 CURVE SMOOTH",
"434 436 OFFCURVE",
"406 408 OFFCURVE",
"366 408 CURVE SMOOTH",
"241 408 LINE"
);
}
);
width = 672;
}
);
leftKerningGroup = H;
leftMetricsKey = N;
rightKerningGroup = R;
unicode = 0052;
},
{
glyphname = S;
lastChange = "2023-08-31 21:41:38 +0000";
layers = (
{
anchors = (
{
name = Bottom;
position = "{276, 0}";
},
{
name = Top;
position = "{314, 726}";
}
);
layerId = "FD4D3FDD-DE85-408F-A52A-FF600B1C6101";
paths = (
{
closed = 1;
nodes = (
"168 726 OFFCURVE",
"77 652 OFFCURVE",
"69 528 CURVE SMOOTH",
"52 293 OFFCURVE",
"490 385 OFFCURVE",
"476 190 CURVE SMOOTH",
"469 93 OFFCURVE",
"397 35 OFFCURVE",
"281 35 CURVE SMOOTH",
"143 35 OFFCURVE",
"64 107 OFFCURVE",
"68 230 CURVE",
"18 232 LINE",
"7 78 OFFCURVE",
"103 -13 OFFCURVE",
"276 -13 CURVE SMOOTH",
"424 -13 OFFCURVE",
"517 64 OFFCURVE",
"526 194 CURVE SMOOTH",
"542 421 OFFCURVE",
"119 343 OFFCURVE",
"119 521 CURVE SMOOTH",
"119 620 OFFCURVE",
"191 678 OFFCURVE",
"312 678 CURVE SMOOTH",
"431 678 OFFCURVE",
"496 614 OFFCURVE",
"487 505 CURVE",
"537 503 LINE",
"547 643 OFFCURVE",
"464 726 OFFCURVE",
"313 726 CURVE SMOOTH"
);
}
);
width = 551;
},
{
anchors = (
{
name = Bottom;
position = "{340, 0}";
},
{
name = Top;
position = "{379, 726}";
}
);
layerId = m002;
paths = (
{
closed = 1;
nodes = (
"181 726 OFFCURVE",
"66 638 OFFCURVE",
"66 492 CURVE SMOOTH",
"66 233 OFFCURVE",
"455 313 OFFCURVE",
"448 220 CURVE SMOOTH",
"445 179 OFFCURVE",
"407 155 OFFCURVE",
"347 155 CURVE SMOOTH",
"268 155 OFFCURVE",
"225 191 OFFCURVE",
"229 254 CURVE",
"20 258 LINE",
"8 89 OFFCURVE",
"129 -13 OFFCURVE",
"344 -13 CURVE SMOOTH",
"541 -13 OFFCURVE",
"658 78 OFFCURVE",
"658 230 CURVE SMOOTH",
"658 482 OFFCURVE",
"277 411 OFFCURVE",
"277 499 CURVE SMOOTH",
"277 536 OFFCURVE",
"314 558 OFFCURVE",
"372 558 CURVE SMOOTH",
"428 558 OFFCURVE",
"459 531 OFFCURVE",
"455 481 CURVE",
"665 477 LINE",
"676 632 OFFCURVE",
"567 726 OFFCURVE",
"375 726 CURVE SMOOTH"
);
}
);
width = 681;
}
);
leftKerningGroup = S;
rightKerningGroup = S;
unicode = 0053;
},
{
color = 10;
glyphname = Saltillo;
lastChange = "2023-08-31 02:37:13 +0000";
layers = (
{
layerId = "FD4D3FDD-DE85-408F-A52A-FF600B1C6101";
paths = (
{
closed = 1;
nodes = (
"50 409 LINE",
"40 196 LINE",
"80 196 LINE",
"100 409 LINE",
"123 731 LINE",
"73 731 LINE"
);
}
);
width = 130;
},
{
layerId = m002;
paths = (
{
closed = 1;
nodes = (
"30 409 LINE",
"20 196 LINE",
"180 196 LINE",
"200 409 LINE",
"223 731 LINE",
"53 731 LINE"
);
}
);
width = 210;
}
);
leftKerningGroup = H;
leftMetricsKey = N;
rightKerningGroup = H;
rightMetricsKey = N;
unicode = A78B;
},
{
color = 10;
glyphname = Germandbls;
lastChange = "2023-08-31 01:34:31 +0000";
layers = (
{
layerId = "FD4D3FDD-DE85-408F-A52A-FF600B1C6101";
paths = (
{
closed = 1;
nodes = (
"418 -13 OFFCURVE",
"508 78 OFFCURVE",
"518 216 CURVE SMOOTH",
"527 349 OFFCURVE",
"430 440 OFFCURVE",
"276 447 CURVE",
"483 666 LINE",
"487 714 LINE",
"72 714 LINE",
"22 0 LINE",
"72 0 LINE",
"119 666 LINE",
"421 666 LINE",
"213 446 LINE",
"209 398 LINE",
"230 398 LINE SMOOTH",
"381 398 OFFCURVE",
"475 327 OFFCURVE",
"468 218 CURVE SMOOTH",
"460 109 OFFCURVE",
"390 35 OFFCURVE",
"293 35 CURVE",
"291 -13 LINE"
);
}
);
width = 551;
},
{
layerId = m002;
paths = (
{
closed = 1;
nodes = (
"515 -13 OFFCURVE",
"628 79 OFFCURVE",
"628 234 CURVE SMOOTH",
"628 329 OFFCURVE",
"579 397 OFFCURVE",
"492 428 CURVE",
"595 546 LINE",
"607 714 LINE",
"52 714 LINE",
"2 0 LINE",
"212 0 LINE",
"250 546 LINE",
"387 546 LINE",
"291 436 LINE",
"281 278 LINE",
"303 278 LINE SMOOTH",
"369 278 OFFCURVE",
"408 259 OFFCURVE",
"408 226 CURVE SMOOTH",
"408 181 OFFCURVE",
"379 155 OFFCURVE",
"330 155 CURVE",
"323 -13 LINE"
);
}
);
width = 641;
}
);
leftKerningGroup = H;
leftMetricsKey = B;
rightKerningGroup = B;
rightMetricsKey = O;
unicode = 1E9E;
},
{
color = 10;
glyphname = Schwa;
lastChange = "2023-08-31 02:35:32 +0000";
layers = (
{
layerId = "FD4D3FDD-DE85-408F-A52A-FF600B1C6101";
paths = (
{
closed = 1;
nodes = (
"104 491 LINE",
"135 603 OFFCURVE",
"234 678 OFFCURVE",
"351 678 CURVE SMOOTH",
"519 678 OFFCURVE",
"579 517 OFFCURVE",
"568 356 CURVE",
"38 356 LINE",
"36 339 LINE SMOOTH",
"11 129 OFFCURVE",
"121 -13 OFFCURVE",
"291 -13 CURVE SMOOTH",
"488 -13 OFFCURVE",
"620 153 OFFCURVE",
"620 403 CURVE SMOOTH",
"620 597 OFFCURVE",
"514 726 OFFCURVE",
"355 726 CURVE SMOOTH",
"210 726 OFFCURVE",
"90 633 OFFCURVE",
"54 493 CURVE"
);
},
{
closed = 1;
nodes = (
"563 308 LINE",
"536 141 OFFCURVE",
"438 35 OFFCURVE",
"300 35 CURVE SMOOTH",
"158 35 OFFCURVE",
"71 144 OFFCURVE",
"84 308 CURVE"
);
}
);
width = 642;
},
{
layerId = m002;
paths = (
{
closed = 1;
nodes = (
"235 450 LINE",
"253 518 OFFCURVE",
"309 558 OFFCURVE",
"387 558 CURVE SMOOTH",
"469 558 OFFCURVE",
"519 503 OFFCURVE",
"523 408 CURVE",
"24 408 LINE",
"19 330 LINE SMOOTH",
"12 114 OFFCURVE",
"139 -13 OFFCURVE",
"362 -13 CURVE SMOOTH",
"595 -13 OFFCURVE",
"733 139 OFFCURVE",
"733 397 CURVE SMOOTH",
"733 604 OFFCURVE",
"608 726 OFFCURVE",
"396 726 CURVE SMOOTH",
"205 726 OFFCURVE",
"67 625 OFFCURVE",
"24 454 CURVE"
);
},
{
closed = 1;
nodes = (
"500 258 LINE",
"474 192 OFFCURVE",
"425 155 OFFCURVE",
"358 155 CURVE SMOOTH",
"276 155 OFFCURVE",
"228 193 OFFCURVE",
"225 258 CURVE"
);
}
);
width = 735;
}
);
leftKerningGroup = O;
leftMetricsKey = O;
rightKerningGroup = O;
rightMetricsKey = O;
unicode = 018F;
},
{
glyphname = T;
lastChange = "2023-09-05 19:23:27 +0000";
layers = (
{
anchors = (
{
name = Bottom;
position = "{262, 0}";
},
{
name = Top;
position = "{312, 714}";
}
);
layerId = "FD4D3FDD-DE85-408F-A52A-FF600B1C6101";
paths = (
{
closed = 1;
nodes = (
"52 714 LINE",
"48 666 LINE",
"283 666 LINE",
"237 0 LINE",
"287 0 LINE",
"333 666 LINE",
"567 666 LINE",
"571 714 LINE"
);
}
);
width = 559;
},
{
anchors = (
{
name = Bottom;
position = "{297, 0}";
},
{
name = Top;
position = "{347, 714}";
}
);
layerId = m002;
paths = (
{
closed = 1;
nodes = (
"42 714 LINE",
"30 546 LINE",
"230 546 LINE",
"192 0 LINE",
"402 0 LINE",
"440 546 LINE",
"639 546 LINE",
"651 714 LINE"
);
}
);
width = 629;
}
);
leftKerningGroup = T;
rightKerningGroup = T;
unicode = 0054;
},
{
color = 10;
glyphname = Tbar;
lastChange = "2023-08-31 16:33:42 +0000";
layers = (
{
layerId = "FD4D3FDD-DE85-408F-A52A-FF600B1C6101";
paths = (
{
closed = 1;
nodes = (
"52 714 LINE",
"48 666 LINE",
"283 666 LINE",
"265 412 LINE",
"71 417 LINE",
"68 372 LINE",
"263 372 LINE",
"237 0 LINE",
"287 0 LINE",
"313 372 LINE",
"507 372 LINE",
"510 414 LINE",
"316 414 LINE",
"333 666 LINE",
"567 666 LINE",
"571 714 LINE"
);
}
);
width = 559;
},
{
layerId = m002;
paths = (
{
closed = 1;
nodes = (
"42 714 LINE",
"30 546 LINE",
"230 546 LINE",
"220 402 LINE",
"61 407 LINE",
"52 284 LINE",
"212 284 LINE",
"192 0 LINE",
"402 0 LINE",
"422 284 LINE",
"580 284 LINE",
"589 404 LINE",
"430 404 LINE",
"440 546 LINE",
"639 546 LINE",
"651 714 LINE"
);
}
);
width = 629;
}
);
leftKerningGroup = T;
leftMetricsKey = T;
rightKerningGroup = T;
rightMetricsKey = T;
unicode = 0166;
},
{
color = 10;
glyphname = Tdiagonalstroke;
lastChange = "2023-08-31 19:04:35 +0000";
layers = (
{
layerId = "FD4D3FDD-DE85-408F-A52A-FF600B1C6101";
paths = (
{
closed = 1;
nodes = (
"488 714 LINE",
"514 772 LINE",
"463 772 LINE",
"437 714 LINE",
"52 714 LINE",
"48 666 LINE",
"283 666 LINE",
"259 320 LINE",
"90 -53 LINE",
"140 -53 LINE",
"250 190 LINE",
"237 0 LINE",
"287 0 LINE",
"309 320 LINE",
"465 666 LINE",
"567 666 LINE",
"571 714 LINE"
);
},
{
closed = 1;
nodes = (
"333 666 LINE",
"415 666 LINE",
"318 451 LINE"
);
}
);
width = 559;
},
{
layerId = m002;
paths = (
{
closed = 1;
nodes = (
"604 714 LINE",
"630 772 LINE",
"579 772 LINE",
"553 714 LINE",
"42 714 LINE",
"30 546 LINE",
"230 546 LINE",
"192 0 LINE",
"229 0 LINE",
"205 -53 LINE",
"257 -53 LINE",
"280 0 LINE",
"402 0 LINE",
"425 318 LINE",
"528 546 LINE",
"639 546 LINE",
"651 714 LINE"
);
},
{
closed = 1;
nodes = (
"440 546 LINE",
"476 546 LINE",
"432 448 LINE"
);
}
);
width = 629;
}
);
leftKerningGroup = T;
leftMetricsKey = T;
rightKerningGroup = T;
rightMetricsKey = T;
unicode = 023E;
},
{
glyphname = U;
lastChange = "2023-08-31 01:28:21 +0000";
layers = (
{
anchors = (
{
name = Bottom;
position = "{294, 0}";
},
{
name = Top;
position = "{344, 714}";
}
);
layerId = "FD4D3FDD-DE85-408F-A52A-FF600B1C6101";
paths = (
{
closed = 1;
nodes = (
"39 237 LINE SMOOTH",
"28 80 OFFCURVE",
"122 -13 OFFCURVE",
"293 -13 CURVE SMOOTH",
"464 -13 OFFCURVE",
"572 90 OFFCURVE",
"584 264 CURVE SMOOTH",
"616 714 LINE",
"566 714 LINE",
"535 276 LINE SMOOTH",
"524 125 OFFCURVE",
"434 35 OFFCURVE",
"294 35 CURVE SMOOTH",
"157 36 OFFCURVE",
"81 114 OFFCURVE",
"90 246 CURVE SMOOTH",
"122 714 LINE",
"72 714 LINE"
);
}
);
width = 624;
},
{
anchors = (
{
name = Bottom;
position = "{323, 0}";
},
{
name = Top;
position = "{373, 714}";
}
);
layerId = m002;
paths = (
{
closed = 1;
nodes = (
"20 250 LINE SMOOTH",
"9 85 OFFCURVE",
"123 -13 OFFCURVE",
"326 -13 CURVE SMOOTH",
"526 -13 OFFCURVE",
"652 93 OFFCURVE",
"665 273 CURVE SMOOTH",
"696 714 LINE",
"486 714 LINE",
"454 267 LINE SMOOTH",
"450 197 OFFCURVE",
"404 155 OFFCURVE",
"329 155 CURVE SMOOTH",
"262 156 OFFCURVE",
"225 196 OFFCURVE",
"230 263 CURVE SMOOTH",
"262 714 LINE",
"52 714 LINE"
);
}
);
width = 684;
}
);
leftKerningGroup = U;
rightKerningGroup = U;
unicode = 0055;
},
{
color = 10;
glyphname = "Upsilon-latin";
lastChange = "2023-08-31 19:04:40 +0000";
layers = (
{
layerId = "FD4D3FDD-DE85-408F-A52A-FF600B1C6101";
paths = (
{
closed = 1;
nodes = (
"531 -13 OFFCURVE",
"667 135 OFFCURVE",
"667 357 CURVE SMOOTH",
"667 499 OFFCURVE",
"590 617 OFFCURVE",
"469 666 CURVE",
"679 666 LINE",
"683 714 LINE",
"408 714 LINE",
"404 666 LINE",
"532 622 OFFCURVE",
"618 497 OFFCURVE",
"618 355 CURVE SMOOTH",
"618 163 OFFCURVE",
"502 35 OFFCURVE",
"329 35 CURVE SMOOTH",
"181 35 OFFCURVE",
"83 140 OFFCURVE",
"83 297 CURVE SMOOTH",
"83 467 OFFCURVE",
"187 614 OFFCURVE",
"344 666 CURVE",
"348 714 LINE",
"73 714 LINE",
"69 666 LINE",
"275 666 LINE",
"128 610 OFFCURVE",
"34 468 OFFCURVE",
"34 295 CURVE SMOOTH",
"34 110 OFFCURVE",
"151 -13 OFFCURVE",
"327 -13 CURVE SMOOTH"
);
}
);
width = 692;
},
{
layerId = m002;
paths = (
{
closed = 1;
nodes = (
"607 -13 OFFCURVE",
"749 97 OFFCURVE",
"749 284 CURVE SMOOTH",
"749 402 OFFCURVE",
"693 494 OFFCURVE",
"592 546 CURVE",
"776 546 LINE",
"788 714 LINE",
"445 714 LINE",
"433 546 LINE",
"497 522 OFFCURVE",
"535 462 OFFCURVE",
"535 386 CURVE SMOOTH",
"535 265 OFFCURVE",
"476 194 OFFCURVE",
"376 194 CURVE SMOOTH",
"294 194 OFFCURVE",
"245 246 OFFCURVE",
"245 335 CURVE SMOOTH",
"245 438 OFFCURVE",
"293 517 OFFCURVE",
"373 546 CURVE",
"385 714 LINE",
"42 714 LINE",
"30 546 LINE",
"198 546 LINE",
"84 491 OFFCURVE",
"20 394 OFFCURVE",
"20 268 CURVE SMOOTH",
"20 91 OFFCURVE",
"149 -13 OFFCURVE",
"366 -13 CURVE SMOOTH"
);
}
);
width = 766;
}
);
leftKerningGroup = O;
leftMetricsKey = O;
rightKerningGroup = O;
rightMetricsKey = O;
unicode = 01B1;
},
{
glyphname = V;
lastChange = "2023-09-05 19:33:06 +0000";
layers = (
{
anchors = (
{
name = Bottom;
position = "{299, 0}";
},
{
name = Top;
position = "{349, 714}";
}
);
layerId = "FD4D3FDD-DE85-408F-A52A-FF600B1C6101";
paths = (
{
closed = 1;
nodes = (
"305 98 LINE",
"303 98 LINE",
"104 714 LINE",
"52 714 LINE",
"281 0 LINE",
"315 0 LINE",
"645 714 LINE",
"591 714 LINE"
);
}
);
width = 633;
},
{
anchors = (
{
name = Bottom;
position = "{399, 0}";
},
{
name = Top;
position = "{449, 714}";
}
);
layerId = m002;
paths = (
{
closed = 1;
nodes = (
"418 290 LINE",
"416 290 LINE",
"264 714 LINE",
"52 714 LINE",
"311 0 LINE",
"485 0 LINE",
"845 714 LINE",
"631 714 LINE"
);
}
);
width = 833;
}
);
leftKerningGroup = V;
leftMetricsKey = A;
rightKerningGroup = V;
rightMetricsKey = A;
unicode = 0056;
},
{
color = 10;
glyphname = "Gamma-latin";
lastChange = "2023-08-31 02:39:17 +0000";
layers = (
{
layerId = "FD4D3FDD-DE85-408F-A52A-FF600B1C6101";
paths = (
{
closed = 1;
nodes = (
"324 -13 OFFCURVE",
"384 48 OFFCURVE",
"384 138 CURVE SMOOTH",
"384 195 OFFCURVE",
"353 246 OFFCURVE",
"327 296 CURVE SMOOTH",
"292 360 LINE",
"526 714 LINE",
"474 714 LINE",
"268 406 LINE",
"106 714 LINE",
"52 714 LINE",
"238 360 LINE",
"195 294 LINE SMOOTH",
"157 237 OFFCURVE",
"112 179 OFFCURVE",
"112 113 CURVE SMOOTH",
"112 36 OFFCURVE",
"160 -13 OFFCURVE",
"238 -13 CURVE SMOOTH"
);
},
{
closed = 1;
nodes = (
"162 182 OFFCURVE",
"210 237 OFFCURVE",
"247 293 CURVE SMOOTH",
"261 314 LINE",
"273 291 LINE SMOOTH",
"299 240 OFFCURVE",
"334 190 OFFCURVE",
"334 135 CURVE SMOOTH",
"334 75 OFFCURVE",
"299 35 OFFCURVE",
"243 35 CURVE SMOOTH",
"193 35 OFFCURVE",
"162 69 OFFCURVE",
"162 119 CURVE SMOOTH"
);
}
);
width = 514;
},
{
layerId = m002;
paths = (
{
closed = 1;
nodes = (
"431 -13 OFFCURVE",
"538 74 OFFCURVE",
"548 222 CURVE SMOOTH",
"551 261 OFFCURVE",
"537 313 OFFCURVE",
"509 359 CURVE SMOOTH",
"419 502 LINE",
"569 714 LINE",
"347 714 LINE",
"316 671 LINE",
"289 714 LINE",
"65 714 LINE",
"187 502 LINE",
"80 355 LINE SMOOTH",
"45 309 OFFCURVE",
"21 257 OFFCURVE",
"17 212 CURVE SMOOTH",
"8 70 OFFCURVE",
"97 -13 OFFCURVE",
"262 -13 CURVE SMOOTH"
);
},
{
closed = 1;
nodes = (
"228 230 OFFCURVE",
"235 248 OFFCURVE",
"267 294 CURVE SMOOTH",
"288 322 LINE",
"306 290 LINE SMOOTH",
"328 252 OFFCURVE",
"337 233 OFFCURVE",
"337 210 CURVE SMOOTH",
"337 177 OFFCURVE",
"316 155 OFFCURVE",
"283 155 CURVE SMOOTH",
"250 155 OFFCURVE",
"228 175 OFFCURVE",
"228 207 CURVE SMOOTH"
);
}
);
width = 571;
}
);
leftKerningGroup = V;
leftMetricsKey = V;
rightKerningGroup = V;
rightMetricsKey = V;
unicode = 0194;
},
{
glyphname = W;
lastChange = "2023-08-31 01:28:21 +0000";
layers = (
{
anchors = (
{
name = Bottom;
position = "{420, 0}";
},
{
name = Top;
position = "{471, 714}";
}
);
layerId = "FD4D3FDD-DE85-408F-A52A-FF600B1C6101";
paths = (
{
closed = 1;
nodes = (
"198 0 LINE",
"251 0 LINE",
"463 617 LINE",
"465 617 LINE",
"590 0 LINE",
"643 0 LINE",
"889 714 LINE",
"835 714 LINE",
"624 97 LINE",
"622 97 LINE",
"496 714 LINE",
"443 714 LINE",
"232 97 LINE",
"230 97 LINE",
"104 714 LINE",
"52 714 LINE"
);
}
);
width = 877;
},
{
anchors = (
{
name = Bottom;
position = "{525, 0}";
},
{
name = Top;
position = "{576, 714}";
}
);
layerId = m002;
paths = (
{
closed = 1;
nodes = (
"198 0 LINE",
"418 0 LINE",
"553 405 LINE",
"555 405 LINE",
"634 0 LINE",
"854 0 LINE",
"1100 714 LINE",
"879 714 LINE",
"739 304 LINE",
"737 304 LINE",
"657 714 LINE",
"492 714 LINE",
"355 305 LINE",
"353 305 LINE",
"271 714 LINE",
"52 714 LINE"
);
}
);
width = 1088;
}
);
leftKerningGroup = V;
leftMetricsKey = A;
rightKerningGroup = V;
rightMetricsKey = A;
unicode = 0057;
},
{
glyphname = X;
lastChange = "2023-08-31 01:28:21 +0000";
layers = (
{
anchors = (
{
name = Bottom;
position = "{292, 0}";
},
{
name = Top;
position = "{342, 714}";
}
);
layerId = "FD4D3FDD-DE85-408F-A52A-FF600B1C6101";
paths = (
{
closed = 1;
nodes = (
"337 356 LINE",
"613 714 LINE",
"553 714 LINE",
"310 399 LINE",
"111 714 LINE",
"53 714 LINE",
"278 358 LINE",
"2 0 LINE",
"62 0 LINE",
"305 315 LINE",
"504 0 LINE",
"562 0 LINE"
);
}
);
width = 601;
},
{
anchors = (
{
name = Bottom;
position = "{387, 0}";
},
{
name = Top;
position = "{437, 714}";
}
);
layerId = m002;
paths = (
{
closed = 1;
nodes = (
"530 356 LINE",
"808 714 LINE",
"558 714 LINE",
"417 533 LINE",
"301 714 LINE",
"53 714 LINE",
"281 358 LINE",
"2 0 LINE",
"253 0 LINE",
"394 181 LINE",
"510 0 LINE",
"757 0 LINE"
);
}
);
width = 796;
}
);
leftKerningGroup = X;
leftMetricsKey = A;
rightKerningGroup = X;
rightMetricsKey = A;
unicode = 0058;
},
{
glyphname = Y;
lastChange = "2023-08-31 21:54:07 +0000";
layers = (
{
anchors = (
{
name = Bottom;
position = "{266, 0}";
},
{
name = Top;
position = "{316, 714}";
}
);
layerId = "FD4D3FDD-DE85-408F-A52A-FF600B1C6101";
paths = (
{
closed = 1;
nodes = (
"241 0 LINE",
"291 0 LINE",
"310 273 LINE",
"579 714 LINE",
"523 714 LINE",
"289 330 LINE",
"287 330 LINE",
"106 714 LINE",
"52 714 LINE",
"260 273 LINE"
);
}
);
width = 567;
},
{
anchors = (
{
name = Bottom;
position = "{366, 0}";
},
{
name = Top;
position = "{416, 714}";
}
);
layerId = m002;
paths = (
{
closed = 1;
nodes = (
"261 0 LINE",
"471 0 LINE",
"490 273 LINE",
"780 714 LINE",
"553 714 LINE",
"399 477 LINE",
"396 477 LINE",
"277 714 LINE",
"52 714 LINE",
"280 273 LINE"
);
}
);
width = 768;
}
);
leftKerningGroup = V;
leftMetricsKey = A;
rightKerningGroup = V;
rightMetricsKey = A;
unicode = 0059;
},
{
glyphname = Z;
lastChange = "2023-08-31 01:28:21 +0000";
layers = (
{
anchors = (
{
name = Bottom;
position = "{261, 0}";
},
{
name = Top;
position = "{292, 714}";
}
);
layerId = "FD4D3FDD-DE85-408F-A52A-FF600B1C6101";
paths = (
{
closed = 1;
nodes = (
"53 714 LINE",
"49 664 LINE",
"485 664 LINE",
"-5 50 LINE",
"-8 0 LINE",
"501 0 LINE",
"504 50 LINE",
"54 50 LINE",
"546 664 LINE",
"550 714 LINE"
);
}
);
width = 529;
},
{
anchors = (
{
name = Bottom;
position = "{261, 0}";
},
{
name = Top;
position = "{343, 714}";
}
);
layerId = m002;
paths = (
{
closed = 1;
nodes = (
"64 714 LINE",
"52 546 LINE",
"337 546 LINE",
"14 168 LINE",
"3 0 LINE",
"532 0 LINE",
"543 168 LINE",
"244 168 LINE",
"570 546 LINE",
"581 714 LINE"
);
}
);
width = 570;
}
);
leftKerningGroup = Z;
rightKerningGroup = Z;
unicode = 005A;
},
{
color = 10;
glyphname = Ismall;
lastChange = "2023-09-05 23:44:20 +0000";
layers = (
{
layerId = "FD4D3FDD-DE85-408F-A52A-FF600B1C6101";
paths = (
{
closed = 1;
nodes = (
"58 520 LINE",
"55 478 LINE",
"169 478 LINE",
"139 42 LINE",
"25 42 LINE",
"22 0 LINE",
"297 0 LINE",
"300 42 LINE",
"187 42 LINE",
"217 478 LINE",
"330 478 LINE",
"333 520 LINE"
);
}
);
width = 354;
},
{
layerId = m002;
paths = (
{
closed = 1;
nodes = (
"38 520 LINE",
"28 370 LINE",
"137 370 LINE",
"121 150 LINE",
"12 150 LINE",
"2 0 LINE",
"377 0 LINE",
"387 150 LINE",
"279 150 LINE",
"295 370 LINE",
"403 370 LINE",
"413 520 LINE"
);
}
);
width = 414;
}
);
leftKerningGroup = n;
leftMetricsKey = i;
rightKerningGroup = n;
rightMetricsKey = i;
unicode = 026A;
},
{
glyphname = a;
lastChange = "2023-09-05 23:32:36 +0000";
layers = (
{
anchors = (
{
name = Bottom;
position = "{189, 0}";
},
{
name = Ogonek;
position = "{350, 0}";
},
{
name = Top;
position = "{248, 532}";
}
);
background = {
paths = (
{
closed = 1;
nodes = (
"438 297 LINE",
"318 297 LINE SMOOTH",
"174 297 OFFCURVE",
"89 236 OFFCURVE",
"89 132 CURVE SMOOTH",
"89 45 OFFCURVE",
"157 -13 OFFCURVE",
"259 -13 CURVE SMOOTH",
"343 -13 OFFCURVE",
"410 25 OFFCURVE",
"438 88 CURVE",
"440 88 LINE",
"448 0 LINE",
"486 0 LINE",
"486 364 LINE SMOOTH",
"486 470 OFFCURVE",
"422 532 OFFCURVE",
"313 532 CURVE SMOOTH",
"192 532 OFFCURVE",
"120 476 OFFCURVE",
"120 382 CURVE",
"168 382 LINE",
"168 450 OFFCURVE",
"221 490 OFFCURVE",
"311 490 CURVE SMOOTH",
"391 490 OFFCURVE",
"438 446 OFFCURVE",
"438 372 CURVE SMOOTH"
);
},
{
closed = 1;
nodes = (
"141 214 OFFCURVE",
"203 257 OFFCURVE",
"323 257 CURVE SMOOTH",
"437 257 LINE",
"437 212 LINE SMOOTH",
"437 96 OFFCURVE",
"371 28 OFFCURVE",
"259 28 CURVE SMOOTH",
"188 28 OFFCURVE",
"141 69 OFFCURVE",
"141 131 CURVE SMOOTH"
);
},
{
closed = 1;
nodes = (
"418 90 LINE",
"418 45 OFFCURVE",
"431 25 QCURVE SMOOTH",
"447 0 OFFCURVE",
"492 0 QCURVE SMOOTH",
"514 0 OFFCURVE",
"533 4 QCURVE",
"533 57 LINE",
"523 53 OFFCURVE",
"513 53 QCURVE SMOOTH",
"476 53 OFFCURVE",
"476 91 QCURVE"
);
}
);
};
layerId = "FD4D3FDD-DE85-408F-A52A-FF600B1C6101";
paths = (
{
closed = 1;
nodes = (
"240 -13 OFFCURVE",
"309 23 OFFCURVE",
"344 78 CURVE",
"346 78 LINE",
"326 0 LINE",
"389 0 LINE",
"415 373 LINE SMOOTH",
"422 472 OFFCURVE",
"359 532 OFFCURVE",
"248 532 CURVE SMOOTH",
"130 532 OFFCURVE",
"58 477 OFFCURVE",
"51 383 CURVE",
"99 381 LINE",
"104 449 OFFCURVE",
"159 490 OFFCURVE",
"247 490 CURVE SMOOTH",
"324 490 OFFCURVE",
"368 455 OFFCURVE",
"368 393 CURVE SMOOTH",
"368 336 OFFCURVE",
"318 307 OFFCURVE",
"238 289 CURVE SMOOTH",
"100 259 OFFCURVE",
"21 212 OFFCURVE",
"21 121 CURVE SMOOTH",
"21 41 OFFCURVE",
"79 -13 OFFCURVE",
"172 -13 CURVE SMOOTH"
);
},
{
closed = 1;
nodes = (
"73 189 OFFCURVE",
"134 221 OFFCURVE",
"234 244 CURVE SMOOTH",
"294 258 OFFCURVE",
"334 274 OFFCURVE",
"361 302 CURVE",
"355 213 LINE SMOOTH",
"348 103 OFFCURVE",
"274 29 OFFCURVE",
"172 29 CURVE SMOOTH",
"106 29 OFFCURVE",
"64 69 OFFCURVE",
"69 130 CURVE SMOOTH"
);
}
);
width = 447;
},
{
anchors = (
{
name = Bottom;
position = "{274, 0}";
},
{
name = Ogonek;
position = "{457, 0}";
},
{
name = Top;
position = "{300, 532}";
}
);
background = {
paths = (
{
closed = 1;
nodes = (
"402 297 LINE",
"282 297 LINE SMOOTH",
"138 297 OFFCURVE",
"53 236 OFFCURVE",
"53 132 CURVE SMOOTH",
"53 45 OFFCURVE",
"121 -13 OFFCURVE",
"223 -13 CURVE SMOOTH",
"307 -13 OFFCURVE",
"374 25 OFFCURVE",
"402 88 CURVE",
"404 88 LINE",
"412 0 LINE",
"450 0 LINE",
"450 364 LINE SMOOTH",
"450 470 OFFCURVE",
"386 532 OFFCURVE",
"277 532 CURVE SMOOTH",
"156 532 OFFCURVE",
"84 476 OFFCURVE",
"84 382 CURVE",
"132 382 LINE",
"132 450 OFFCURVE",
"185 490 OFFCURVE",
"275 490 CURVE SMOOTH",
"355 490 OFFCURVE",
"402 446 OFFCURVE",
"402 372 CURVE SMOOTH"
);
},
{
closed = 1;
nodes = (
"105 214 OFFCURVE",
"167 257 OFFCURVE",
"287 257 CURVE SMOOTH",
"401 257 LINE",
"401 212 LINE SMOOTH",
"401 96 OFFCURVE",
"335 28 OFFCURVE",
"223 28 CURVE SMOOTH",
"152 28 OFFCURVE",
"105 69 OFFCURVE",
"105 131 CURVE SMOOTH"
);
},
{
closed = 1;
nodes = (
"382 90 LINE",
"382 45 OFFCURVE",
"395 25 QCURVE SMOOTH",
"411 0 OFFCURVE",
"456 0 QCURVE SMOOTH",
"478 0 OFFCURVE",
"497 4 QCURVE",
"497 57 LINE",
"487 53 OFFCURVE",
"477 53 QCURVE SMOOTH",
"440 53 OFFCURVE",
"440 91 QCURVE"
);
}
);
};
layerId = m002;
paths = (
{
closed = 1;
nodes = (
"267 -13 OFFCURVE",
"314 10 OFFCURVE",
"344 40 CURVE",
"347 40 LINE",
"324 0 LINE",
"529 0 LINE",
"553 352 LINE SMOOTH",
"561 464 OFFCURVE",
"465 532 OFFCURVE",
"294 532 CURVE SMOOTH",
"135 532 OFFCURVE",
"37 462 OFFCURVE",
"28 339 CURVE",
"226 335 LINE",
"229 371 OFFCURVE",
"259 395 OFFCURVE",
"305 395 CURVE SMOOTH",
"337 395 OFFCURVE",
"356 385 OFFCURVE",
"356 368 CURVE SMOOTH",
"356 329 OFFCURVE",
"306 316 OFFCURVE",
"218 305 CURVE SMOOTH",
"86 284 OFFCURVE",
"2 226 OFFCURVE",
"2 134 CURVE SMOOTH",
"2 41 OFFCURVE",
"78 -13 OFFCURVE",
"207 -13 CURVE SMOOTH"
);
},
{
closed = 1;
nodes = (
"201 178 OFFCURVE",
"218 196 OFFCURVE",
"259 205 CURVE SMOOTH",
"305 216 OFFCURVE",
"328 223 OFFCURVE",
"349 239 CURVE",
"345 211 LINE",
"342 158 OFFCURVE",
"304 125 OFFCURVE",
"247 125 CURVE SMOOTH",
"219 125 OFFCURVE",
"201 137 OFFCURVE",
"201 154 CURVE SMOOTH"
);
}
);
width = 567;
}
);
leftKerningGroup = a;
leftMetricsKey = o;
rightKerningGroup = a;
rightMetricsKey = n;
unicode = 0061;
},
{
color = 10;
glyphname = astroke;
lastChange = "2023-08-31 19:05:15 +0000";
layers = (
{
layerId = "FD4D3FDD-DE85-408F-A52A-FF600B1C6101";
paths = (
{
closed = 1;
nodes = (
"240 -13 OFFCURVE",
"309 22 OFFCURVE",
"344 77 CURVE",
"346 78 LINE",
"326 0 LINE",
"389 0 LINE",
"415 373 LINE SMOOTH",
"419 433 OFFCURVE",
"398 478 OFFCURVE",
"356 505 CURVE",
"379 558 LINE",
"327 558 LINE",
"312 524 LINE",
"293 529 OFFCURVE",
"272 532 OFFCURVE",
"248 532 CURVE SMOOTH",
"130 532 OFFCURVE",
"58 477 OFFCURVE",
"51 383 CURVE",
"99 381 LINE",
"104 449 OFFCURVE",
"159 490 OFFCURVE",
"247 490 CURVE SMOOTH",
"265 490 OFFCURVE",
"281 488 OFFCURVE",
"295 484 CURVE",
"207 282 LINE",
"88 251 OFFCURVE",
"21 205 OFFCURVE",
"21 121 CURVE SMOOTH",
"21 69 OFFCURVE",
"45 29 OFFCURVE",
"87 6 CURVE",
"63 -50 LINE",
"114 -50 LINE",
"132 -9 LINE",
"144 -12 OFFCURVE",
"158 -13 OFFCURVE",
"172 -13 CURVE SMOOTH"
);
},
{
closed = 1;
nodes = (
"72 179 OFFCURVE",
"114 209 OFFCURVE",
"185 231 CURVE",
"105 47 LINE",
"80 65 OFFCURVE",
"66 94 OFFCURVE",
"69 130 CURVE SMOOTH"
);
},
{
closed = 1;
nodes = (
"243 246 LINE",
"298 260 OFFCURVE",
"335 275 OFFCURVE",
"361 302 CURVE",
"355 213 LINE SMOOTH",
"347 103 OFFCURVE",
"274 29 OFFCURVE",
"172 29 CURVE SMOOTH",
"164 29 OFFCURVE",
"156 30 OFFCURVE",
"149 31 CURVE"
);
},
{
closed = 1;
nodes = (
"338 464 LINE",
"358 447 OFFCURVE",
"368 423 OFFCURVE",
"368 393 CURVE SMOOTH",
"368 343 OFFCURVE",
"329 314 OFFCURVE",
"265 296 CURVE"
);
}
);
width = 447;
},
{
layerId = m002;
paths = (
{
closed = 1;
nodes = (
"267 -13 OFFCURVE",
"317 5 OFFCURVE",
"343 38 CURVE",
"345 40 LINE",
"322 0 LINE",
"529 0 LINE",
"553 352 LINE SMOOTH",
"559 436 OFFCURVE",
"506 495 OFFCURVE",
"410 519 CURVE",
"429 558 LINE",
"382 558 LINE",
"367 528 LINE",
"346 531 OFFCURVE",
"322 532 OFFCURVE",
"294 532 CURVE SMOOTH",
"135 532 OFFCURVE",
"37 462 OFFCURVE",
"28 339 CURVE",
"226 335 LINE",
"229 371 OFFCURVE",
"259 395 OFFCURVE",
"305 395 CURVE SMOOTH",
"307 395 OFFCURVE",
"311 395 OFFCURVE",
"314 395 CURVE",
"273 313 LINE",
"148 288 OFFCURVE",
"10 269 OFFCURVE",
"2 146 CURVE SMOOTH",
"-4 63 OFFCURVE",
"48 9 OFFCURVE",
"139 -8 CURVE",
"117 -50 LINE",
"165 -50 LINE",
"184 -12 LINE",
"189 -13 OFFCURVE",
"197 -13 OFFCURVE",
"207 -13 CURVE SMOOTH"
);
},
{
closed = 1;
nodes = (
"202 173 OFFCURVE",
"210 185 OFFCURVE",
"226 194 CURVE",
"202 145 LINE",
"200 149 OFFCURVE",
"200 154 OFFCURVE",
"201 157 CURVE SMOOTH"
);
},
{
closed = 1;
nodes = (
"280 210 LINE",
"313 219 OFFCURVE",
"331 226 OFFCURVE",
"349 239 CURVE",
"345 211 LINE SMOOTH",
"342 158 OFFCURVE",
"304 125 OFFCURVE",
"247 125 CURVE SMOOTH",
"245 125 OFFCURVE",
"242 124 OFFCURVE",
"238 125 CURVE"
);
},
{
closed = 1;
nodes = (
"352 380 LINE",
"356 375 OFFCURVE",
"356 369 OFFCURVE",
"356 365 CURVE SMOOTH",
"355 347 OFFCURVE",
"343 336 OFFCURVE",
"327 328 CURVE"
);
}
);
width = 567;
}
);
leftKerningGroup = a;
leftMetricsKey = a;
rightKerningGroup = a;
rightMetricsKey = a;
unicode = 2C65;
},
{
color = 10;
glyphname = ae;
lastChange = "2023-08-31 02:14:31 +0000";
layers = (
{
anchors = (
{
name = Top;
position = "{414, 532}";
}
);
layerId = "FD4D3FDD-DE85-408F-A52A-FF600B1C6101";
paths = (
{
closed = 1;
nodes = (
"240 -13 OFFCURVE",
"309 22 OFFCURVE",
"344 77 CURVE",
"346 78 LINE",
"326 0 LINE",
"389 0 LINE",
"396 106 LINE",
"429 32 OFFCURVE",
"495 -13 OFFCURVE",
"582 -13 CURVE SMOOTH",
"686 -13 OFFCURVE",
"774 55 OFFCURVE",
"800 158 CURVE",
"752 160 LINE",
"730 82 OFFCURVE",
"663 29 OFFCURVE",
"583 29 CURVE SMOOTH",
"460 29 OFFCURVE",
"410 147 OFFCURVE",
"422 254 CURVE",
"811 255 LINE",
"814 294 LINE SMOOTH",
"825 436 OFFCURVE",
"742 532 OFFCURVE",
"611 532 CURVE SMOOTH",
"526 532 OFFCURVE",
"456 485 OFFCURVE",
"415 407 CURVE",
"406 485 OFFCURVE",
"346 532 OFFCURVE",
"248 532 CURVE SMOOTH",
"130 532 OFFCURVE",
"58 477 OFFCURVE",
"51 383 CURVE",
"99 381 LINE",
"104 449 OFFCURVE",
"159 490 OFFCURVE",
"247 490 CURVE SMOOTH",
"324 490 OFFCURVE",
"368 454 OFFCURVE",
"368 392 CURVE SMOOTH",
"368 331 OFFCURVE",
"318 304 OFFCURVE",
"238 289 CURVE SMOOTH",
"101 264 OFFCURVE",
"21 211 OFFCURVE",
"21 121 CURVE SMOOTH",
"21 41 OFFCURVE",
"79 -13 OFFCURVE",
"172 -13 CURVE SMOOTH"
);
},
{
closed = 1;
nodes = (
"73 189 OFFCURVE",
"135 233 OFFCURVE",
"234 247 CURVE SMOOTH",
"294 255 OFFCURVE",
"341 270 OFFCURVE",
"361 300 CURVE",
"355 213 LINE SMOOTH",
"347 103 OFFCURVE",
"274 29 OFFCURVE",
"172 29 CURVE SMOOTH",
"106 29 OFFCURVE",
"64 69 OFFCURVE",
"69 130 CURVE SMOOTH"
);
},
{
closed = 1;
nodes = (
"448 413 OFFCURVE",
"517 490 OFFCURVE",
"611 490 CURVE SMOOTH",
"725 490 OFFCURVE",
"769 405 OFFCURVE",
"766 296 CURVE",
"427 294 LINE"
);
}
);
width = 842;
},
{
anchors = (
{
name = Top;
position = "{530, 532}";
}
);
layerId = m002;
paths = (
{
closed = 1;
nodes = (
"267 -13 OFFCURVE",
"317 5 OFFCURVE",
"343 38 CURVE SMOOTH",
"345 40 LINE",
"322 0 LINE",
"529 0 LINE",
"533 63 LINE",
"579 14 OFFCURVE",
"650 -13 OFFCURVE",
"742 -13 CURVE SMOOTH",
"894 -13 OFFCURVE",
"1003 55 OFFCURVE",
"1035 173 CURVE",
"836 177 LINE",
"826 145 OFFCURVE",
"793 124 OFFCURVE",
"747 124 CURVE SMOOTH",
"704 124 OFFCURVE",
"678 155 OFFCURVE",
"672 212 CURVE",
"1033 214 LINE",
"1035 273 LINE SMOOTH",
"1035 435 OFFCURVE",
"942 532 OFFCURVE",
"780 532 CURVE SMOOTH",
"673 532 OFFCURVE",
"589 497 OFFCURVE",
"537 434 CURVE",
"502 496 OFFCURVE",
"418 532 OFFCURVE",
"294 532 CURVE SMOOTH",
"135 532 OFFCURVE",
"37 462 OFFCURVE",
"28 339 CURVE",
"226 335 LINE",
"229 371 OFFCURVE",
"259 395 OFFCURVE",
"305 395 CURVE SMOOTH",
"337 395 OFFCURVE",
"356 385 OFFCURVE",
"356 368 CURVE SMOOTH",
"356 329 OFFCURVE",
"306 316 OFFCURVE",
"218 305 CURVE SMOOTH",
"86 284 OFFCURVE",
"2 226 OFFCURVE",
"2 134 CURVE SMOOTH",
"2 41 OFFCURVE",
"78 -13 OFFCURVE",
"207 -13 CURVE SMOOTH"
);
},
{
closed = 1;
nodes = (
"201 178 OFFCURVE",
"218 196 OFFCURVE",
"259 205 CURVE SMOOTH",
"305 216 OFFCURVE",
"328 223 OFFCURVE",
"349 239 CURVE",
"345 211 LINE SMOOTH",
"337 158 OFFCURVE",
"304 125 OFFCURVE",
"247 125 CURVE SMOOTH",
"219 125 OFFCURVE",
"201 137 OFFCURVE",
"201 154 CURVE SMOOTH"
);
},
{
closed = 1;
nodes = (
"702 367 OFFCURVE",
"735 395 OFFCURVE",
"777 395 CURVE SMOOTH",
"814 395 OFFCURVE",
"835 371 OFFCURVE",
"840 326 CURVE",
"685 322 LINE"
);
}
);
width = 1051;
}
);
leftKerningGroup = a;
leftMetricsKey = a;
rightKerningGroup = o;
rightMetricsKey = e;
unicode = 00E6;
},
{
glyphname = b;
lastChange = "2023-09-05 23:34:17 +0000";
layers = (
{
anchors = (
{
name = Top;
position = "{287, 532}";
}
);
layerId = "FD4D3FDD-DE85-408F-A52A-FF600B1C6101";
paths = (
{
closed = 1;
nodes = (
"388 -13 OFFCURVE",
"479 102 OFFCURVE",
"479 296 CURVE SMOOTH",
"479 444 OFFCURVE",
"407 532 OFFCURVE",
"286 532 CURVE SMOOTH",
"201 532 OFFCURVE",
"131 492 OFFCURVE",
"96 427 CURVE",
"94 429 LINE",
"106 520 LINE",
"121 736 LINE",
"73 736 LINE",
"22 0 LINE",
"85 0 LINE",
"75 78 LINE",
"77 79 LINE",
"100 21 OFFCURVE",
"159 -13 OFFCURVE",
"235 -13 CURVE SMOOTH"
);
},
{
closed = 1;
nodes = (
"87 392 OFFCURVE",
"158 490 OFFCURVE",
"279 490 CURVE SMOOTH",
"375 490 OFFCURVE",
"431 417 OFFCURVE",
"431 294 CURVE SMOOTH",
"431 127 OFFCURVE",
"358 29 OFFCURVE",
"235 29 CURVE SMOOTH",
"142 29 OFFCURVE",
"87 103 OFFCURVE",
"87 227 CURVE SMOOTH"
);
}
);
width = 508;
},
{
anchors = (
{
name = Top;
position = "{355, 532}";
}
);
layerId = m002;
paths = (
{
closed = 1;
nodes = (
"493 -13 OFFCURVE",
"599 99 OFFCURVE",
"599 285 CURVE SMOOTH",
"599 441 OFFCURVE",
"507 532 OFFCURVE",
"347 532 CURVE SMOOTH",
"305 532 OFFCURVE",
"262 519 OFFCURVE",
"233 498 CURVE",
"230 498 LINE",
"238 549 LINE",
"251 736 LINE",
"53 736 LINE",
"2 0 LINE",
"207 0 LINE",
"189 37 LINE",
"191 37 LINE",
"215 7 OFFCURVE",
"267 -13 OFFCURVE",
"322 -13 CURVE SMOOTH"
);
},
{
closed = 1;
nodes = (
"217 337 OFFCURVE",
"257 400 OFFCURVE",
"318 400 CURVE SMOOTH",
"365 400 OFFCURVE",
"391 359 OFFCURVE",
"391 289 CURVE SMOOTH",
"391 184 OFFCURVE",
"351 121 OFFCURVE",
"290 121 CURVE SMOOTH",
"243 121 OFFCURVE",
"217 162 OFFCURVE",
"217 233 CURVE SMOOTH"
);
}
);
width = 608;
}
);
leftKerningGroup = n;
leftMetricsKey = n;
rightKerningGroup = o;
rightMetricsKey = o;
unicode = 0062;
},
{
glyphname = c;
lastChange = "2023-08-31 01:28:21 +0000";
layers = (
{
anchors = (
{
name = Bottom;
position = "{228, 0}";
},
{
name = Top;
position = "{265, 532}";
}
);
layerId = "FD4D3FDD-DE85-408F-A52A-FF600B1C6101";
paths = (
{
closed = 1;
nodes = (
"378 156 LINE",
"363 80 OFFCURVE",
"303 29 OFFCURVE",
"228 29 CURVE SMOOTH",
"137 29 OFFCURVE",
"77 109 OFFCURVE",
"77 229 CURVE SMOOTH",
"77 386 OFFCURVE",
"151 490 OFFCURVE",
"263 490 CURVE SMOOTH",
"341 490 OFFCURVE",
"396 439 OFFCURVE",
"401 362 CURVE",
"449 360 LINE",
"445 463 OFFCURVE",
"371 532 OFFCURVE",
"264 532 CURVE SMOOTH",
"123 532 OFFCURVE",
"29 410 OFFCURVE",
"29 228 CURVE SMOOTH",
"29 83 OFFCURVE",
"109 -13 OFFCURVE",
"228 -13 CURVE SMOOTH",
"330 -13 OFFCURVE",
"409 54 OFFCURVE",
"426 154 CURVE"
);
}
);
width = 472;
},
{
anchors = (
{
name = Bottom;
position = "{268, 0}";
},
{
name = Top;
position = "{310, 532}";
}
);
layerId = m002;
paths = (
{
closed = 1;
nodes = (
"342 212 LINE",
"335 172 OFFCURVE",
"311 149 OFFCURVE",
"279 149 CURVE SMOOTH",
"236 149 OFFCURVE",
"213 188 OFFCURVE",
"217 254 CURVE SMOOTH",
"222 327 OFFCURVE",
"254 370 OFFCURVE",
"303 370 CURVE SMOOTH",
"335 370 OFFCURVE",
"355 347 OFFCURVE",
"357 308 CURVE",
"565 304 LINE",
"559 447 OFFCURVE",
"462 532 OFFCURVE",
"305 532 CURVE SMOOTH",
"132 532 OFFCURVE",
"22 432 OFFCURVE",
"10 264 CURVE SMOOTH",
"-2 90 OFFCURVE",
"95 -13 OFFCURVE",
"271 -13 CURVE SMOOTH",
"423 -13 OFFCURVE",
"526 69 OFFCURVE",
"550 208 CURVE"
);
}
);
width = 572;
}
);
leftKerningGroup = o;
leftMetricsKey = o;
rightKerningGroup = c;
rightMetricsKey = o;
unicode = 0063;
},
{
color = 10;
glyphname = "chi-latin";
lastChange = "2023-08-31 16:48:09 +0000";
layers = (
{
layerId = "FD4D3FDD-DE85-408F-A52A-FF600B1C6101";
paths = (
{
closed = 1;
nodes = (
"344 152 LINE",
"569 520 LINE",
"514 520 LINE",
"322 206 LINE",
"246 393 LINE SMOOTH",
"208 486 OFFCURVE",
"161 532 OFFCURVE",
"86 532 CURVE SMOOTH",
"70 532 OFFCURVE",
"52 529 OFFCURVE",
"38 524 CURVE",
"35 476 LINE",
"47 482 OFFCURVE",
"69 485 OFFCURVE",
"89 485 CURVE SMOOTH",
"136 485 OFFCURVE",
"168 452 OFFCURVE",
"191 395 CURVE SMOOTH",
"289 153 LINE",
"63 -217 LINE",
"119 -217 LINE",
"312 99 LINE",
"390 -94 LINE SMOOTH",
"428 -186 OFFCURVE",
"470 -233 OFFCURVE",
"546 -233 CURVE SMOOTH",
"561 -233 OFFCURVE",
"579 -230 OFFCURVE",
"593 -225 CURVE",
"596 -177 LINE",
"584 -183 OFFCURVE",
"562 -186 OFFCURVE",
"542 -186 CURVE SMOOTH",
"495 -186 OFFCURVE",
"468 -153 OFFCURVE",
"445 -96 CURVE SMOOTH"
);
}
);
width = 647;
},
{
layerId = m002;
paths = (
{
closed = 1;
nodes = (
"462 153 LINE",
"717 520 LINE",
"489 520 LINE",
"352 322 LINE",
"326 361 LINE SMOOTH",
"260 461 OFFCURVE",
"214 532 OFFCURVE",
"101 532 CURVE SMOOTH",
"83 532 OFFCURVE",
"48 528 OFFCURVE",
"28 522 CURVE",
"20 360 LINE",
"33 363 OFFCURVE",
"40 365 OFFCURVE",
"60 365 CURVE SMOOTH",
"75 365 OFFCURVE",
"97 358 OFFCURVE",
"130 307 CURVE SMOOTH",
"233 150 LINE",
"-21 -217 LINE",
"206 -217 LINE",
"344 -19 LINE",
"372 -62 LINE SMOOTH",
"438 -163 OFFCURVE",
"485 -233 OFFCURVE",
"597 -233 CURVE SMOOTH",
"616 -233 OFFCURVE",
"650 -229 OFFCURVE",
"670 -223 CURVE",
"677 -61 LINE",
"664 -64 OFFCURVE",
"660 -66 OFFCURVE",
"640 -66 CURVE SMOOTH",
"625 -66 OFFCURVE",
"601 -59 OFFCURVE",
"568 -8 CURVE SMOOTH"
);
}
);
width = 714;
}
);
leftKerningGroup = x;
leftMetricsKey = x;
rightKerningGroup = x;
rightMetricsKey = x;
unicode = AB53;
},
{
color = 10;
glyphname = cstroke;
lastChange = "2023-08-31 19:05:34 +0000";
layers = (
{
layerId = "FD4D3FDD-DE85-408F-A52A-FF600B1C6101";
paths = (
{
closed = 1;
nodes = (
"378 156 LINE",
"363 80 OFFCURVE",
"303 29 OFFCURVE",
"228 29 CURVE SMOOTH",
"208 29 OFFCURVE",
"190 33 OFFCURVE",
"173 40 CURVE",
"356 458 LINE",
"382 436 OFFCURVE",
"398 403 OFFCURVE",
"401 362 CURVE",
"449 360 LINE",
"447 422 OFFCURVE",
"419 471 OFFCURVE",
"374 501 CURVE",
"399 558 LINE",
"347 558 LINE",
"331 522 LINE",
"311 528 OFFCURVE",
"288 532 OFFCURVE",
"264 532 CURVE SMOOTH",
"123 532 OFFCURVE",
"29 410 OFFCURVE",
"29 228 CURVE SMOOTH",
"29 136 OFFCURVE",
"61 64 OFFCURVE",
"115 23 CURVE",
"83 -50 LINE",
"134 -50 LINE",
"156 0 LINE",
"178 -8 OFFCURVE",
"202 -13 OFFCURVE",
"228 -13 CURVE SMOOTH",
"330 -13 OFFCURVE",
"409 54 OFFCURVE",
"426 154 CURVE"
);
},
{
closed = 1;
nodes = (
"77 386 OFFCURVE",
"151 490 OFFCURVE",
"263 490 CURVE SMOOTH",
"281 490 OFFCURVE",
"298 487 OFFCURVE",
"314 482 CURVE",
"134 67 LINE",
"98 101 OFFCURVE",
"77 158 OFFCURVE",
"77 229 CURVE SMOOTH"
);
}
);
width = 472;
},
{
layerId = m002;
paths = (
{
closed = 1;
nodes = (
"342 212 LINE",
"335 174 OFFCURVE",
"311 149 OFFCURVE",
"279 149 CURVE SMOOTH",
"274 149 OFFCURVE",
"268 149 OFFCURVE",
"262 151 CURVE",
"349 345 LINE",
"354 335 OFFCURVE",
"357 323 OFFCURVE",
"357 308 CURVE",
"565 304 LINE",
"560 408 OFFCURVE",
"507 481 OFFCURVE",
"419 513 CURVE",
"441 558 LINE",
"389 558 LINE",
"373 526 LINE",
"353 530 OFFCURVE",
"331 532 OFFCURVE",
"305 532 CURVE SMOOTH",
"122 532 OFFCURVE",
"9 422 OFFCURVE",
"9 236 CURVE SMOOTH",
"9 121 OFFCURVE",
"61 41 OFFCURVE",
"152 7 CURVE",
"124 -50 LINE",
"177 -50 LINE",
"198 -5 LINE",
"219 -10 OFFCURVE",
"243 -13 OFFCURVE",
"271 -13 CURVE SMOOTH",
"422 -13 OFFCURVE",
"526 68 OFFCURVE",
"550 208 CURVE"
);
},
{
closed = 1;
nodes = (
"216 321 OFFCURVE",
"252 370 OFFCURVE",
"303 370 CURVE SMOOTH",
"304 370 OFFCURVE",
"307 371 OFFCURVE",
"310 370 CURVE",
"226 183 LINE",
"220 198 OFFCURVE",
"216 217 OFFCURVE",
"216 238 CURVE SMOOTH"
);
}
);
width = 572;
}
);
leftKerningGroup = o;
leftMetricsKey = c;
rightKerningGroup = c;
rightMetricsKey = c;
unicode = 023C;
},
{
glyphname = d;
lastChange = "2023-09-05 23:34:05 +0000";
layers = (
{
anchors = (
{
name = Bottom;
position = "{238, 0}";
},
{
name = Top;
position = "{269, 532}";
},
{
name = Top_EC;
position = "{544, 532}";
}
);
layerId = "FD4D3FDD-DE85-408F-A52A-FF600B1C6101";
paths = (
{
closed = 1;
nodes = (
"312 -13 OFFCURVE",
"374 20 OFFCURVE",
"405 77 CURVE",
"407 78 LINE",
"387 0 LINE",
"450 0 LINE",
"501 736 LINE",
"453 736 LINE",
"438 520 LINE",
"437 427 LINE",
"434 426 LINE",
"409 493 OFFCURVE",
"343 532 OFFCURVE",
"258 532 CURVE SMOOTH",
"114 532 OFFCURVE",
"29 419 OFFCURVE",
"29 228 CURVE SMOOTH",
"29 77 OFFCURVE",
"106 -13 OFFCURVE",
"237 -13 CURVE SMOOTH"
);
},
{
closed = 1;
nodes = (
"77 393 OFFCURVE",
"146 490 OFFCURVE",
"263 490 CURVE SMOOTH",
"362 490 OFFCURVE",
"421 417 OFFCURVE",
"421 293 CURVE SMOOTH",
"421 127 OFFCURVE",
"353 29 OFFCURVE",
"237 29 CURVE SMOOTH",
"136 29 OFFCURVE",
"77 103 OFFCURVE",
"77 229 CURVE SMOOTH"
);
}
);
width = 508;
},
{
anchors = (
{
name = Bottom;
position = "{339, 0}";
},
{
name = Top;
position = "{351, 532}";
},
{
name = Top_EC;
position = "{699, 500}";
}
);
layerId = m002;
paths = (
{
closed = 1;
nodes = (
"312 -13 OFFCURVE",
"362 5 OFFCURVE",
"385 35 CURVE",
"388 35 LINE",
"365 0 LINE",
"570 0 LINE",
"621 736 LINE",
"423 736 LINE",
"410 549 LINE",
"412 497 LINE",
"409 497 LINE",
"381 520 OFFCURVE",
"336 532 OFFCURVE",
"289 532 CURVE SMOOTH",
"113 532 OFFCURVE",
"9 422 OFFCURVE",
"9 236 CURVE SMOOTH",
"9 79 OFFCURVE",
"101 -13 OFFCURVE",
"256 -13 CURVE SMOOTH"
);
},
{
closed = 1;
nodes = (
"217 338 OFFCURVE",
"255 400 OFFCURVE",
"318 400 CURVE SMOOTH",
"364 400 OFFCURVE",
"391 359 OFFCURVE",
"391 289 CURVE SMOOTH",
"391 183 OFFCURVE",
"353 121 OFFCURVE",
"290 121 CURVE SMOOTH",
"244 121 OFFCURVE",
"217 163 OFFCURVE",
"217 233 CURVE SMOOTH"
);
}
);
width = 608;
}
);
leftKerningGroup = o;
leftMetricsKey = o;
rightKerningGroup = n;
rightMetricsKey = n;
unicode = 0064;
},
{
color = 10;
glyphname = eth;
lastChange = "2023-08-31 02:16:25 +0000";
layers = (
{
layerId = "FD4D3FDD-DE85-408F-A52A-FF600B1C6101";
paths = (
{
closed = 1;
nodes = (
"359 -12 OFFCURVE",
"457 109 OFFCURVE",
"470 290 CURVE SMOOTH",
"479 429 OFFCURVE",
"419 560 OFFCURVE",
"312 649 CURVE",
"383 704 LINE",
"361 731 LINE",
"284 670 LINE",
"249 695 OFFCURVE",
"210 715 OFFCURVE",
"168 731 CURVE",
"139 695 LINE",
"178 682 OFFCURVE",
"215 663 OFFCURVE",
"248 641 CURVE",
"177 585 LINE",
"197 559 LINE",
"276 621 LINE",
"328 581 OFFCURVE",
"366 532 OFFCURVE",
"383 483 CURVE",
"380 481 LINE",
"355 512 OFFCURVE",
"308 532 OFFCURVE",
"262 532 CURVE SMOOTH",
"122 532 OFFCURVE",
"29 410 OFFCURVE",
"29 227 CURVE SMOOTH",
"29 84 OFFCURVE",
"108 -12 OFFCURVE",
"226 -12 CURVE SMOOTH"
);
},
{
closed = 1;
nodes = (
"77 386 OFFCURVE",
"151 490 OFFCURVE",
"261 490 CURVE SMOOTH",
"352 490 OFFCURVE",
"413 410 OFFCURVE",
"413 290 CURVE SMOOTH",
"413 134 OFFCURVE",
"339 30 OFFCURVE",
"227 30 CURVE SMOOTH",
"137 30 OFFCURVE",
"77 110 OFFCURVE",
"77 229 CURVE SMOOTH"
);
}
);
width = 498;
},
{
layerId = m002;
paths = (
{
closed = 1;
nodes = (
"430 -12 OFFCURVE",
"551 120 OFFCURVE",
"551 313 CURVE SMOOTH",
"551 452 OFFCURVE",
"480 579 OFFCURVE",
"363 667 CURVE",
"419 710 LINE",
"363 777 LINE",
"285 715 LINE",
"260 729 OFFCURVE",
"232 741 OFFCURVE",
"203 751 CURVE",
"118 648 LINE",
"138 641 OFFCURVE",
"156 634 OFFCURVE",
"173 626 CURVE",
"119 583 LINE",
"173 517 LINE",
"254 580 LINE",
"276 565 OFFCURVE",
"297 550 OFFCURVE",
"315 533 CURVE",
"309 530 LINE",
"304 531 OFFCURVE",
"298 532 OFFCURVE",
"288 532 CURVE SMOOTH",
"126 532 OFFCURVE",
"9 413 OFFCURVE",
"9 239 CURVE SMOOTH",
"9 87 OFFCURVE",
"107 -12 OFFCURVE",
"259 -12 CURVE SMOOTH"
);
},
{
closed = 1;
nodes = (
"177 320 OFFCURVE",
"223 370 OFFCURVE",
"286 370 CURVE SMOOTH",
"339 370 OFFCURVE",
"372 333 OFFCURVE",
"372 277 CURVE SMOOTH",
"372 201 OFFCURVE",
"327 150 OFFCURVE",
"262 150 CURVE SMOOTH",
"209 150 OFFCURVE",
"177 188 OFFCURVE",
"177 245 CURVE SMOOTH"
);
}
);
width = 558;
}
);
leftKerningGroup = o;
leftMetricsKey = d;
rightKerningGroup = o;
rightMetricsKey = o;
unicode = 00F0;
},
{
color = 10;
glyphname = dcroat;
lastChange = "2023-09-05 23:43:59 +0000";
layers = (
{
layerId = "FD4D3FDD-DE85-408F-A52A-FF600B1C6101";
paths = (
{
closed = 1;
nodes = (
"445 619 LINE",
"438 520 LINE",
"437 427 LINE",
"434 426 LINE",
"409 493 OFFCURVE",
"343 532 OFFCURVE",
"258 532 CURVE SMOOTH",
"114 532 OFFCURVE",
"29 419 OFFCURVE",
"29 228 CURVE SMOOTH",
"29 77 OFFCURVE",
"106 -13 OFFCURVE",
"237 -13 CURVE SMOOTH",
"312 -13 OFFCURVE",
"374 20 OFFCURVE",
"405 77 CURVE",
"407 78 LINE",
"387 0 LINE",
"450 0 LINE",
"493 619 LINE",
"586 619 LINE",
"589 664 LINE",
"496 659 LINE",
"501 736 LINE",
"453 736 LINE",
"448 661 LINE",
"314 661 LINE",
"311 619 LINE"
);
},
{
closed = 1;
nodes = (
"77 393 OFFCURVE",
"146 490 OFFCURVE",
"263 490 CURVE SMOOTH",
"362 490 OFFCURVE",
"421 417 OFFCURVE",
"421 293 CURVE SMOOTH",
"421 127 OFFCURVE",
"353 29 OFFCURVE",
"237 29 CURVE SMOOTH",
"136 29 OFFCURVE",
"77 103 OFFCURVE",
"77 229 CURVE SMOOTH"
);
}
);
width = 601;
},
{
layerId = m002;
paths = (
{
closed = 1;
nodes = (
"413 587 LINE",
"410 549 LINE",
"412 497 LINE",
"409 497 LINE",
"381 520 OFFCURVE",
"336 532 OFFCURVE",
"289 532 CURVE SMOOTH",
"113 532 OFFCURVE",
"9 422 OFFCURVE",
"9 236 CURVE SMOOTH",
"9 79 OFFCURVE",
"101 -13 OFFCURVE",
"256 -13 CURVE SMOOTH",
"312 -13 OFFCURVE",
"362 5 OFFCURVE",
"385 35 CURVE",
"388 35 LINE",
"365 0 LINE",
"570 0 LINE",
"611 587 LINE",
"684 587 LINE",
"691 690 LINE",
"618 685 LINE",
"621 736 LINE",
"423 736 LINE",
"420 687 LINE",
"346 687 LINE",
"339 587 LINE"
);
},
{
closed = 1;
nodes = (
"217 338 OFFCURVE",
"255 400 OFFCURVE",
"318 400 CURVE SMOOTH",
"364 400 OFFCURVE",
"391 359 OFFCURVE",
"391 289 CURVE SMOOTH",
"391 183 OFFCURVE",
"353 121 OFFCURVE",
"290 121 CURVE SMOOTH",
"244 121 OFFCURVE",
"217 163 OFFCURVE",
"217 233 CURVE SMOOTH"
);
}
);
width = 681;
}
);
leftKerningGroup = o;
leftMetricsKey = o;
rightKerningGroup = dcroat;
rightMetricsKey = n;
unicode = 0111;
},
{
glyphname = e;
lastChange = "2023-09-01 23:40:21 +0000";
layers = (
{
anchors = (
{
name = Bottom;
position = "{242, 0}";
},
{
name = Top;
position = "{267, 532}";
}
);
layerId = "FD4D3FDD-DE85-408F-A52A-FF600B1C6101";
paths = (
{
closed = 1;
nodes = (
"407 160 LINE",
"384 78 OFFCURVE",
"321 29 OFFCURVE",
"238 29 CURVE SMOOTH",
"108 29 OFFCURVE",
"66 151 OFFCURVE",
"77 255 CURVE",
"467 256 LINE",
"469 287 OFFCURVE",
"470 313 OFFCURVE",
"470 324 CURVE SMOOTH",
"470 455 OFFCURVE",
"394 532 OFFCURVE",
"266 532 CURVE SMOOTH",
"117 532 OFFCURVE",
"29 420 OFFCURVE",
"29 230 CURVE SMOOTH",
"29 77 OFFCURVE",
"106 -13 OFFCURVE",
"237 -13 CURVE SMOOTH",
"346 -13 OFFCURVE",
"427 51 OFFCURVE",
"455 158 CURVE"
);
},
{
closed = 1;
nodes = (
"102 418 OFFCURVE",
"170 490 OFFCURVE",
"266 490 CURVE SMOOTH",
"378 490 OFFCURVE",
"436 419 OFFCURVE",
"422 299 CURVE",
"82 297 LINE"
);
}
);
width = 497;
},
{
anchors = (
{
name = Bottom;
position = "{320, 0}";
},
{
name = Top;
position = "{312, 532}";
}
);
layerId = m002;
paths = (
{
closed = 1;
nodes = (
"372 177 LINE",
"362 144 OFFCURVE",
"332 124 OFFCURVE",
"293 124 CURVE SMOOTH",
"254 124 OFFCURVE",
"228 157 OFFCURVE",
"222 212 CURVE",
"569 214 LINE",
"570 238 OFFCURVE",
"571 260 OFFCURVE",
"571 273 CURVE SMOOTH",
"571 436 OFFCURVE",
"476 532 OFFCURVE",
"316 532 CURVE SMOOTH",
"123 532 OFFCURVE",
"9 422 OFFCURVE",
"9 236 CURVE SMOOTH",
"9 79 OFFCURVE",
"109 -13 OFFCURVE",
"278 -13 CURVE SMOOTH",
"430 -13 OFFCURVE",
"539 56 OFFCURVE",
"571 173 CURVE"
);
},
{
closed = 1;
nodes = (
"249 368 OFFCURVE",
"278 395 OFFCURVE",
"313 395 CURVE SMOOTH",
"343 395 OFFCURVE",
"363 369 OFFCURVE",
"367 326 CURVE",
"235 322 LINE"
);
}
);
width = 587;
}
);
leftKerningGroup = o;
leftMetricsKey = o;
rightKerningGroup = o;
rightMetricsKey = o;
unicode = 0065;
},
{
color = 10;
glyphname = eopen;
lastChange = "2023-08-31 02:40:47 +0000";
layers = (
{
layerId = "FD4D3FDD-DE85-408F-A52A-FF600B1C6101";
paths = (
{
closed = 1;
nodes = (
"69 205 OFFCURVE",
"121 250 OFFCURVE",
"208 250 CURVE SMOOTH",
"242 250 LINE",
"245 292 LINE",
"209 292 LINE SMOOTH",
"143 292 OFFCURVE",
"104 324 OFFCURVE",
"104 379 CURVE SMOOTH",
"104 449 OFFCURVE",
"149 490 OFFCURVE",
"225 490 CURVE SMOOTH",
"299 490 OFFCURVE",
"341 452 OFFCURVE",
"337 387 CURVE",
"385 385 LINE",
"391 477 OFFCURVE",
"332 532 OFFCURVE",
"226 532 CURVE SMOOTH",
"119 532 OFFCURVE",
"56 474 OFFCURVE",
"56 377 CURVE SMOOTH",
"56 325 OFFCURVE",
"80 286 OFFCURVE",
"120 272 CURVE",
"119 270 LINE",
"57 258 OFFCURVE",
"21 204 OFFCURVE",
"21 126 CURVE SMOOTH",
"21 39 OFFCURVE",
"83 -13 OFFCURVE",
"188 -13 CURVE SMOOTH",
"298 -13 OFFCURVE",
"367 43 OFFCURVE",
"373 137 CURVE",
"325 139 LINE",
"321 70 OFFCURVE",
"270 29 OFFCURVE",
"188 29 CURVE SMOOTH",
"113 29 OFFCURVE",
"69 66 OFFCURVE",
"69 129 CURVE SMOOTH"
);
}
);
width = 412;
},
{
layerId = m002;
paths = (
{
closed = 1;
nodes = (
"212 205 OFFCURVE",
"229 220 OFFCURVE",
"259 220 CURVE SMOOTH",
"282 220 LINE",
"289 316 LINE",
"265 316 LINE SMOOTH",
"250 316 OFFCURVE",
"241 323 OFFCURVE",
"241 334 CURVE SMOOTH",
"241 360 OFFCURVE",
"256 375 OFFCURVE",
"282 375 CURVE SMOOTH",
"303 375 OFFCURVE",
"314 359 OFFCURVE",
"312 333 CURVE",
"520 329 LINE",
"528 457 OFFCURVE",
"440 532 OFFCURVE",
"284 532 CURVE SMOOTH",
"136 532 OFFCURVE",
"43 471 OFFCURVE",
"35 369 CURVE SMOOTH",
"32 323 OFFCURVE",
"47 287 OFFCURVE",
"79 273 CURVE",
"79 271 LINE",
"33 257 OFFCURVE",
"3 216 OFFCURVE",
"3 160 CURVE SMOOTH",
"3 51 OFFCURVE",
"94 -13 OFFCURVE",
"248 -13 CURVE SMOOTH",
"413 -13 OFFCURVE",
"516 64 OFFCURVE",
"525 194 CURVE",
"318 198 LINE",
"315 164 OFFCURVE",
"290 144 OFFCURVE",
"250 144 CURVE SMOOTH",
"226 144 OFFCURVE",
"212 157 OFFCURVE",
"212 179 CURVE SMOOTH"
);
}
);
width = 540;
}
);
leftKerningGroup = o;
leftMetricsKey = o;
rightKerningGroup = o;
rightMetricsKey = o;
unicode = 025B;
},
{
color = 10;
glyphname = schwa;
lastChange = "2023-08-31 02:36:08 +0000";
layers = (
{
layerId = "FD4D3FDD-DE85-408F-A52A-FF600B1C6101";
paths = (
{
closed = 1;
nodes = (
"90 357 LINE",
"112 439 OFFCURVE",
"174 488 OFFCURVE",
"258 488 CURVE SMOOTH",
"354 488 OFFCURVE",
"410 417 OFFCURVE",
"410 296 CURVE SMOOTH",
"410 278 OFFCURVE",
"410 276 OFFCURVE",
"409 263 CURVE",
"30 263 LINE",
"28 242 OFFCURVE",
"27 223 OFFCURVE",
"27 212 CURVE SMOOTH",
"27 71 OFFCURVE",
"97 -13 OFFCURVE",
"216 -13 CURVE SMOOTH",
"368 -13 OFFCURVE",
"458 102 OFFCURVE",
"458 297 CURVE SMOOTH",
"458 443 OFFCURVE",
"384 530 OFFCURVE",
"260 530 CURVE SMOOTH",
"150 530 OFFCURVE",
"69 466 OFFCURVE",
"42 359 CURVE"
);
},
{
closed = 1;
nodes = (
"404 224 LINE",
"385 101 OFFCURVE",
"315 29 OFFCURVE",
"215 29 CURVE SMOOTH",
"117 29 OFFCURVE",
"65 101 OFFCURVE",
"75 222 CURVE"
);
}
);
width = 487;
},
{
layerId = m002;
paths = (
{
closed = 1;
nodes = (
"215 342 LINE",
"225 374 OFFCURVE",
"259 395 OFFCURVE",
"305 395 CURVE SMOOTH",
"347 395 OFFCURVE",
"380 368 OFFCURVE",
"380 312 CURVE",
"380 311 OFFCURVE",
"380 309 OFFCURVE",
"380 307 CURVE",
"19 305 LINE",
"16 267 OFFCURVE",
"16 256 OFFCURVE",
"16 246 CURVE SMOOTH",
"16 84 OFFCURVE",
"109 -13 OFFCURVE",
"271 -13 CURVE SMOOTH",
"463 -13 OFFCURVE",
"578 98 OFFCURVE",
"578 285 CURVE SMOOTH",
"578 441 OFFCURVE",
"480 532 OFFCURVE",
"309 532 CURVE SMOOTH",
"158 532 OFFCURVE",
"49 464 OFFCURVE",
"16 346 CURVE"
);
},
{
closed = 1;
nodes = (
"367 197 LINE",
"350 152 OFFCURVE",
"317 124 OFFCURVE",
"275 124 CURVE SMOOTH",
"238 124 OFFCURVE",
"217 148 OFFCURVE",
"212 193 CURVE"
);
}
);
width = 587;
}
);
leftKerningGroup = o;
leftMetricsKey = e;
rightKerningGroup = o;
rightMetricsKey = e;
unicode = 0259;
},
{
color = 10;
glyphname = ezh;
lastChange = "2023-08-31 02:41:02 +0000";
layers = (
{
anchors = (
{
name = Top;
position = "{278, 520}";
}
);
layerId = "FD4D3FDD-DE85-408F-A52A-FF600B1C6101";
paths = (
{
closed = 1;
nodes = (
"67 478 LINE",
"418 478 LINE",
"235 275 LINE",
"235 233 LINE",
"269 233 LINE SMOOTH",
"362 233 OFFCURVE",
"424 169 OFFCURVE",
"424 72 CURVE SMOOTH",
"424 -50 OFFCURVE",
"348 -132 OFFCURVE",
"233 -132 CURVE SMOOTH",
"123 -132 OFFCURVE",
"55 -62 OFFCURVE",
"63 44 CURVE",
"15 46 LINE",
"6 -86 OFFCURVE",
"93 -174 OFFCURVE",
"233 -174 CURVE SMOOTH",
"376 -174 OFFCURVE",
"472 -76 OFFCURVE",
"472 72 CURVE SMOOTH",
"472 186 OFFCURVE",
"399 267 OFFCURVE",
"290 275 CURVE",
"474 478 LINE",
"477 520 LINE",
"70 520 LINE"
);
}
);
width = 516;
},
{
anchors = (
{
name = Top;
position = "{311, 520}";
}
);
layerId = m002;
paths = (
{
closed = 1;
nodes = (
"41 370 LINE",
"330 370 LINE",
"247 285 LINE",
"237 135 LINE",
"286 135 LINE SMOOTH",
"323 135 OFFCURVE",
"345 112 OFFCURVE",
"345 72 CURVE SMOOTH",
"345 19 OFFCURVE",
"317 -12 OFFCURVE",
"269 -12 CURVE SMOOTH",
"226 -12 OFFCURVE",
"202 16 OFFCURVE",
"205 63 CURVE",
"-3 67 LINE",
"-13 -84 OFFCURVE",
"87 -174 OFFCURVE",
"267 -174 CURVE SMOOTH",
"447 -174 OFFCURVE",
"553 -83 OFFCURVE",
"553 70 CURVE SMOOTH",
"553 157 OFFCURVE",
"507 228 OFFCURVE",
"429 260 CURVE",
"548 370 LINE",
"558 520 LINE",
"51 520 LINE"
);
}
);
width = 577;
}
);
leftKerningGroup = o;
leftMetricsKey = o;
rightKerningGroup = o;
rightMetricsKey = o;
unicode = 0292;
},
{
glyphname = f;
lastChange = "2023-08-31 21:50:14 +0000";
layers = (
{
layerId = "FD4D3FDD-DE85-408F-A52A-FF600B1C6101";
paths = (
{
closed = 1;
nodes = (
"151 518 LINE",
"58 523 LINE",
"55 478 LINE",
"148 478 LINE",
"115 0 LINE",
"163 0 LINE",
"196 478 LINE",
"320 478 LINE",
"323 520 LINE",
"199 520 LINE",
"203 574 LINE SMOOTH",
"208 653 OFFCURVE",
"246 695 OFFCURVE",
"311 695 CURVE SMOOTH",
"332 695 OFFCURVE",
"352 690 OFFCURVE",
"369 681 CURVE",
"371 723 LINE",
"353 731 OFFCURVE",
"331 736 OFFCURVE",
"309 736 CURVE SMOOTH",
"215 736 OFFCURVE",
"162 681 OFFCURVE",
"155 573 CURVE SMOOTH"
);
}
);
width = 350;
},
{
layerId = m002;
paths = (
{
closed = 1;
nodes = (
"111 518 LINE",
"38 523 LINE",
"28 370 LINE",
"101 370 LINE",
"75 0 LINE",
"273 0 LINE",
"299 370 LINE",
"403 370 LINE",
"413 520 LINE",
"309 520 LINE",
"310 530 LINE SMOOTH",
"312 560 OFFCURVE",
"334 577 OFFCURVE",
"372 577 CURVE SMOOTH",
"385 577 OFFCURVE",
"411 572 OFFCURVE",
"432 564 CURVE",
"439 722 LINE",
"422 730 OFFCURVE",
"393 736 OFFCURVE",
"364 736 CURVE SMOOTH",
"207 736 OFFCURVE",
"122 675 OFFCURVE",
"113 554 CURVE SMOOTH"
);
}
);
width = 421;
}
);
leftKerningGroup = f;
leftMetricsKey = n;
rightKerningGroup = f;
unicode = 0066;
},
{
glyphname = g;
lastChange = "2023-09-05 23:33:09 +0000";
layers = (
{
anchors = (
{
name = Top;
position = "{269, 531}";
}
);
layerId = "FD4D3FDD-DE85-408F-A52A-FF600B1C6101";
paths = (
{
closed = 1;
nodes = (
"477 520 LINE",
"414 520 LINE",
"424 442 LINE",
"421 441 LINE",
"392 498 OFFCURVE",
"335 532 OFFCURVE",
"269 532 CURVE SMOOTH",
"118 532 OFFCURVE",
"29 419 OFFCURVE",
"29 227 CURVE SMOOTH",
"29 76 OFFCURVE",
"107 -13 OFFCURVE",
"239 -13 CURVE SMOOTH",
"305 -13 OFFCURVE",
"366 26 OFFCURVE",
"402 92 CURVE",
"404 93 LINE",
"391 -21 LINE SMOOTH",
"379 -128 OFFCURVE",
"316 -191 OFFCURVE",
"222 -191 CURVE SMOOTH",
"139 -191 OFFCURVE",
"83 -143 OFFCURVE",
"72 -62 CURVE",
"25 -60 LINE",
"37 -169 OFFCURVE",
"110 -233 OFFCURVE",
"221 -233 CURVE SMOOTH",
"349 -233 OFFCURVE",
"430 -151 OFFCURVE",
"440 -12 CURVE SMOOTH"
);
},
{
closed = 1;
nodes = (
"77 393 OFFCURVE",
"148 490 OFFCURVE",
"269 490 CURVE SMOOTH",
"358 490 OFFCURVE",
"411 418 OFFCURVE",
"411 295 CURVE SMOOTH",
"411 128 OFFCURVE",
"345 29 OFFCURVE",
"234 29 CURVE SMOOTH",
"135 29 OFFCURVE",
"77 103 OFFCURVE",
"77 228 CURVE SMOOTH"
);
}
);
width = 499;
},
{
anchors = (
{
name = Top;
position = "{342, 532}";
}
);
layerId = m002;
paths = (
{
closed = 1;
nodes = (
"618 520 LINE",
"413 520 LINE",
"430 479 LINE",
"427 479 LINE",
"402 513 OFFCURVE",
"350 532 OFFCURVE",
"292 532 CURVE SMOOTH",
"115 532 OFFCURVE",
"10 422 OFFCURVE",
"10 237 CURVE SMOOTH",
"10 80 OFFCURVE",
"107 -13 OFFCURVE",
"271 -13 CURVE SMOOTH",
"323 -13 OFFCURVE",
"372 7 OFFCURVE",
"401 40 CURVE",
"402 42 LINE",
"398 -8 LINE SMOOTH",
"394 -63 OFFCURVE",
"357 -96 OFFCURVE",
"298 -96 CURVE SMOOTH",
"240 -96 OFFCURVE",
"207 -68 OFFCURVE",
"210 -21 CURVE",
"12 -17 LINE",
"3 -153 OFFCURVE",
"107 -233 OFFCURVE",
"293 -233 CURVE SMOOTH",
"464 -233 OFFCURVE",
"572 -152 OFFCURVE",
"581 -15 CURVE SMOOTH"
);
},
{
closed = 1;
nodes = (
"217 328 OFFCURVE",
"259 379 OFFCURVE",
"331 379 CURVE SMOOTH",
"376 379 OFFCURVE",
"402 343 OFFCURVE",
"402 282 CURVE SMOOTH",
"402 192 OFFCURVE",
"366 139 OFFCURVE",
"305 139 CURVE SMOOTH",
"250 139 OFFCURVE",
"217 177 OFFCURVE",
"217 241 CURVE SMOOTH"
);
}
);
width = 620;
}
);
leftKerningGroup = o;
leftMetricsKey = o;
rightKerningGroup = g;
rightMetricsKey = n;
unicode = 0067;
},
{
color = 10;
glyphname = "gamma-latin";
lastChange = "2023-08-31 02:41:23 +0000";
layers = (
{
layerId = "FD4D3FDD-DE85-408F-A52A-FF600B1C6101";
paths = (
{
closed = 1;
nodes = (
"306 -217 OFFCURVE",
"367 -156 OFFCURVE",
"367 -68 CURVE SMOOTH",
"367 -10 OFFCURVE",
"336 41 OFFCURVE",
"310 92 CURVE SMOOTH",
"274 161 LINE",
"508 520 LINE",
"457 520 LINE",
"252 205 LINE",
"89 520 LINE",
"38 520 LINE",
"221 158 LINE",
"177 90 LINE SMOOTH",
"139 31 OFFCURVE",
"95 -26 OFFCURVE",
"95 -93 CURVE SMOOTH",
"95 -169 OFFCURVE",
"143 -217 OFFCURVE",
"221 -217 CURVE SMOOTH"
);
},
{
closed = 1;
nodes = (
"143 -24 OFFCURVE",
"190 33 OFFCURVE",
"227 89 CURVE SMOOTH",
"243 114 LINE",
"257 87 LINE SMOOTH",
"283 36 OFFCURVE",
"319 -15 OFFCURVE",
"319 -71 CURVE SMOOTH",
"319 -131 OFFCURVE",
"281 -175 OFFCURVE",
"225 -175 CURVE SMOOTH",
"175 -175 OFFCURVE",
"143 -140 OFFCURVE",
"143 -87 CURVE SMOOTH"
);
}
);
width = 510;
},
{
layerId = m002;
paths = (
{
closed = 1;
nodes = (
"402 -217 OFFCURVE",
"509 -130 OFFCURVE",
"519 18 CURVE SMOOTH",
"522 57 OFFCURVE",
"508 109 OFFCURVE",
"480 155 CURVE SMOOTH",
"390 304 LINE",
"542 520 LINE",
"323 520 LINE",
"289 473 LINE",
"261 520 LINE",
"38 520 LINE",
"161 298 LINE",
"54 151 LINE SMOOTH",
"19 102 OFFCURVE",
"-9 50 OFFCURVE",
"-9 -13 CURVE SMOOTH",
"-9 -142 OFFCURVE",
"80 -217 OFFCURVE",
"237 -217 CURVE SMOOTH"
);
},
{
closed = 1;
nodes = (
"201 24 OFFCURVE",
"215 55 OFFCURVE",
"240 90 CURVE SMOOTH",
"260 119 LINE",
"278 86 LINE SMOOTH",
"298 50 OFFCURVE",
"311 20 OFFCURVE",
"310 -1 CURVE SMOOTH",
"307 -31 OFFCURVE",
"288 -49 OFFCURVE",
"254 -49 CURVE SMOOTH",
"219 -49 OFFCURVE",
"198 -27 OFFCURVE",
"200 9 CURVE SMOOTH"
);
}
);
width = 546;
}
);
leftKerningGroup = v;
leftMetricsKey = v;
rightKerningGroup = v;
rightMetricsKey = v;
unicode = 0263;
},
{
color = 10;
glyphname = glottalstop;
lastChange = "2023-08-31 02:41:15 +0000";
layers = (
{
layerId = "FD4D3FDD-DE85-408F-A52A-FF600B1C6101";
paths = (
{
closed = 1;
nodes = (
"205 0 LINE",
"205 315 OFFCURVE",
"478 284 OFFCURVE",
"494 520 CURVE SMOOTH",
"503 649 OFFCURVE",
"427 726 OFFCURVE",
"289 726 CURVE SMOOTH",
"147 726 OFFCURVE",
"57 649 OFFCURVE",
"48 520 CURVE",
"96 520 LINE",
"103 623 OFFCURVE",
"175 684 OFFCURVE",
"289 684 CURVE SMOOTH",
"388 684 OFFCURVE",
"447 630 OFFCURVE",
"447 538 CURVE SMOOTH",
"447 314 OFFCURVE",
"157 349 OFFCURVE",
"157 0 CURVE"
);
}
);
width = 506;
},
{
layerId = m002;
paths = (
{
closed = 1;
nodes = (
"298 0 LINE",
"298 258 OFFCURVE",
"599 214 OFFCURVE",
"617 470 CURVE SMOOTH",
"628 631 OFFCURVE",
"523 726 OFFCURVE",
"334 726 CURVE SMOOTH",
"151 726 OFFCURVE",
"36 629 OFFCURVE",
"24 465 CURVE",
"232 465 LINE",
"237 530 OFFCURVE",
"274 568 OFFCURVE",
"332 568 CURVE SMOOTH",
"384 568 OFFCURVE",
"413 535 OFFCURVE",
"409 480 CURVE SMOOTH",
"397 305 OFFCURVE",
"101 321 OFFCURVE",
"101 0 CURVE"
);
}
);
width = 612;
}
);
leftKerningGroup = o;
leftMetricsKey = o;
rightKerningGroup = p;
rightMetricsKey = o;
unicode = 0294;
},
{
color = 10;
glyphname = glottalstopreversed;
lastChange = "2023-08-31 02:41:19 +0000";
layers = (
{
layerId = "FD4D3FDD-DE85-408F-A52A-FF600B1C6101";
paths = (
{
closed = 1;
nodes = (
"313 0 LINE",
"336 340 OFFCURVE",
"82 314 OFFCURVE",
"96 520 CURVE SMOOTH",
"103 623 OFFCURVE",
"171 684 OFFCURVE",
"279 684 CURVE SMOOTH",
"391 684 OFFCURVE",
"453 622 OFFCURVE",
"446 520 CURVE",
"494 520 LINE",
"503 650 OFFCURVE",
"423 726 OFFCURVE",
"279 726 CURVE SMOOTH",
"143 726 OFFCURVE",
"57 650 OFFCURVE",
"48 522 CURVE SMOOTH",
"32 286 OFFCURVE",
"287 315 OFFCURVE",
"265 0 CURVE"
);
}
);
width = 506;
},
{
layerId = m002;
paths = (
{
closed = 1;
nodes = (
"474 0 LINE",
"497 321 OFFCURVE",
"221 301 OFFCURVE",
"233 470 CURVE SMOOTH",
"237 532 OFFCURVE",
"274 568 OFFCURVE",
"332 568 CURVE SMOOTH",
"385 568 OFFCURVE",
"413 530 OFFCURVE",
"408 465 CURVE",
"616 465 LINE",
"627 629 OFFCURVE",
"522 726 OFFCURVE",
"334 726 CURVE SMOOTH",
"151 726 OFFCURVE",
"36 635 OFFCURVE",
"25 480 CURVE SMOOTH",
"7 218 OFFCURVE",
"295 258 OFFCURVE",
"277 0 CURVE"
);
}
);
width = 612;
}
);
leftKerningGroup = o;
leftMetricsKey = o;
rightKerningGroup = o;
rightMetricsKey = o;
unicode = 0295;
},
{
color = 10;
glyphname = gstroke;
lastChange = "2023-08-31 16:33:28 +0000";
layers = (
{
layerId = "FD4D3FDD-DE85-408F-A52A-FF600B1C6101";
paths = (
{
closed = 1;
nodes = (
"457 238 LINE",
"533 238 LINE",
"536 280 LINE",
"460 280 LINE",
"477 520 LINE",
"414 520 LINE",
"424 441 LINE",
"422 441 LINE",
"393 498 OFFCURVE",
"336 532 OFFCURVE",
"269 532 CURVE SMOOTH",
"118 532 OFFCURVE",
"29 419 OFFCURVE",
"29 227 CURVE SMOOTH",
"29 76 OFFCURVE",
"107 -13 OFFCURVE",
"239 -13 CURVE SMOOTH",
"305 -13 OFFCURVE",
"366 26 OFFCURVE",
"402 92 CURVE",
"404 93 LINE",
"391 -21 LINE SMOOTH",
"379 -128 OFFCURVE",
"316 -191 OFFCURVE",
"222 -191 CURVE SMOOTH",
"139 -191 OFFCURVE",
"83 -143 OFFCURVE",
"72 -62 CURVE",
"25 -60 LINE",
"37 -169 OFFCURVE",
"110 -233 OFFCURVE",
"221 -233 CURVE SMOOTH",
"349 -233 OFFCURVE",
"430 -151 OFFCURVE",
"440 -12 CURVE SMOOTH"
);
},
{
closed = 1;
nodes = (
"77 393 OFFCURVE",
"148 490 OFFCURVE",
"269 490 CURVE SMOOTH",
"358 490 OFFCURVE",
"411 418 OFFCURVE",
"411 278 CURVE",
"336 283 LINE",
"333 238 LINE",
"408 238 LINE",
"395 106 OFFCURVE",
"332 29 OFFCURVE",
"234 29 CURVE SMOOTH",
"135 29 OFFCURVE",
"77 103 OFFCURVE",
"77 228 CURVE SMOOTH"
);
}
);
width = 575;
},
{
layerId = m002;
paths = (
{
closed = 1;
nodes = (
"596 199 LINE",
"666 199 LINE",
"674 319 LINE",
"604 319 LINE",
"618 520 LINE",
"413 520 LINE",
"431 478 LINE",
"428 478 LINE",
"403 512 OFFCURVE",
"351 532 OFFCURVE",
"288 532 CURVE SMOOTH",
"113 532 OFFCURVE",
"10 422 OFFCURVE",
"10 237 CURVE SMOOTH",
"10 80 OFFCURVE",
"107 -13 OFFCURVE",
"271 -13 CURVE SMOOTH",
"323 -13 OFFCURVE",
"372 7 OFFCURVE",
"401 40 CURVE",
"402 42 LINE",
"398 -8 LINE SMOOTH",
"394 -63 OFFCURVE",
"357 -96 OFFCURVE",
"298 -96 CURVE SMOOTH",
"240 -96 OFFCURVE",
"207 -68 OFFCURVE",
"210 -21 CURVE",
"12 -17 LINE",
"3 -153 OFFCURVE",
"107 -233 OFFCURVE",
"293 -233 CURVE SMOOTH",
"465 -233 OFFCURVE",
"572 -152 OFFCURVE",
"581 -15 CURVE SMOOTH"
);
},
{
closed = 1;
nodes = (
"217 329 OFFCURVE",
"256 379 OFFCURVE",
"323 379 CURVE SMOOTH",
"362 379 OFFCURVE",
"388 356 OFFCURVE",
"398 317 CURVE",
"310 322 LINE",
"302 199 LINE",
"389 199 LINE",
"373 161 OFFCURVE",
"344 139 OFFCURVE",
"305 139 CURVE SMOOTH",
"250 139 OFFCURVE",
"217 178 OFFCURVE",
"217 245 CURVE SMOOTH"
);
}
);
width = 690;
}
);
leftKerningGroup = o;
leftMetricsKey = g;
rightKerningGroup = g;
rightMetricsKey = g;
unicode = 01E5;
},
{
glyphname = h;
lastChange = "2023-09-05 23:34:37 +0000";
layers = (
{
anchors = (
{
name = Bottom;
position = "{217, 0}";
},
{
name = Top;
position = "{97, 736}";
}
);
layerId = "FD4D3FDD-DE85-408F-A52A-FF600B1C6101";
paths = (
{
closed = 1;
nodes = (
"73 736 LINE",
"22 0 LINE",
"70 0 LINE",
"89 279 LINE SMOOTH",
"98 412 OFFCURVE",
"162 490 OFFCURVE",
"262 490 CURVE SMOOTH",
"347 490 OFFCURVE",
"393 437 OFFCURVE",
"387 348 CURVE SMOOTH",
"363 0 LINE",
"411 0 LINE",
"434 332 LINE SMOOTH",
"443 458 OFFCURVE",
"381 532 OFFCURVE",
"268 532 CURVE SMOOTH",
"192 532 OFFCURVE",
"129 492 OFFCURVE",
"97 427 CURVE",
"94 427 LINE",
"111 520 LINE",
"126 736 LINE"
);
}
);
width = 469;
},
{
anchors = (
{
name = Bottom;
position = "{305, 0}";
},
{
name = Top;
position = "{133, 736}";
}
);
layerId = m002;
paths = (
{
closed = 1;
nodes = (
"53 736 LINE",
"2 0 LINE",
"200 0 LINE",
"219 274 LINE SMOOTH",
"223 333 OFFCURVE",
"254 370 OFFCURVE",
"299 370 CURVE SMOOTH",
"340 370 OFFCURVE",
"361 342 OFFCURVE",
"357 290 CURVE SMOOTH",
"337 0 LINE",
"535 0 LINE",
"558 331 LINE SMOOTH",
"567 456 OFFCURVE",
"496 532 OFFCURVE",
"367 532 CURVE SMOOTH",
"308 532 OFFCURVE",
"257 513 OFFCURVE",
"229 478 CURVE",
"226 478 LINE",
"238 549 LINE",
"251 736 LINE"
);
}
);
width = 573;
}
);
leftKerningGroup = h;
leftMetricsKey = n;
rightKerningGroup = n;
rightMetricsKey = n;
unicode = 0068;
},
{
color = 10;
glyphname = hbar;
lastChange = "2023-09-05 19:37:37 +0000";
layers = (
{
layerId = "FD4D3FDD-DE85-408F-A52A-FF600B1C6101";
paths = (
{
closed = 1;
nodes = (
"166 736 LINE",
"161 659 LINE",
"68 664 LINE",
"65 619 LINE",
"158 619 LINE",
"115 0 LINE",
"163 0 LINE",
"182 279 LINE SMOOTH",
"191 412 OFFCURVE",
"255 490 OFFCURVE",
"355 490 CURVE SMOOTH",
"440 490 OFFCURVE",
"486 430 OFFCURVE",
"479 329 CURVE SMOOTH",
"456 0 LINE",
"504 0 LINE",
"527 332 LINE SMOOTH",
"536 458 OFFCURVE",
"474 532 OFFCURVE",
"361 532 CURVE SMOOTH",
"285 532 OFFCURVE",
"221 491 OFFCURVE",
"189 426 CURVE",
"187 427 LINE",
"204 520 LINE",
"211 619 LINE",
"340 619 LINE",
"343 661 LINE",
"214 661 LINE",
"219 736 LINE"
);
}
);
width = 562;
},
{
layerId = m002;
paths = (
{
closed = 1;
nodes = (
"129 736 LINE",
"125 685 LINE",
"50 690 LINE",
"43 587 LINE",
"119 587 LINE",
"78 0 LINE",
"276 0 LINE",
"295 274 LINE SMOOTH",
"299 334 OFFCURVE",
"329 370 OFFCURVE",
"375 370 CURVE SMOOTH",
"415 370 OFFCURVE",
"436 340 OFFCURVE",
"433 290 CURVE SMOOTH",
"413 0 LINE",
"611 0 LINE",
"634 331 LINE SMOOTH",
"643 457 OFFCURVE",
"572 532 OFFCURVE",
"443 532 CURVE SMOOTH",
"383 532 OFFCURVE",
"331 509 OFFCURVE",
"304 476 CURVE",
"302 477 LINE",
"314 549 LINE",
"317 587 LINE",
"388 587 LINE",
"395 687 LINE",
"324 687 LINE",
"327 736 LINE"
);
}
);
width = 649;
}
);
leftKerningGroup = hbar;
leftMetricsKey = n;
rightKerningGroup = n;
rightMetricsKey = n;
unicode = 0127;
},
{
color = 10;
glyphname = idotless;
lastChange = "2023-08-31 02:36:38 +0000";
layers = (
{
anchors = (
{
name = Bottom;
position = "{46, 0}";
},
{
name = Top;
position = "{82, 520}";
}
);
layerId = "FD4D3FDD-DE85-408F-A52A-FF600B1C6101";
paths = (
{
closed = 1;
nodes = (
"58 520 LINE",
"22 0 LINE",
"70 0 LINE",
"106 520 LINE"
);
}
);
width = 128;
},
{
anchors = (
{
name = Bottom;
position = "{101, 0}";
},
{
name = Top;
position = "{137, 520}";
}
);
layerId = m002;
paths = (
{
closed = 1;
nodes = (
"38 520 LINE",
"2 0 LINE",
"200 0 LINE",
"236 520 LINE"
);
}
);
width = 238;
}
);
leftKerningGroup = i;
leftMetricsKey = n;
rightKerningGroup = i;
rightMetricsKey = n;
unicode = 0131;
},
{
color = 10;
glyphname = ij;
lastChange = "2023-09-06 16:03:14 +0000";
layers = (
{
layerId = "FD4D3FDD-DE85-408F-A52A-FF600B1C6101";
paths = (
{
closed = 1;
nodes = (
"31 -175 OFFCURVE",
"102 -233 OFFCURVE",
"209 -233 CURVE SMOOTH",
"337 -233 OFFCURVE",
"418 -152 OFFCURVE",
"428 -12 CURVE SMOOTH",
"465 520 LINE",
"417 520 LINE",
"395 208 LINE SMOOTH",
"387 96 OFFCURVE",
"324 29 OFFCURVE",
"225 29 CURVE SMOOTH",
"145 29 OFFCURVE",
"96 80 OFFCURVE",
"101 158 CURVE SMOOTH",
"126 520 LINE",
"78 520 LINE",
"52 148 LINE SMOOTH",
"45 52 OFFCURVE",
"117 -13 OFFCURVE",
"225 -13 CURVE SMOOTH",
"290 -13 OFFCURVE",
"354 22 OFFCURVE",
"384 77 CURVE",
"386 78 LINE",
"379 -21 LINE SMOOTH",
"372 -127 OFFCURVE",
"310 -191 OFFCURVE",
"213 -191 CURVE SMOOTH",
"131 -191 OFFCURVE",
"75 -150 OFFCURVE",
"64 -80 CURVE",
"16 -78 LINE"
);
},
{
closed = 1;
nodes = (
"130 567 LINE",
"136 649 LINE",
"88 649 LINE",
"82 567 LINE"
);
},
{
closed = 1;
nodes = (
"468 567 LINE",
"474 649 LINE",
"426 649 LINE",
"420 567 LINE"
);
}
);
width = 487;
},
{
layerId = m002;
paths = (
{
closed = 1;
nodes = (
"-9 -160 OFFCURVE",
"88 -233 OFFCURVE",
"262 -233 CURVE SMOOTH",
"441 -233 OFFCURVE",
"553 -152 OFFCURVE",
"562 -15 CURVE SMOOTH",
"599 520 LINE",
"401 520 LINE",
"380 224 LINE SMOOTH",
"377 177 OFFCURVE",
"346 150 OFFCURVE",
"298 150 CURVE SMOOTH",
"256 150 OFFCURVE",
"233 176 OFFCURVE",
"236 220 CURVE SMOOTH",
"257 520 LINE",
"59 520 LINE",
"35 172 LINE SMOOTH",
"27 56 OFFCURVE",
"103 -12 OFFCURVE",
"240 -12 CURVE SMOOTH",
"294 -12 OFFCURVE",
"343 4 OFFCURVE",
"371 31 CURVE",
"374 33 LINE",
"367 -8 LINE SMOOTH",
"358 -63 OFFCURVE",
"322 -96 OFFCURVE",
"267 -96 CURVE SMOOTH",
"220 -96 OFFCURVE",
"194 -76 OFFCURVE",
"197 -41 CURVE",
"-1 -37 LINE"
);
},
{
closed = 1;
nodes = (
"260 567 LINE",
"270 717 LINE",
"72 717 LINE",
"62 567 LINE"
);
},
{
closed = 1;
nodes = (
"602 567 LINE",
"612 717 LINE",
"414 717 LINE",
"404 567 LINE"
);
}
);
width = 634;
}
);
leftKerningGroup = ij;
leftMetricsKey = u;
rightKerningGroup = ij;
unicode = 0133;
},
{
color = 10;
glyphname = "iota-latin";
lastChange = "2023-09-08 16:45:42 +0000";
layers = (
{
layerId = "FD4D3FDD-DE85-408F-A52A-FF600B1C6101";
paths = (
{
closed = 1;
nodes = (
"24 30 OFFCURVE",
"63 -11 OFFCURVE",
"126 -11 CURVE SMOOTH",
"140 -11 OFFCURVE",
"158 -7 OFFCURVE",
"171 -1 CURVE",
"173 41 LINE",
"164 34 OFFCURVE",
"145 30 OFFCURVE",
"126 30 CURVE SMOOTH",
"93 30 OFFCURVE",
"73 54 OFFCURVE",
"76 90 CURVE SMOOTH",
"106 520 LINE",
"58 520 LINE",
"28 92 LINE SMOOTH"
);
}
);
width = 228;
},
{
layerId = m002;
paths = (
{
closed = 1;
nodes = (
"6 56 OFFCURVE",
"88 -13 OFFCURVE",
"235 -13 CURVE SMOOTH",
"261 -13 OFFCURVE",
"287 -9 OFFCURVE",
"305 -1 CURVE",
"312 161 LINE",
"292 152 OFFCURVE",
"268 146 OFFCURVE",
"246 146 CURVE SMOOTH",
"223 146 OFFCURVE",
"211 162 OFFCURVE",
"213 189 CURVE SMOOTH",
"236 520 LINE",
"38 520 LINE",
"14 173 LINE SMOOTH"
);
}
);
width = 342;
}
);
leftKerningGroup = iota;
leftMetricsKey = i;
rightKerningGroup = iota;
rightMetricsKey = i;
unicode = 0269;
},
{
color = 10;
glyphname = istroke;
lastChange = "2023-09-08 16:45:44 +0000";
layers = (
{
layerId = "FD4D3FDD-DE85-408F-A52A-FF600B1C6101";
paths = (
{
closed = 1;
nodes = (
"138 520 LINE",
"121 278 LINE",
"42 283 LINE",
"39 238 LINE",
"118 238 LINE",
"102 0 LINE",
"150 0 LINE",
"166 238 LINE",
"239 238 LINE",
"242 280 LINE",
"169 280 LINE",
"186 520 LINE"
);
},
{
closed = 1;
nodes = (
"190 567 LINE",
"195 632 LINE",
"147 632 LINE",
"142 567 LINE"
);
}
);
width = 280;
},
{
layerId = m002;
paths = (
{
closed = 1;
nodes = (
"109 520 LINE",
"95 318 LINE",
"24 322 LINE",
"16 199 LINE",
"87 199 LINE",
"73 0 LINE",
"271 0 LINE",
"285 199 LINE",
"380 199 LINE",
"388 319 LINE",
"293 319 LINE",
"307 520 LINE"
);
},
{
closed = 1;
nodes = (
"311 567 LINE",
"321 700 LINE",
"122 700 LINE",
"112 567 LINE"
);
}
);
width = 403;
}
);
leftKerningGroup = istroke;
leftMetricsKey = i;
rightKerningGroup = istroke;
rightMetricsKey = i;
unicode = 0268;
},
{
color = 10;
glyphname = jdotless;
lastChange = "2023-08-31 02:15:44 +0000";
layers = (
{
anchors = (
{
name = Top;
position = "{251, 520}";
}
);
hints = (
{
horizontal = 1;
place = "{520, 0}";
type = Stem;
}
);
layerId = "FD4D3FDD-DE85-408F-A52A-FF600B1C6101";
paths = (
{
closed = 1;
nodes = (
"275 520 LINE",
"227 520 LINE",
"186 -69 LINE SMOOTH",
"180 -146 OFFCURVE",
"133 -192 OFFCURVE",
"57 -192 CURVE SMOOTH",
"39 -192 OFFCURVE",
"21 -191 OFFCURVE",
"9 -188 CURVE",
"7 -230 LINE",
"22 -232 OFFCURVE",
"40 -233 OFFCURVE",
"56 -233 CURVE SMOOTH",
"161 -233 OFFCURVE",
"227 -173 OFFCURVE",
"234 -71 CURVE SMOOTH"
);
}
);
width = 297;
},
{
anchors = (
{
name = Top;
position = "{212, 520}";
}
);
hints = (
{
horizontal = 1;
place = "{520, 0}";
type = Stem;
}
);
layerId = m002;
paths = (
{
closed = 1;
nodes = (
"311 520 LINE",
"113 520 LINE",
"76 -10 LINE SMOOTH",
"73 -49 OFFCURVE",
"53 -74 OFFCURVE",
"23 -74 CURVE SMOOTH",
"7 -74 OFFCURVE",
"-11 -74 OFFCURVE",
"-23 -71 CURVE",
"-30 -230 LINE",
"-19 -232 OFFCURVE",
"-1 -233 OFFCURVE",
"20 -233 CURVE SMOOTH",
"171 -233 OFFCURVE",
"264 -152 OFFCURVE",
"274 -12 CURVE SMOOTH"
);
}
);
width = 313;
}
);
leftKerningGroup = j;
rightKerningGroup = j;
rightMetricsKey = n;
unicode = 0237;
},
{
glyphname = k;
lastChange = "2023-08-31 01:28:21 +0000";
layers = (
{
anchors = (
{
name = Bottom;
position = "{198, 0}";
},
{
name = Top;
position = "{220, 520}";
}
);
layerId = "FD4D3FDD-DE85-408F-A52A-FF600B1C6101";
paths = (
{
closed = 1;
nodes = (
"22 0 LINE",
"70 0 LINE",
"83 181 LINE",
"195 286 LINE",
"358 0 LINE",
"413 0 LINE",
"232 320 LINE",
"448 520 LINE",
"380 520 LINE",
"89 251 LINE",
"87 251 LINE",
"121 736 LINE",
"73 736 LINE"
);
}
);
width = 451;
},
{
anchors = (
{
name = Bottom;
position = "{292, 0}";
},
{
name = Top;
position = "{350, 520}";
}
);
layerId = m002;
paths = (
{
closed = 1;
nodes = (
"2 0 LINE",
"200 0 LINE",
"208 113 LINE",
"283 184 LINE",
"388 0 LINE",
"600 0 LINE",
"422 317 LINE",
"635 520 LINE",
"377 520 LINE",
"227 380 LINE",
"226 380 LINE",
"251 736 LINE",
"53 736 LINE"
);
}
);
width = 628;
}
);
leftKerningGroup = n;
leftMetricsKey = n;
rightKerningGroup = k;
unicode = 006B;
},
{
color = 10;
glyphname = kgreenlandic;
lastChange = "2023-08-31 19:06:41 +0000";
layers = (
{
layerId = "FD4D3FDD-DE85-408F-A52A-FF600B1C6101";
paths = (
{
closed = 1;
nodes = (
"22 0 LINE",
"70 0 LINE",
"89 269 LINE",
"90 269 LINE",
"307 0 LINE",
"369 0 LINE",
"142 279 LINE",
"406 520 LINE",
"343 520 LINE",
"92 292 LINE",
"90 292 LINE",
"106 520 LINE",
"58 520 LINE"
);
}
);
width = 408;
},
{
layerId = m002;
paths = (
{
closed = 1;
nodes = (
"2 0 LINE",
"200 0 LINE",
"214 203 LINE",
"217 203 LINE",
"381 0 LINE",
"615 0 LINE",
"387 278 LINE",
"653 520 LINE",
"416 520 LINE",
"226 347 LINE",
"224 347 LINE",
"236 520 LINE",
"38 520 LINE"
);
}
);
width = 645;
}
);
leftKerningGroup = n;
leftMetricsKey = k;
rightKerningGroup = k;
rightMetricsKey = k;
unicode = 0138;
},
{
glyphname = l;
lastChange = "2023-09-21 15:08:26 +0000";
layers = (
{
anchors = (
{
name = Bottom;
position = "{46, 0}";
},
{
name = Caron;
position = "{187, 560}";
},
{
name = Top;
position = "{97, 736}";
},
{
name = Top_EC;
position = "{176, 570}";
}
);
layerId = "FD4D3FDD-DE85-408F-A52A-FF600B1C6101";
paths = (
{
closed = 1;
nodes = (
"22 0 LINE",
"70 0 LINE",
"121 736 LINE",
"73 736 LINE"
);
}
);
width = 128;
},
{
anchors = (
{
name = Bottom;
position = "{101, 0}";
},
{
name = Caron;
position = "{357, 560}";
},
{
name = Top;
position = "{152, 736}";
},
{
name = Top_EC;
position = "{357, 570}";
}
);
layerId = m002;
paths = (
{
closed = 1;
nodes = (
"2 0 LINE",
"200 0 LINE",
"251 736 LINE",
"53 736 LINE"
);
}
);
width = 238;
}
);
leftKerningGroup = l;
leftMetricsKey = n;
rightKerningGroup = l;
rightMetricsKey = n;
unicode = 006C;
},
{
color = 10;
glyphname = lambdastroke;
lastChange = "2023-08-31 19:06:47 +0000";
layers = (
{
layerId = "FD4D3FDD-DE85-408F-A52A-FF600B1C6101";
paths = (
{
closed = 1;
nodes = (
"251 435 LINE",
"253 435 LINE",
"345 126 LINE SMOOTH",
"373 31 OFFCURVE",
"424 -13 OFFCURVE",
"500 -13 CURVE SMOOTH",
"515 -13 OFFCURVE",
"533 -10 OFFCURVE",
"548 -5 CURVE",
"550 43 LINE",
"539 37 OFFCURVE",
"516 34 OFFCURVE",
"497 34 CURVE SMOOTH",
"449 34 OFFCURVE",
"412 63 OFFCURVE",
"394 124 CURVE SMOOTH",
"278 511 LINE",
"410 536 LINE",
"419 576 LINE",
"268 547 LINE",
"255 589 LINE SMOOTH",
"226 686 OFFCURVE",
"176 728 OFFCURVE",
"100 728 CURVE SMOOTH",
"85 728 OFFCURVE",
"67 725 OFFCURVE",
"52 720 CURVE",
"50 672 LINE",
"62 678 OFFCURVE",
"84 681 OFFCURVE",
"103 681 CURVE SMOOTH",
"151 681 OFFCURVE",
"188 652 OFFCURVE",
"206 591 CURVE SMOOTH",
"220 543 LINE",
"101 519 LINE",
"92 476 LINE",
"230 502 LINE",
"9 0 LINE",
"60 0 LINE"
);
}
);
width = 587;
},
{
layerId = m002;
paths = (
{
closed = 1;
nodes = (
"303 237 LINE",
"306 237 LINE",
"333 148 LINE SMOOTH",
"378 -4 OFFCURVE",
"460 -13 OFFCURVE",
"582 -13 CURVE SMOOTH",
"605 -13 OFFCURVE",
"629 -11 OFFCURVE",
"645 -6 CURVE",
"652 156 LINE",
"639 150 OFFCURVE",
"611 146 OFFCURVE",
"573 146 CURVE SMOOTH",
"548 146 OFFCURVE",
"525 157 OFFCURVE",
"518 180 CURVE SMOOTH",
"413 536 LINE",
"514 555 LINE",
"522 595 LINE",
"402 571 LINE",
"401 574 LINE SMOOTH",
"353 717 OFFCURVE",
"275 727 OFFCURVE",
"155 727 CURVE SMOOTH",
"132 727 OFFCURVE",
"108 725 OFFCURVE",
"92 720 CURVE",
"85 558 LINE",
"98 564 OFFCURVE",
"127 568 OFFCURVE",
"164 568 CURVE SMOOTH",
"186 568 OFFCURVE",
"205 560 OFFCURVE",
"214 543 CURVE SMOOTH",
"215 541 LINE",
"109 519 LINE",
"100 476 LINE",
"222 499 LINE",
"2 0 LINE",
"201 0 LINE"
);
}
);
width = 684;
}
);
leftKerningGroup = A;
leftMetricsKey = A;
rightKerningGroup = A;
rightMetricsKey = A;
unicode = 019B;
},
{
color = 10;
glyphname = lbar;
lastChange = "2023-08-31 19:07:19 +0000";
layers = (
{
layerId = "FD4D3FDD-DE85-408F-A52A-FF600B1C6101";
paths = (
{
closed = 1;
nodes = (
"125 381 LINE",
"50 386 LINE",
"46 341 LINE",
"123 341 LINE",
"99 0 LINE",
"147 0 LINE",
"171 341 LINE",
"246 341 LINE",
"249 383 LINE",
"174 383 LINE",
"198 736 LINE",
"150 736 LINE"
);
}
);
width = 280;
},
{
layerId = m002;
paths = (
{
closed = 1;
nodes = (
"114 417 LINE",
"31 422 LINE",
"23 299 LINE",
"106 299 LINE",
"85 0 LINE",
"283 0 LINE",
"304 299 LINE",
"387 299 LINE",
"395 419 LINE",
"312 419 LINE",
"334 736 LINE",
"136 736 LINE"
);
}
);
width = 404;
}
);
leftKerningGroup = l;
leftMetricsKey = l;
rightKerningGroup = l;
rightMetricsKey = l;
unicode = 019A;
},
{
color = 10;
glyphname = lbelt;
lastChange = "2023-08-31 16:48:21 +0000";
layers = (
{
layerId = "FD4D3FDD-DE85-408F-A52A-FF600B1C6101";
paths = (
{
closed = 1;
nodes = (
"157 487 LINE",
"149 490 OFFCURVE",
"140 491 OFFCURVE",
"130 491 CURVE SMOOTH",
"83 491 OFFCURVE",
"51 461 OFFCURVE",
"51 416 CURVE SMOOTH",
"51 371 OFFCURVE",
"82 341 OFFCURVE",
"129 341 CURVE SMOOTH",
"146 341 LINE",
"123 0 LINE",
"171 0 LINE",
"195 341 LINE",
"274 341 LINE",
"277 383 LINE",
"197 383 LINE",
"222 736 LINE",
"174 736 LINE"
);
},
{
closed = 1;
nodes = (
"99 436 OFFCURVE",
"111 449 OFFCURVE",
"129 449 CURVE SMOOTH",
"144 449 OFFCURVE",
"153 438 OFFCURVE",
"152 422 CURVE SMOOTH",
"149 383 LINE",
"139 383 LINE SMOOTH",
"115 383 OFFCURVE",
"99 396 OFFCURVE",
"99 416 CURVE SMOOTH"
);
}
);
width = 308;
},
{
layerId = m002;
paths = (
{
closed = 1;
nodes = (
"141 489 LINE",
"133 490 OFFCURVE",
"125 491 OFFCURVE",
"116 491 CURVE SMOOTH",
"66 491 OFFCURVE",
"34 463 OFFCURVE",
"31 415 CURVE SMOOTH",
"27 357 OFFCURVE",
"60 323 OFFCURVE",
"120 323 CURVE SMOOTH",
"129 323 LINE",
"107 0 LINE",
"305 0 LINE",
"327 323 LINE",
"427 323 LINE",
"431 383 LINE",
"331 383 LINE",
"356 736 LINE",
"158 736 LINE"
);
},
{
closed = 1;
nodes = (
"92 431 OFFCURVE",
"103 441 OFFCURVE",
"120 441 CURVE SMOOTH",
"131 441 OFFCURVE",
"137 435 OFFCURVE",
"136 424 CURVE SMOOTH",
"133 383 LINE",
"121 383 LINE SMOOTH",
"100 383 OFFCURVE",
"89 394 OFFCURVE",
"91 413 CURVE SMOOTH"
);
}
);
width = 443;
}
);
leftKerningGroup = l;
leftMetricsKey = l;
rightKerningGroup = l;
rightMetricsKey = l;
unicode = 026C;
},
{
color = 10;
glyphname = lmiddletilde;
lastChange = "2023-08-31 16:48:21 +0000";
layers = (
{
layerId = "FD4D3FDD-DE85-408F-A52A-FF600B1C6101";
paths = (
{
closed = 1;
nodes = (
"195 0 LINE",
"218 325 LINE",
"230 321 OFFCURVE",
"244 318 OFFCURVE",
"260 318 CURVE SMOOTH",
"307 318 OFFCURVE",
"340 350 OFFCURVE",
"343 399 CURVE",
"296 399 LINE",
"294 376 OFFCURVE",
"277 361 OFFCURVE",
"254 361 CURVE SMOOTH",
"242 361 OFFCURVE",
"231 364 OFFCURVE",
"220 368 CURVE",
"246 736 LINE",
"198 736 LINE",
"174 388 LINE",
"160 394 OFFCURVE",
"145 398 OFFCURVE",
"127 398 CURVE SMOOTH",
"80 398 OFFCURVE",
"47 366 OFFCURVE",
"44 317 CURVE",
"92 317 LINE",
"93 340 OFFCURVE",
"111 355 OFFCURVE",
"133 355 CURVE SMOOTH",
"146 355 OFFCURVE",
"158 351 OFFCURVE",
"171 346 CURVE",
"147 0 LINE"
);
}
);
width = 373;
},
{
layerId = m002;
paths = (
{
closed = 1;
nodes = (
"343 0 LINE",
"367 345 LINE",
"382 344 OFFCURVE",
"394 343 OFFCURVE",
"402 343 CURVE SMOOTH",
"470 343 OFFCURVE",
"512 383 OFFCURVE",
"517 451 CURVE",
"412 451 LINE",
"411 438 OFFCURVE",
"401 431 OFFCURVE",
"384 431 CURVE SMOOTH",
"382 431 OFFCURVE",
"378 431 OFFCURVE",
"373 432 CURVE",
"394 736 LINE",
"196 736 LINE",
"176 453 LINE",
"162 454 OFFCURVE",
"149.994 455 OFFCURVE",
"143 455 CURVE SMOOTH",
"73 455 OFFCURVE",
"31 415 OFFCURVE",
"26 347 CURVE",
"131 347 LINE",
"132 360 OFFCURVE",
"143 368 OFFCURVE",
"159 368 CURVE SMOOTH",
"162 368 OFFCURVE",
"166 368 OFFCURVE",
"170 367 CURVE",
"145 0 LINE"
);
}
);
width = 524;
}
);
leftKerningGroup = l;
leftMetricsKey = l;
rightKerningGroup = l;
rightMetricsKey = l;
unicode = 026B;
},
{
color = 10;
glyphname = lslash;
lastChange = "2023-08-31 02:34:36 +0000";
layers = (
{
layerId = "FD4D3FDD-DE85-408F-A52A-FF600B1C6101";
paths = (
{
closed = 1;
nodes = (
"152 415 LINE",
"47 356 LINE",
"44 298 LINE",
"148 357 LINE",
"123 0 LINE",
"171 0 LINE",
"198 386 LINE",
"302 445 LINE",
"306 503 LINE",
"202 444 LINE",
"222 736 LINE",
"174 736 LINE"
);
}
);
width = 329;
},
{
layerId = m002;
paths = (
{
closed = 1;
nodes = (
"132 413 LINE",
"26 345 LINE",
"18 207 LINE",
"122 274 LINE",
"103 0 LINE",
"271 0 LINE",
"298 388 LINE",
"403 456 LINE",
"411 592 LINE",
"307 526 LINE",
"322 736 LINE",
"154 736 LINE"
);
}
);
width = 409;
}
);
leftKerningGroup = l;
leftMetricsKey = n;
rightKerningGroup = l;
rightMetricsKey = n;
unicode = 0142;
},
{
glyphname = m;
lastChange = "2023-09-05 23:36:24 +0000";
layers = (
{
anchors = (
{
name = Bottom;
position = "{356, 0}";
}
);
hints = (
{
horizontal = 1;
origin = "{0, 37}";
target = up;
type = BottomGhost;
}
);
layerId = "FD4D3FDD-DE85-408F-A52A-FF600B1C6101";
paths = (
{
closed = 1;
nodes = (
"90 292 LINE SMOOTH",
"98 416 OFFCURVE",
"157 490 OFFCURVE",
"247 490 CURVE SMOOTH",
"321 490 OFFCURVE",
"362 431 OFFCURVE",
"355 329 CURVE SMOOTH",
"332 0 LINE",
"380 0 LINE",
"403 332 LINE SMOOTH",
"410 431 OFFCURVE",
"466 490 OFFCURVE",
"554 490 CURVE SMOOTH",
"630 490 OFFCURVE",
"672 431 OFFCURVE",
"665 329 CURVE SMOOTH",
"642 0 LINE",
"690 0 LINE",
"713 332 LINE SMOOTH",
"722 457 OFFCURVE",
"664 532 OFFCURVE",
"560 532 CURVE SMOOTH",
"478 532 OFFCURVE",
"414 496 OFFCURVE",
"387 434 CURVE",
"387 434 OFFCURVE",
"385 434 OFFCURVE",
"385 433 CURVE",
"363 494 OFFCURVE",
"314 532 OFFCURVE",
"253 532 CURVE SMOOTH",
"180 532 OFFCURVE",
"124 493 OFFCURVE",
"97 427 CURVE",
"94 427 LINE",
"120 520 LINE",
"58 520 LINE",
"22 0 LINE",
"70 0 LINE"
);
}
);
width = 748;
},
{
anchors = (
{
name = Bottom;
position = "{417, 0}";
}
);
layerId = m002;
paths = (
{
closed = 1;
nodes = (
"220 294 LINE SMOOTH",
"223 341 OFFCURVE",
"250 370 OFFCURVE",
"289 370 CURVE SMOOTH",
"324 370 OFFCURVE",
"342 347 OFFCURVE",
"339 305 CURVE SMOOTH",
"318 0 LINE",
"516 0 LINE",
"536 294 LINE SMOOTH",
"539 341 OFFCURVE",
"566 370 OFFCURVE",
"605 370 CURVE SMOOTH",
"640 370 OFFCURVE",
"658 347 OFFCURVE",
"655 305 CURVE SMOOTH",
"634 0 LINE",
"832 0 LINE",
"854 321 LINE SMOOTH",
"863 452 OFFCURVE",
"792 532 OFFCURVE",
"661 532 CURVE SMOOTH",
"603 532 OFFCURVE",
"547 514 OFFCURVE",
"514 480 CURVE",
"516 479 OFFCURVE",
"511 477 OFFCURVE",
"508 475 CURVE",
"482 510 OFFCURVE",
"429 532 OFFCURVE",
"364 532 CURVE SMOOTH",
"301 532 OFFCURVE",
"250 512 OFFCURVE",
"222 477 CURVE",
"218 477 LINE",
"243 520 LINE",
"38 520 LINE",
"2 0 LINE",
"200 0 LINE"
);
}
);
width = 870;
}
);
leftKerningGroup = n;
leftMetricsKey = n;
rightKerningGroup = n;
rightMetricsKey = n;
unicode = 006D;
},
{
glyphname = n;
lastChange = "2023-09-05 23:36:09 +0000";
layers = (
{
anchors = (
{
name = Bottom;
position = "{217, 0}";
},
{
name = Top;
position = "{270, 532}";
}
);
layerId = "FD4D3FDD-DE85-408F-A52A-FF600B1C6101";
paths = (
{
closed = 1;
nodes = (
"89 279 LINE SMOOTH",
"98 411 OFFCURVE",
"162 490 OFFCURVE",
"262 490 CURVE SMOOTH",
"346 490 OFFCURVE",
"393 431 OFFCURVE",
"386 329 CURVE SMOOTH",
"363 0 LINE",
"411 0 LINE",
"434 332 LINE SMOOTH",
"443 457 OFFCURVE",
"381 532 OFFCURVE",
"268 532 CURVE SMOOTH",
"191 532 OFFCURVE",
"129 493 OFFCURVE",
"97 427 CURVE",
"94 427 LINE",
"121 520 LINE",
"58 520 LINE",
"22 0 LINE",
"70 0 LINE"
);
}
);
width = 469;
},
{
anchors = (
{
name = Bottom;
position = "{270, 0}";
},
{
name = Top;
position = "{325, 532}";
}
);
layerId = m002;
paths = (
{
closed = 1;
nodes = (
"219 274 LINE SMOOTH",
"223 334 OFFCURVE",
"253 370 OFFCURVE",
"299 370 CURVE SMOOTH",
"339 370 OFFCURVE",
"361 340 OFFCURVE",
"357 290 CURVE SMOOTH",
"337 0 LINE",
"535 0 LINE",
"558 331 LINE SMOOTH",
"567 457 OFFCURVE",
"494 532 OFFCURVE",
"362 532 CURVE SMOOTH",
"302 532 OFFCURVE",
"250 512 OFFCURVE",
"222 477 CURVE",
"218 477 LINE",
"243 520 LINE",
"38 520 LINE",
"2 0 LINE",
"200 0 LINE"
);
}
);
width = 573;
}
);
leftKerningGroup = n;
rightKerningGroup = n;
unicode = 006E;
},
{
color = 10;
glyphname = eng;
lastChange = "2023-08-31 02:42:08 +0000";
layers = (
{
layerId = "FD4D3FDD-DE85-408F-A52A-FF600B1C6101";
paths = (
{
closed = 1;
nodes = (
"89 279 LINE SMOOTH",
"98 411 OFFCURVE",
"162 490 OFFCURVE",
"262 490 CURVE SMOOTH",
"346 490 OFFCURVE",
"393 431 OFFCURVE",
"386 329 CURVE SMOOTH",
"358 -69 LINE SMOOTH",
"352 -146 OFFCURVE",
"305 -192 OFFCURVE",
"229 -192 CURVE SMOOTH",
"211 -192 OFFCURVE",
"193 -191 OFFCURVE",
"181 -188 CURVE",
"179 -230 LINE",
"194 -232 OFFCURVE",
"212 -233 OFFCURVE",
"228 -233 CURVE SMOOTH",
"333 -233 OFFCURVE",
"399 -173 OFFCURVE",
"406 -71 CURVE SMOOTH",
"434 332 LINE SMOOTH",
"443 457 OFFCURVE",
"381 532 OFFCURVE",
"268 532 CURVE SMOOTH",
"191 532 OFFCURVE",
"128 494 OFFCURVE",
"96 428 CURVE",
"94 427 LINE",
"111 520 LINE",
"58 520 LINE",
"22 0 LINE",
"70 0 LINE"
);
}
);
width = 469;
},
{
layerId = m002;
paths = (
{
closed = 1;
nodes = (
"219 274 LINE SMOOTH",
"223 333 OFFCURVE",
"254 370 OFFCURVE",
"299 370 CURVE SMOOTH",
"340 370 OFFCURVE",
"361 342 OFFCURVE",
"357 290 CURVE SMOOTH",
"336 -10 LINE SMOOTH",
"333 -49 OFFCURVE",
"313 -74 OFFCURVE",
"283 -74 CURVE SMOOTH",
"267 -74 OFFCURVE",
"249 -74 OFFCURVE",
"237 -71 CURVE",
"230 -230 LINE",
"241 -232 OFFCURVE",
"259 -233 OFFCURVE",
"280 -233 CURVE SMOOTH",
"431 -233 OFFCURVE",
"524 -152 OFFCURVE",
"534 -12 CURVE SMOOTH",
"558 331 LINE SMOOTH",
"567 456 OFFCURVE",
"494 532 OFFCURVE",
"357 532 CURVE SMOOTH",
"297 532 OFFCURVE",
"244 514 OFFCURVE",
"216 479 CURVE",
"213 477 LINE",
"237 520 LINE",
"38 520 LINE",
"2 0 LINE",
"200 0 LINE"
);
}
);
width = 573;
}
);
leftKerningGroup = n;
leftMetricsKey = n;
rightKerningGroup = n;
rightMetricsKey = n;
unicode = 014B;
},
{
glyphname = o;
lastChange = "2023-09-05 19:32:57 +0000";
layers = (
{
anchors = (
{
name = Bottom;
position = "{244, 0}";
},
{
name = Top;
position = "{281, 532}";
}
);
layerId = "FD4D3FDD-DE85-408F-A52A-FF600B1C6101";
paths = (
{
closed = 1;
nodes = (
"103 532 OFFCURVE",
"29 387 OFFCURVE",
"29 227 CURVE SMOOTH",
"29 76 OFFCURVE",
"107 -13 OFFCURVE",
"244 -13 CURVE SMOOTH",
"420 -13 OFFCURVE",
"496 131 OFFCURVE",
"496 291 CURVE SMOOTH",
"496 443 OFFCURVE",
"416 532 OFFCURVE",
"280 532 CURVE SMOOTH"
);
},
{
closed = 1;
nodes = (
"77 359 OFFCURVE",
"134 490 OFFCURVE",
"279 490 CURVE SMOOTH",
"386 490 OFFCURVE",
"448 416 OFFCURVE",
"448 289 CURVE SMOOTH",
"448 159 OFFCURVE",
"390 29 OFFCURVE",
"244 29 CURVE SMOOTH",
"137 29 OFFCURVE",
"77 101 OFFCURVE",
"77 228 CURVE SMOOTH"
);
}
);
width = 525;
},
{
anchors = (
{
name = Bottom;
position = "{282, 0}";
},
{
name = Top;
position = "{319, 532}";
}
);
layerId = m002;
paths = (
{
closed = 1;
nodes = (
"135 532 OFFCURVE",
"22 433 OFFCURVE",
"10 264 CURVE SMOOTH",
"-2 90 OFFCURVE",
"101 -13 OFFCURVE",
"285 -13 CURVE SMOOTH",
"482 -13 OFFCURVE",
"591 104 OFFCURVE",
"591 283 CURVE SMOOTH",
"591 440 OFFCURVE",
"489 532 OFFCURVE",
"314 532 CURVE SMOOTH"
);
},
{
closed = 1;
nodes = (
"223 333 OFFCURVE",
"258 380 OFFCURVE",
"313 380 CURVE SMOOTH",
"362 380 OFFCURVE",
"388 337 OFFCURVE",
"383 264 CURVE SMOOTH",
"378 186 OFFCURVE",
"341 139 OFFCURVE",
"287 139 CURVE SMOOTH",
"237 139 OFFCURVE",
"212 182 OFFCURVE",
"217 254 CURVE SMOOTH"
);
}
);
width = 600;
}
);
leftKerningGroup = o;
rightKerningGroup = o;
unicode = 006F;
},
{
color = 10;
glyphname = oopen;
lastChange = "2023-08-31 02:42:16 +0000";
layers = (
{
layerId = "FD4D3FDD-DE85-408F-A52A-FF600B1C6101";
paths = (
{
closed = 1;
nodes = (
"46 435 LINE",
"83 468 OFFCURVE",
"145 490 OFFCURVE",
"200 490 CURVE SMOOTH",
"292 490 OFFCURVE",
"354 411 OFFCURVE",
"354 293 CURVE SMOOTH",
"354 135 OFFCURVE",
"274 29 OFFCURVE",
"155 29 CURVE SMOOTH",
"102 29 OFFCURVE",
"47 49 OFFCURVE",
"18 79 CURVE",
"18 35 LINE",
"48 6 OFFCURVE",
"105 -13 OFFCURVE",
"161 -13 CURVE SMOOTH",
"305 -13 OFFCURVE",
"401 107 OFFCURVE",
"401 287 CURVE SMOOTH",
"401 434 OFFCURVE",
"318 532 OFFCURVE",
"194 532 CURVE SMOOTH",
"141 532 OFFCURVE",
"82 515 OFFCURVE",
"46 489 CURVE"
);
}
);
width = 430;
},
{
layerId = m002;
paths = (
{
closed = 1;
nodes = (
"18 330 LINE",
"48 355 OFFCURVE",
"90 370 OFFCURVE",
"130 370 CURVE SMOOTH",
"188 370 OFFCURVE",
"222 335 OFFCURVE",
"222 277 CURVE SMOOTH",
"222 197 OFFCURVE",
"183 149 OFFCURVE",
"118 149 CURVE SMOOTH",
"71 149 OFFCURVE",
"29 162 OFFCURVE",
"5 185 CURVE",
"-4 3 LINE",
"35 -7 OFFCURVE",
"80 -13 OFFCURVE",
"117 -13 CURVE SMOOTH",
"314 -13 OFFCURVE",
"430 96 OFFCURVE",
"430 281 CURVE SMOOTH",
"430 439 OFFCURVE",
"323 532 OFFCURVE",
"142 532 CURVE SMOOTH",
"109 532 OFFCURVE",
"66 526 OFFCURVE",
"28 516 CURVE"
);
}
);
width = 440;
}
);
leftKerningGroup = o;
leftMetricsKey = o;
rightKerningGroup = o;
rightMetricsKey = o;
unicode = 0254;
},
{
color = 10;
glyphname = oslash;
lastChange = "2023-08-31 02:15:54 +0000";
layers = (
{
anchors = (
{
name = Top;
position = "{280, 532}";
}
);
layerId = "FD4D3FDD-DE85-408F-A52A-FF600B1C6101";
paths = (
{
closed = 1;
nodes = (
"129 532 OFFCURVE",
"29 411 OFFCURVE",
"29 230 CURVE SMOOTH",
"29 132 OFFCURVE",
"68 56 OFFCURVE",
"132 17 CURVE",
"103 -50 LINE",
"156 -50 LINE",
"176 -3 LINE",
"197 -10 OFFCURVE",
"220 -13 OFFCURVE",
"244 -13 CURVE SMOOTH",
"383 -13 OFFCURVE",
"483 95 OFFCURVE",
"495 258 CURVE SMOOTH",
"502 370 OFFCURVE",
"465 457 OFFCURVE",
"396 500 CURVE",
"421 558 LINE",
"367 558 LINE",
"351 521 LINE",
"329 528 OFFCURVE",
"306 532 OFFCURVE",
"280 532 CURVE SMOOTH"
);
},
{
closed = 1;
nodes = (
"77 386 OFFCURVE",
"158 490 OFFCURVE",
"279 490 CURVE SMOOTH",
"299 490 OFFCURVE",
"317 487 OFFCURVE",
"334 481 CURVE",
"150 59 LINE",
"104 93 OFFCURVE",
"77 154 OFFCURVE",
"77 231 CURVE SMOOTH"
);
},
{
closed = 1;
nodes = (
"377 458 LINE",
"422 423 OFFCURVE",
"448 363 OFFCURVE",
"448 287 CURVE SMOOTH",
"448 132 OFFCURVE",
"366 29 OFFCURVE",
"244 29 CURVE SMOOTH",
"226 29 OFFCURVE",
"209 32 OFFCURVE",
"194 37 CURVE"
);
}
);
width = 525;
},
{
anchors = (
{
name = Top;
position = "{310, 532}";
}
);
layerId = m002;
paths = (
{
closed = 1;
nodes = (
"132 532 OFFCURVE",
"10 415 OFFCURVE",
"10 240 CURVE SMOOTH",
"10 133 OFFCURVE",
"61 53 OFFCURVE",
"145 14 CURVE",
"114 -50 LINE",
"203 -50 LINE",
"223 -9 LINE",
"239 -12 OFFCURVE",
"256 -13 OFFCURVE",
"276 -13 CURVE SMOOTH",
"452 -13 OFFCURVE",
"572 106 OFFCURVE",
"572 280 CURVE SMOOTH",
"572 385 OFFCURVE",
"522 464 OFFCURVE",
"441 503 CURVE",
"467 558 LINE",
"379 558 LINE",
"364 528 LINE",
"347 531 OFFCURVE",
"328 532 OFFCURVE",
"305 532 CURVE SMOOTH"
);
},
{
closed = 1;
nodes = (
"184 330 OFFCURVE",
"233 380 OFFCURVE",
"298 380 CURVE",
"297 380 OFFCURVE",
"303 380 OFFCURVE",
"304 380 CURVE",
"207 164 LINE",
"186 185 OFFCURVE",
"176 217 OFFCURVE",
"178 254 CURVE SMOOTH"
);
},
{
closed = 1;
nodes = (
"379 352 LINE",
"396 334 OFFCURVE",
"405 307 OFFCURVE",
"405 277 CURVE SMOOTH",
"405 197 OFFCURVE",
"355 141 OFFCURVE",
"287 139 CURVE",
"289 139 OFFCURVE",
"283 139 OFFCURVE",
"282 139 CURVE"
);
}
);
width = 582;
}
);
leftKerningGroup = o;
leftMetricsKey = o;
rightKerningGroup = o;
rightMetricsKey = o;
unicode = 00F8;
},
{
color = 10;
glyphname = oe;
lastChange = "2023-08-31 02:15:54 +0000";
layers = (
{
layerId = "FD4D3FDD-DE85-408F-A52A-FF600B1C6101";
paths = (
{
closed = 1;
nodes = (
"129 532 OFFCURVE",
"29 411 OFFCURVE",
"29 230 CURVE SMOOTH",
"29 84 OFFCURVE",
"115 -13 OFFCURVE",
"244 -13 CURVE SMOOTH",
"334 -13 OFFCURVE",
"421 43 OFFCURVE",
"461 126 CURVE",
"489 43 OFFCURVE",
"566 -13 OFFCURVE",
"654 -13 CURVE SMOOTH",
"759 -13 OFFCURVE",
"846 55 OFFCURVE",
"872 158 CURVE",
"824 160 LINE",
"802 81 OFFCURVE",
"734 29 OFFCURVE",
"655 29 CURVE SMOOTH",
"544 29 OFFCURVE",
"484 107 OFFCURVE",
"493 240 CURVE SMOOTH",
"494 255 LINE",
"883 255 LINE",
"886 294 LINE SMOOTH",
"897 437 OFFCURVE",
"816 532 OFFCURVE",
"683 532 CURVE SMOOTH",
"599 532 OFFCURVE",
"518 476 OFFCURVE",
"480 391 CURVE",
"450 476 OFFCURVE",
"370 532 OFFCURVE",
"280 532 CURVE SMOOTH"
);
},
{
closed = 1;
nodes = (
"77 386 OFFCURVE",
"158 490 OFFCURVE",
"279 490 CURVE SMOOTH",
"380 490 OFFCURVE",
"448 409 OFFCURVE",
"448 287 CURVE SMOOTH",
"448 132 OFFCURVE",
"366 29 OFFCURVE",
"244 29 CURVE SMOOTH",
"144 29 OFFCURVE",
"77 110 OFFCURVE",
"77 231 CURVE SMOOTH"
);
},
{
closed = 1;
nodes = (
"520 412 OFFCURVE",
"593 490 OFFCURVE",
"683 490 CURVE SMOOTH",
"796 490 OFFCURVE",
"841 402 OFFCURVE",
"838 296 CURVE",
"499 294 LINE"
);
}
);
width = 914;
},
{
layerId = m002;
paths = (
{
closed = 1;
nodes = (
"132 532 OFFCURVE",
"10 415 OFFCURVE",
"10 241 CURVE SMOOTH",
"10 88 OFFCURVE",
"114 -13 OFFCURVE",
"276 -13 CURVE SMOOTH",
"374 -13 OFFCURVE",
"456 23 OFFCURVE",
"510 89 CURVE",
"552 25 OFFCURVE",
"630 -13 OFFCURVE",
"739 -13 CURVE SMOOTH",
"891 -13 OFFCURVE",
"1000 55 OFFCURVE",
"1032 173 CURVE",
"833 177 LINE",
"823 145 OFFCURVE",
"790 124 OFFCURVE",
"744 124 CURVE SMOOTH",
"702 124 OFFCURVE",
"669 152 OFFCURVE",
"669 208 CURVE SMOOTH",
"669 212 LINE",
"1030 214 LINE",
"1032 273 LINE SMOOTH",
"1037 435 OFFCURVE",
"939 532 OFFCURVE",
"777 532 CURVE SMOOTH",
"669 532 OFFCURVE",
"584 497 OFFCURVE",
"529 428 CURVE",
"486 492 OFFCURVE",
"408 532 OFFCURVE",
"305 532 CURVE SMOOTH"
);
},
{
closed = 1;
nodes = (
"184 330 OFFCURVE",
"234 380 OFFCURVE",
"304 380 CURVE SMOOTH",
"365 380 OFFCURVE",
"404 339 OFFCURVE",
"404 276 CURVE SMOOTH",
"404 194 OFFCURVE",
"352 139 OFFCURVE",
"278 139 CURVE SMOOTH",
"213 139 OFFCURVE",
"174 185 OFFCURVE",
"178 254 CURVE SMOOTH"
);
},
{
closed = 1;
nodes = (
"699 367 OFFCURVE",
"732 395 OFFCURVE",
"774 395 CURVE SMOOTH",
"811 395 OFFCURVE",
"832 371 OFFCURVE",
"837 326 CURVE",
"682 322 LINE"
);
}
);
width = 1048;
}
);
leftKerningGroup = o;
leftMetricsKey = o;
rightKerningGroup = o;
rightMetricsKey = e;
unicode = 0153;
},
{
glyphname = p;
lastChange = "2023-09-05 23:53:04 +0000";
layers = (
{
anchors = (
{
name = Top;
position = "{272, 532}";
}
);
layerId = "FD4D3FDD-DE85-408F-A52A-FF600B1C6101";
paths = (
{
closed = 1;
nodes = (
"196 533 OFFCURVE",
"135 499 OFFCURVE",
"104 442 CURVE",
"101 442 LINE",
"121 520 LINE",
"58 520 LINE",
"7 -216 LINE",
"55 -216 LINE",
"70 0 LINE",
"71 93 LINE",
"73 94 LINE",
"99 28 OFFCURVE",
"164 -12 OFFCURVE",
"250 -12 CURVE SMOOTH",
"416 -12 OFFCURVE",
"479 144 OFFCURVE",
"479 292 CURVE SMOOTH",
"479 443 OFFCURVE",
"403 533 OFFCURVE",
"271 533 CURVE SMOOTH"
);
},
{
closed = 1;
nodes = (
"87 353 OFFCURVE",
"136 491 OFFCURVE",
"270 491 CURVE SMOOTH",
"373 491 OFFCURVE",
"431 418 OFFCURVE",
"431 291 CURVE SMOOTH",
"431 164 OFFCURVE",
"380 30 OFFCURVE",
"245 30 CURVE SMOOTH",
"144 30 OFFCURVE",
"87 102 OFFCURVE",
"87 227 CURVE SMOOTH"
);
}
);
width = 508;
},
{
anchors = (
{
name = Top;
position = "{342, 532}";
}
);
layerId = m002;
paths = (
{
closed = 1;
nodes = (
"303 533 OFFCURVE",
"256 514 OFFCURVE",
"225 483 CURVE",
"222 483 LINE",
"243 520 LINE",
"38 520 LINE",
"-13 -216 LINE",
"185 -216 LINE",
"197 -29 LINE",
"197 23 LINE",
"200 23 LINE",
"228 0 OFFCURVE",
"272 -12 OFFCURVE",
"318 -12 CURVE SMOOTH",
"494 -12 OFFCURVE",
"598 99 OFFCURVE",
"598 286 CURVE SMOOTH",
"598 441 OFFCURVE",
"506 533 OFFCURVE",
"351 533 CURVE SMOOTH"
);
},
{
closed = 1;
nodes = (
"224 345 OFFCURVE",
"262 399 OFFCURVE",
"318 399 CURVE SMOOTH",
"364 399 OFFCURVE",
"391 357 OFFCURVE",
"391 287 CURVE SMOOTH",
"391 182 OFFCURVE",
"353 120 OFFCURVE",
"290 120 CURVE SMOOTH",
"239 120 OFFCURVE",
"212 170 OFFCURVE",
"217 254 CURVE SMOOTH"
);
}
);
width = 607;
}
);
leftKerningGroup = n;
leftMetricsKey = n;
rightKerningGroup = o;
rightMetricsKey = o;
unicode = 0070;
},
{
color = 10;
glyphname = thorn;
lastChange = "2023-09-05 23:53:09 +0000";
layers = (
{
layerId = "FD4D3FDD-DE85-408F-A52A-FF600B1C6101";
paths = (
{
closed = 1;
nodes = (
"196 533 OFFCURVE",
"135 499 OFFCURVE",
"104 442 CURVE",
"101 442 LINE",
"121 520 LINE",
"137 736 LINE",
"73 736 LINE",
"7 -216 LINE",
"55 -216 LINE",
"70 0 LINE",
"71 93 LINE",
"73 93 LINE",
"99 27 OFFCURVE",
"164 -12 OFFCURVE",
"250 -12 CURVE SMOOTH",
"416 -12 OFFCURVE",
"479 144 OFFCURVE",
"479 292 CURVE SMOOTH",
"479 443 OFFCURVE",
"403 533 OFFCURVE",
"271 533 CURVE SMOOTH"
);
},
{
closed = 1;
nodes = (
"87 353 OFFCURVE",
"136 491 OFFCURVE",
"270 491 CURVE SMOOTH",
"373 491 OFFCURVE",
"431 418 OFFCURVE",
"431 291 CURVE SMOOTH",
"431 164 OFFCURVE",
"380 30 OFFCURVE",
"245 30 CURVE SMOOTH",
"144 30 OFFCURVE",
"87 102 OFFCURVE",
"87 227 CURVE SMOOTH"
);
}
);
width = 508;
},
{
layerId = m002;
paths = (
{
closed = 1;
nodes = (
"303 533 OFFCURVE",
"256 514 OFFCURVE",
"225 483 CURVE",
"222 483 LINE",
"243 520 LINE",
"258 736 LINE",
"53 736 LINE",
"-13 -216 LINE",
"185 -216 LINE",
"197 -29 LINE",
"197 23 LINE",
"200 23 LINE",
"228 0 OFFCURVE",
"272 -12 OFFCURVE",
"318 -12 CURVE SMOOTH",
"494 -12 OFFCURVE",
"598 99 OFFCURVE",
"598 286 CURVE SMOOTH",
"598 441 OFFCURVE",
"506 533 OFFCURVE",
"351 533 CURVE SMOOTH"
);
},
{
closed = 1;
nodes = (
"224 345 OFFCURVE",
"262 399 OFFCURVE",
"318 399 CURVE SMOOTH",
"365 399 OFFCURVE",
"391 358 OFFCURVE",
"391 287 CURVE SMOOTH",
"391 183 OFFCURVE",
"351 120 OFFCURVE",
"290 120 CURVE SMOOTH",
"238 120 OFFCURVE",
"212 170 OFFCURVE",
"217 254 CURVE SMOOTH"
);
}
);
width = 607;
}
);
leftKerningGroup = n;
leftMetricsKey = p;
rightKerningGroup = o;
rightMetricsKey = p;
unicode = 00FE;
},
{
glyphname = q;
lastChange = "2023-09-05 23:37:03 +0000";
layers = (
{
anchors = (
{
name = Top;
position = "{266, 532}";
}
);
layerId = "FD4D3FDD-DE85-408F-A52A-FF600B1C6101";
paths = (
{
closed = 1;
nodes = (
"105 533 OFFCURVE",
"29 392 OFFCURVE",
"29 224 CURVE SMOOTH",
"29 76 OFFCURVE",
"99 -12 OFFCURVE",
"222 -12 CURVE SMOOTH",
"306 -12 OFFCURVE",
"377 28 OFFCURVE",
"411 94 CURVE",
"413 93 LINE",
"402 0 LINE",
"387 -216 LINE",
"435 -216 LINE",
"486 520 LINE",
"423 520 LINE",
"433 441 LINE",
"430 441 LINE",
"407 498 OFFCURVE",
"348 533 OFFCURVE",
"273 533 CURVE SMOOTH"
);
},
{
closed = 1;
nodes = (
"77 353 OFFCURVE",
"129 491 OFFCURVE",
"272 491 CURVE SMOOTH",
"368 491 OFFCURVE",
"421 419 OFFCURVE",
"421 293 CURVE SMOOTH",
"421 163 OFFCURVE",
"367 30 OFFCURVE",
"229 30 CURVE SMOOTH",
"131 30 OFFCURVE",
"77 101 OFFCURVE",
"77 226 CURVE SMOOTH"
);
}
);
width = 508;
},
{
anchors = (
{
name = Top;
position = "{313, 532}";
}
);
layerId = m002;
paths = (
{
closed = 1;
nodes = (
"112 533 OFFCURVE",
"9 422 OFFCURVE",
"9 235 CURVE SMOOTH",
"9 80 OFFCURVE",
"102 -12 OFFCURVE",
"260 -12 CURVE SMOOTH",
"301 -12 OFFCURVE",
"345 1 OFFCURVE",
"376 23 CURVE",
"378 22 LINE",
"369 -29 LINE",
"357 -216 LINE",
"555 -216 LINE",
"606 520 LINE",
"401 518 LINE",
"418 481 LINE",
"415 481 LINE",
"387 514 OFFCURVE",
"338 533 OFFCURVE",
"285 533 CURVE SMOOTH"
);
},
{
closed = 1;
nodes = (
"224 345 OFFCURVE",
"262 399 OFFCURVE",
"318 399 CURVE SMOOTH",
"364 399 OFFCURVE",
"391 357 OFFCURVE",
"391 287 CURVE SMOOTH",
"391 182 OFFCURVE",
"353 120 OFFCURVE",
"290 120 CURVE SMOOTH",
"239 120 OFFCURVE",
"212 170 OFFCURVE",
"217 254 CURVE SMOOTH"
);
}
);
width = 608;
}
);
leftKerningGroup = o;
leftMetricsKey = o;
rightKerningGroup = n;
rightMetricsKey = n;
unicode = 0071;
},
{
glyphname = r;
lastChange = "2023-09-05 23:37:18 +0000";
layers = (
{
anchors = (
{
name = Bottom;
position = "{46, 0}";
},
{
name = Top;
position = "{197, 532}";
}
);
layerId = "FD4D3FDD-DE85-408F-A52A-FF600B1C6101";
paths = (
{
closed = 1;
nodes = (
"89 279 LINE SMOOTH",
"98 411 OFFCURVE",
"162 490 OFFCURVE",
"262 490 CURVE SMOOTH",
"283 490 OFFCURVE",
"308 486 OFFCURVE",
"328 478 CURVE",
"337 521 LINE",
"318 528 OFFCURVE",
"291 532 OFFCURVE",
"265 532 CURVE SMOOTH",
"195 532 OFFCURVE",
"137 499 OFFCURVE",
"104 442 CURVE",
"101 442 LINE",
"121 520 LINE",
"58 520 LINE",
"22 0 LINE",
"70 0 LINE"
);
}
);
width = 339;
},
{
anchors = (
{
name = Bottom;
position = "{116, 0}";
},
{
name = Top;
position = "{257, 532}";
}
);
layerId = m002;
paths = (
{
closed = 1;
nodes = (
"216 235 LINE SMOOTH",
"222 319 OFFCURVE",
"272 371 OFFCURVE",
"348 371 CURVE SMOOTH",
"368 371 OFFCURVE",
"392 367 OFFCURVE",
"412 359 CURVE",
"445 520 LINE",
"422 528 OFFCURVE",
"389 533 OFFCURVE",
"350 533 CURVE SMOOTH",
"297 533 OFFCURVE",
"250 513 OFFCURVE",
"225 480 CURVE",
"221 480 LINE",
"243 520 LINE",
"38 520 LINE",
"2 0 LINE",
"200 0 LINE"
);
}
);
width = 437;
}
);
leftKerningGroup = n;
leftMetricsKey = n;
rightKerningGroup = r;
rightMetricsKey = k;
unicode = 0072;
},
{
glyphname = s;
lastChange = "2023-08-31 01:28:21 +0000";
layers = (
{
anchors = (
{
name = Bottom;
position = "{212, 0}";
},
{
name = Top;
position = "{246, 532}";
}
);
layerId = "FD4D3FDD-DE85-408F-A52A-FF600B1C6101";
paths = (
{
closed = 1;
nodes = (
"128 532 OFFCURVE",
"58 474 OFFCURVE",
"58 375 CURVE SMOOTH",
"58 201 OFFCURVE",
"356 277 OFFCURVE",
"356 144 CURVE SMOOTH",
"356 73 OFFCURVE",
"303 29 OFFCURVE",
"218 29 CURVE SMOOTH",
"120 29 OFFCURVE",
"66 79 OFFCURVE",
"72 166 CURVE",
"24 168 LINE",
"16 55 OFFCURVE",
"87 -13 OFFCURVE",
"215 -13 CURVE SMOOTH",
"331 -13 OFFCURVE",
"404 47 OFFCURVE",
"404 150 CURVE SMOOTH",
"404 319 OFFCURVE",
"106 251 OFFCURVE",
"106 382 CURVE SMOOTH",
"106 448 OFFCURVE",
"155 490 OFFCURVE",
"235 490 CURVE SMOOTH",
"318 490 OFFCURVE",
"365 446 OFFCURVE",
"359 370 CURVE",
"407 368 LINE",
"415 470 OFFCURVE",
"354 532 OFFCURVE",
"245 532 CURVE SMOOTH"
);
}
);
width = 442;
},
{
anchors = (
{
name = Bottom;
position = "{260, 0}";
},
{
name = Top;
position = "{294, 532}";
}
);
layerId = m002;
paths = (
{
closed = 1;
nodes = (
"136 532 OFFCURVE",
"44 465 OFFCURVE",
"44 351 CURVE SMOOTH",
"44 159 OFFCURVE",
"327 227 OFFCURVE",
"327 171 CURVE SMOOTH",
"327 148 OFFCURVE",
"303 134 OFFCURVE",
"265 134 CURVE SMOOTH",
"230 134 OFFCURVE",
"210 150 OFFCURVE",
"212 180 CURVE",
"15 184 LINE",
"6 61 OFFCURVE",
"100 -13 OFFCURVE",
"266 -13 CURVE SMOOTH",
"427 -13 OFFCURVE",
"524 55 OFFCURVE",
"524 168 CURVE SMOOTH",
"524 350 OFFCURVE",
"241 295 OFFCURVE",
"241 347 CURVE SMOOTH",
"241 371 OFFCURVE",
"262 385 OFFCURVE",
"294 385 CURVE SMOOTH",
"322 385 OFFCURVE",
"337 372 OFFCURVE",
"335 346 CURVE",
"533 342 LINE",
"541 460 OFFCURVE",
"450 532 OFFCURVE",
"289 532 CURVE SMOOTH"
);
}
);
width = 551;
}
);
leftKerningGroup = s;
rightKerningGroup = s;
unicode = 0073;
},
{
color = 10;
glyphname = saltillo;
lastChange = "2023-08-31 02:37:36 +0000";
layers = (
{
layerId = "FD4D3FDD-DE85-408F-A52A-FF600B1C6101";
paths = (
{
closed = 1;
nodes = (
"58 520 LINE",
"55 409 LINE",
"85 409 LINE",
"98 520 LINE",
"113 730 LINE",
"73 730 LINE"
);
}
);
width = 120;
},
{
layerId = m002;
paths = (
{
closed = 1;
nodes = (
"38 520 LINE",
"35 409 LINE",
"175 409 LINE",
"188 520 LINE",
"203 730 LINE",
"53 730 LINE"
);
}
);
width = 190;
}
);
leftKerningGroup = n;
leftMetricsKey = n;
rightKerningGroup = n;
rightMetricsKey = n;
unicode = A78C;
},
{
color = 10;
glyphname = germandbls;
lastChange = "2023-08-31 02:16:06 +0000";
layers = (
{
layerId = "FD4D3FDD-DE85-408F-A52A-FF600B1C6101";
paths = (
{
closed = 1;
nodes = (
"22 0 LINE",
"70 0 LINE",
"110 582 LINE SMOOTH",
"115 649 OFFCURVE",
"161 695 OFFCURVE",
"224 695 CURVE SMOOTH",
"266 695 OFFCURVE",
"288 684 OFFCURVE",
"310 650 CURVE SMOOTH",
"394 518 LINE",
"290 506 OFFCURVE",
"223 448 OFFCURVE",
"223 364 CURVE SMOOTH",
"223 217 OFFCURVE",
"441 228 OFFCURVE",
"441 120 CURVE SMOOTH",
"441 67 OFFCURVE",
"394 29 OFFCURVE",
"327 29 CURVE SMOOTH",
"298 29 OFFCURVE",
"258 38 OFFCURVE",
"226 52 CURVE",
"224 10 LINE",
"248 -4 OFFCURVE",
"288 -13 OFFCURVE",
"326 -13 CURVE SMOOTH",
"422 -13 OFFCURVE",
"489 42 OFFCURVE",
"489 126 CURVE SMOOTH",
"489 267 OFFCURVE",
"271 261 OFFCURVE",
"271 370 CURVE SMOOTH",
"271 429 OFFCURVE",
"331 473 OFFCURVE",
"420 478 CURVE",
"453 520 LINE",
"352 672 LINE",
"324 719 OFFCURVE",
"292 736 OFFCURVE",
"227 736 CURVE SMOOTH",
"135 736 OFFCURVE",
"69 671 OFFCURVE",
"62 572 CURVE SMOOTH"
);
}
);
width = 529;
},
{
layerId = m002;
paths = (
{
closed = 1;
nodes = (
"2 0 LINE",
"200 0 LINE",
"235 501 LINE SMOOTH",
"238 546 OFFCURVE",
"264 575 OFFCURVE",
"302 575 CURVE SMOOTH",
"324 575 OFFCURVE",
"346 574 OFFCURVE",
"373 531 CURVE SMOOTH",
"389 506 LINE",
"300 482 OFFCURVE",
"262 427 OFFCURVE",
"262 356 CURVE SMOOTH",
"262 227 OFFCURVE",
"407 210 OFFCURVE",
"405 174 CURVE SMOOTH",
"404 157 OFFCURVE",
"388 149 OFFCURVE",
"363 149 CURVE SMOOTH",
"340 149 OFFCURVE",
"306 157 OFFCURVE",
"273 171 CURVE",
"265 11 LINE",
"290 -3 OFFCURVE",
"336 -13 OFFCURVE",
"389 -13 CURVE SMOOTH",
"522 -13 OFFCURVE",
"600 51 OFFCURVE",
"600 151 CURVE SMOOTH",
"600 282 OFFCURVE",
"458 297 OFFCURVE",
"458 339 CURVE SMOOTH",
"458 361 OFFCURVE",
"488 377 OFFCURVE",
"502 360 CURVE",
"645 503 LINE",
"524 647 LINE SMOOTH",
"462 721 OFFCURVE",
"397 736 OFFCURVE",
"298 736 CURVE SMOOTH",
"143 736 OFFCURVE",
"48 654 OFFCURVE",
"38 513 CURVE SMOOTH"
);
}
);
width = 638;
}
);
leftKerningGroup = n;
leftMetricsKey = n;
rightKerningGroup = germandbls;
rightMetricsKey = o;
unicode = 00DF;
},
{
glyphname = t;
lastChange = "2023-08-31 21:51:18 +0000";
layers = (
{
anchors = (
{
name = Bottom;
position = "{235, 0}";
},
{
name = Top;
position = "{302, 532}";
},
{
name = Top_EC;
position = "{253, 532}";
}
);
hints = (
{
place = "{149, 0}";
type = Stem;
}
);
layerId = "FD4D3FDD-DE85-408F-A52A-FF600B1C6101";
paths = (
{
closed = 1;
nodes = (
"117 31 OFFCURVE",
"155 -13 OFFCURVE",
"259 -13 CURVE SMOOTH",
"281 -13 OFFCURVE",
"296 -10 OFFCURVE",
"314 -3 CURVE",
"316 39 LINE",
"303 31 OFFCURVE",
"287 28 OFFCURVE",
"258 28 CURVE SMOOTH",
"191 28 OFFCURVE",
"167 59 OFFCURVE",
"172 138 CURVE SMOOTH",
"196 478 LINE",
"330 478 LINE",
"333 520 LINE",
"199 520 LINE",
"207 629 LINE",
"159 629 LINE",
"151 518 LINE",
"58 523 LINE",
"55 478 LINE",
"148 478 LINE",
"124 140 LINE SMOOTH"
);
}
);
width = 372;
},
{
anchors = (
{
name = Bottom;
position = "{277, 0}";
},
{
name = Top;
position = "{393, 520}";
},
{
name = Top_EC;
position = "{384, 520}";
}
);
hints = (
{
place = "{149, 0}";
type = Stem;
}
);
layerId = m002;
paths = (
{
closed = 1;
nodes = (
"69 57 OFFCURVE",
"153 -13 OFFCURVE",
"301 -13 CURVE SMOOTH",
"336 -13 OFFCURVE",
"369 -9 OFFCURVE",
"388 -1 CURVE",
"395 161 LINE",
"371 152 OFFCURVE",
"341 146 OFFCURVE",
"312 146 CURVE SMOOTH",
"287 146 OFFCURVE",
"274 161 OFFCURVE",
"276 189 CURVE SMOOTH",
"289 370 LINE",
"393 370 LINE",
"403 520 LINE",
"299 520 LINE",
"307 629 LINE",
"109 629 LINE",
"101 518 LINE",
"28 523 LINE",
"18 370 LINE",
"91 370 LINE",
"77 173 LINE SMOOTH"
);
}
);
width = 426;
}
);
leftKerningGroup = t;
rightKerningGroup = t;
unicode = 0074;
},
{
color = 10;
glyphname = tbar;
lastChange = "2023-08-31 16:33:46 +0000";
layers = (
{
layerId = "FD4D3FDD-DE85-408F-A52A-FF600B1C6101";
paths = (
{
closed = 1;
nodes = (
"117 31 OFFCURVE",
"155 -13 OFFCURVE",
"259 -13 CURVE SMOOTH",
"281 -13 OFFCURVE",
"296 -10 OFFCURVE",
"314 -3 CURVE",
"316 39 LINE",
"303 31 OFFCURVE",
"287 28 OFFCURVE",
"258 28 CURVE SMOOTH",
"191 28 OFFCURVE",
"167 59 OFFCURVE",
"172 138 CURVE SMOOTH",
"185 328 LINE",
"320 328 LINE",
"323 370 LINE",
"188 370 LINE",
"196 478 LINE",
"330 478 LINE",
"333 520 LINE",
"199 520 LINE",
"207 629 LINE",
"159 629 LINE",
"151 518 LINE",
"58 523 LINE",
"55 478 LINE",
"148 478 LINE",
"140 368 LINE",
"48 373 LINE",
"45 328 LINE",
"137 328 LINE",
"124 140 LINE SMOOTH"
);
}
);
width = 372;
},
{
layerId = m002;
paths = (
{
closed = 1;
nodes = (
"69 56 OFFCURVE",
"152 -13 OFFCURVE",
"301 -13 CURVE SMOOTH",
"338 -13 OFFCURVE",
"370 -9 OFFCURVE",
"388 -1 CURVE",
"395 161 LINE",
"370 152 OFFCURVE",
"339 146 OFFCURVE",
"312 146 CURVE SMOOTH",
"287 146 OFFCURVE",
"274 162 OFFCURVE",
"276 189 CURVE SMOOTH",
"279 230 LINE",
"383 230 LINE",
"390 330 LINE",
"286 330 LINE",
"289 370 LINE",
"393 370 LINE",
"403 520 LINE",
"299 520 LINE",
"307 629 LINE",
"109 629 LINE",
"101 518 LINE",
"28 523 LINE",
"18 370 LINE",
"91 370 LINE",
"88 328 LINE",
"15 333 LINE",
"8 230 LINE",
"81 230 LINE",
"77 173 LINE SMOOTH"
);
}
);
width = 426;
}
);
leftKerningGroup = t;
leftMetricsKey = t;
rightKerningGroup = t;
rightMetricsKey = t;
unicode = 0167;
},
{
color = 10;
glyphname = tdiagonalstroke;
lastChange = "2023-08-31 19:07:53 +0000";
layers = (
{
layerId = "FD4D3FDD-DE85-408F-A52A-FF600B1C6101";
paths = (
{
closed = 1;
nodes = (
"124 132 OFFCURVE",
"123 124 OFFCURVE",
"124 117 CURVE",
"51 -50 LINE",
"92 -50 LINE",
"134 48 LINE",
"152 6 OFFCURVE",
"192 -13 OFFCURVE",
"259 -13 CURVE SMOOTH",
"281 -13 OFFCURVE",
"296 -10 OFFCURVE",
"314 -3 CURVE",
"316 39 LINE",
"303 31 OFFCURVE",
"287 28 OFFCURVE",
"258 28 CURVE SMOOTH",
"193 28 OFFCURVE",
"168 58 OFFCURVE",
"172 133 CURVE",
"322 478 LINE",
"330 478 LINE",
"332 500 LINE",
"357 558 LINE",
"315 558 LINE",
"299 520 LINE",
"199 520 LINE",
"207 629 LINE",
"159 629 LINE",
"151 518 LINE",
"58 523 LINE",
"55 478 LINE",
"148 478 LINE",
"124 140 LINE SMOOTH"
);
},
{
closed = 1;
nodes = (
"196 478 LINE",
"281 478 LINE",
"180 246 LINE"
);
}
);
width = 376;
},
{
layerId = m002;
paths = (
{
closed = 1;
nodes = (
"72 98 OFFCURVE",
"106 42 OFFCURVE",
"169 13 CURVE",
"139 -50 LINE",
"192 -50 LINE",
"214 -3 LINE",
"239 -9 OFFCURVE",
"267 -13 OFFCURVE",
"301 -13 CURVE SMOOTH",
"336 -13 OFFCURVE",
"369 -9 OFFCURVE",
"388 -1 CURVE",
"395 161 LINE",
"371 152 OFFCURVE",
"341 146 OFFCURVE",
"312 146 CURVE SMOOTH",
"299 146 OFFCURVE",
"288 149 OFFCURVE",
"281 159 CURVE",
"374 370 LINE",
"393 370 LINE",
"397 421 LINE",
"456 558 LINE",
"404 558 LINE",
"387 520 LINE",
"299 520 LINE",
"307 629 LINE",
"109 629 LINE",
"101 518 LINE",
"28 523 LINE",
"18 370 LINE",
"91 370 LINE",
"77 173 LINE SMOOTH"
);
},
{
closed = 1;
nodes = (
"289 370 LINE",
"322 370 LINE",
"281 276 LINE"
);
}
);
width = 455;
}
);
leftKerningGroup = t;
leftMetricsKey = t;
rightKerningGroup = t;
rightMetricsKey = t;
unicode = 2C66;
},
{
glyphname = u;
lastChange = "2023-09-05 23:37:49 +0000";
layers = (
{
anchors = (
{
name = Bottom;
position = "{217, 0}";
},
{
name = Top;
position = "{252, 520}";
}
);
layerId = "FD4D3FDD-DE85-408F-A52A-FF600B1C6101";
paths = (
{
closed = 1;
nodes = (
"270 -13 OFFCURVE",
"334 23 OFFCURVE",
"364 78 CURVE",
"366 78 LINE",
"346 0 LINE",
"409 0 LINE",
"445 520 LINE",
"397 520 LINE",
"375 208 LINE SMOOTH",
"367 96 OFFCURVE",
"304 29 OFFCURVE",
"205 29 CURVE SMOOTH",
"125 29 OFFCURVE",
"76 80 OFFCURVE",
"81 158 CURVE SMOOTH",
"106 520 LINE",
"58 520 LINE",
"32 148 LINE SMOOTH",
"25 52 OFFCURVE",
"97 -13 OFFCURVE",
"205 -13 CURVE SMOOTH"
);
}
);
width = 467;
},
{
anchors = (
{
name = Bottom;
position = "{262, 0}";
},
{
name = Top;
position = "{307, 520}";
}
);
layerId = m002;
paths = (
{
closed = 1;
nodes = (
"277 -13 OFFCURVE",
"329 8 OFFCURVE",
"359 43 CURVE",
"362 43 LINE",
"336 0 LINE",
"541 0 LINE",
"577 520 LINE",
"379 520 LINE",
"358 224 LINE SMOOTH",
"355 179 OFFCURVE",
"324 149 OFFCURVE",
"277 149 CURVE SMOOTH",
"234 149 OFFCURVE",
"212 175 OFFCURVE",
"215 220 CURVE SMOOTH",
"236 520 LINE",
"38 520 LINE",
"14 172 LINE SMOOTH",
"6 58 OFFCURVE",
"82 -13 OFFCURVE",
"219 -13 CURVE SMOOTH"
);
}
);
width = 579;
}
);
leftKerningGroup = u;
leftMetricsKey = n;
rightKerningGroup = u;
unicode = 0075;
},
{
color = 10;
glyphname = "upsilon-latin";
lastChange = "2023-08-31 02:42:56 +0000";
layers = (
{
layerId = "FD4D3FDD-DE85-408F-A52A-FF600B1C6101";
paths = (
{
closed = 1;
nodes = (
"410 -13 OFFCURVE",
"502 86 OFFCURVE",
"502 253 CURVE SMOOTH",
"502 363 OFFCURVE",
"454 444 OFFCURVE",
"372 477 CURVE",
"519 477 LINE",
"522 520 LINE",
"320 520 LINE",
"317 477 LINE",
"404 454 OFFCURVE",
"455 374 OFFCURVE",
"455 263 CURVE SMOOTH",
"455 116 OFFCURVE",
"380 29 OFFCURVE",
"253 29 CURVE SMOOTH",
"147 29 OFFCURVE",
"84 94 OFFCURVE",
"84 203 CURVE SMOOTH",
"84 347 OFFCURVE",
"148 448 OFFCURVE",
"257 477 CURVE",
"260 520 LINE",
"58 520 LINE",
"55 477 LINE",
"188 477 LINE",
"93 439 OFFCURVE",
"37 342 OFFCURVE",
"37 207 CURVE SMOOTH",
"37 69 OFFCURVE",
"118 -13 OFFCURVE",
"255 -13 CURVE SMOOTH"
);
}
);
width = 544;
},
{
layerId = m002;
paths = (
{
closed = 1;
nodes = (
"490 -13 OFFCURVE",
"603 69 OFFCURVE",
"603 207 CURVE SMOOTH",
"603 282 OFFCURVE",
"563 338 OFFCURVE",
"492 370 CURVE",
"622 370 LINE",
"632 520 LINE",
"365 520 LINE",
"355 370 LINE",
"383 359 OFFCURVE",
"400 326 OFFCURVE",
"400 281 CURVE SMOOTH",
"400 192 OFFCURVE",
"365 139 OFFCURVE",
"306 139 CURVE SMOOTH",
"260 139 OFFCURVE",
"233 175 OFFCURVE",
"233 237 CURVE SMOOTH",
"233 306 OFFCURVE",
"256 355 OFFCURVE",
"295 370 CURVE",
"305 520 LINE",
"38 520 LINE",
"28 370 LINE",
"145 370 LINE",
"66 335 OFFCURVE",
"22 271 OFFCURVE",
"22 185 CURVE SMOOTH",
"22 61 OFFCURVE",
"125 -13 OFFCURVE",
"300 -13 CURVE SMOOTH"
);
}
);
width = 634;
}
);
leftKerningGroup = o;
leftMetricsKey = u;
rightKerningGroup = o;
rightMetricsKey = u;
unicode = 028A;
},
{
glyphname = v;
lastChange = "2023-09-02 20:52:23 +0000";
layers = (
{
anchors = (
{
name = Top;
position = "{258, 520}";
}
);
layerId = "FD4D3FDD-DE85-408F-A52A-FF600B1C6101";
paths = (
{
closed = 1;
nodes = (
"199 0 LINE",
"243 0 LINE",
"476 520 LINE",
"426 520 LINE",
"226 68 LINE",
"224 68 LINE",
"88 520 LINE",
"38 520 LINE"
);
}
);
width = 478;
},
{
anchors = (
{
name = Top;
position = "{346, 520}";
}
);
layerId = m002;
paths = (
{
closed = 1;
nodes = (
"218 0 LINE",
"402 0 LINE",
"666 520 LINE",
"459 520 LINE",
"326 237 LINE",
"324 237 LINE",
"231 520 LINE",
"28 520 LINE"
);
}
);
width = 658;
}
);
leftKerningGroup = v;
leftMetricsKey = "=|k";
rightKerningGroup = v;
rightMetricsKey = k;
unicode = 0076;
},
{
glyphname = w;
lastChange = "2023-08-31 21:50:28 +0000";
layers = (
{
anchors = (
{
name = Top;
position = "{379, 520}";
}
);
layerId = "FD4D3FDD-DE85-408F-A52A-FF600B1C6101";
paths = (
{
closed = 1;
nodes = (
"139 0 LINE",
"189 0 LINE",
"372 447 LINE",
"374 447 LINE",
"495 0 LINE",
"545 0 LINE",
"718 520 LINE",
"668 520 LINE",
"523 83 LINE",
"521 83 LINE",
"403 520 LINE",
"353 520 LINE",
"173 84 LINE",
"171 84 LINE",
"88 520 LINE",
"38 520 LINE"
);
}
);
width = 720;
},
{
anchors = (
{
name = Top;
position = "{440, 520}";
}
);
layerId = m002;
paths = (
{
closed = 1;
nodes = (
"131 0 LINE",
"319 0 LINE",
"424 280 LINE",
"426 280 LINE",
"491 0 LINE",
"679 0 LINE",
"856 520 LINE",
"656 520 LINE",
"586 296 LINE",
"584 296 LINE",
"514 520 LINE",
"366 520 LINE",
"266 296 LINE",
"264 296 LINE",
"224 520 LINE",
"28 520 LINE"
);
}
);
width = 848;
}
);
leftKerningGroup = v;
leftMetricsKey = "=|k";
rightKerningGroup = v;
rightMetricsKey = k;
unicode = 0077;
},
{
glyphname = x;
lastChange = "2023-08-31 21:51:39 +0000";
layers = (
{
anchors = (
{
name = Top;
position = "{257, 520}";
}
);
layerId = "FD4D3FDD-DE85-408F-A52A-FF600B1C6101";
paths = (
{
closed = 1;
nodes = (
"207 260 LINE",
"2 0 LINE",
"58 0 LINE",
"232 222 LINE",
"377 0 LINE",
"431 0 LINE",
"262 260 LINE",
"467 520 LINE",
"412 520 LINE",
"237 298 LINE",
"93 520 LINE",
"38 520 LINE"
);
}
);
width = 469;
},
{
anchors = (
{
name = Top;
position = "{334, 520}";
}
);
layerId = m002;
paths = (
{
closed = 1;
nodes = (
"205 261 LINE",
"-8 0 LINE",
"215 0 LINE",
"307 112 LINE",
"383 0 LINE",
"602 0 LINE",
"426 259 LINE",
"639 520 LINE",
"416 520 LINE",
"324 408 LINE",
"248 520 LINE",
"29 520 LINE"
);
}
);
width = 631;
}
);
leftKerningGroup = x;
leftMetricsKey = "=|k";
rightKerningGroup = x;
rightMetricsKey = k;
unicode = 0078;
},
{
glyphname = y;
lastChange = "2023-09-01 23:40:17 +0000";
layers = (
{
anchors = (
{
name = Bottom;
position = "{337, 0}";
},
{
name = Top;
position = "{282, 520}";
}
);
layerId = "FD4D3FDD-DE85-408F-A52A-FF600B1C6101";
paths = (
{
closed = 1;
nodes = (
"525 520 LINE",
"475 520 LINE",
"267 75 LINE",
"265 75 LINE",
"88 520 LINE",
"38 520 LINE",
"239 16 LINE",
"199 -69 LINE SMOOTH",
"171 -129 OFFCURVE",
"131 -161 OFFCURVE",
"82 -161 CURVE SMOOTH",
"64 -161 OFFCURVE",
"42 -158 OFFCURVE",
"31 -152 CURVE",
"29 -200 LINE",
"43 -205 OFFCURVE",
"61 -208 OFFCURVE",
"77 -208 CURVE SMOOTH",
"152 -208 OFFCURVE",
"206 -166 OFFCURVE",
"250 -71 CURVE SMOOTH"
);
}
);
width = 527;
},
{
anchors = (
{
name = Bottom;
position = "{494, 0}";
},
{
name = Top;
position = "{343, 520}";
}
);
hints = (
{
horizontal = 1;
place = "{520, -20}";
target = down;
type = TopGhost;
}
);
layerId = m002;
paths = (
{
closed = 1;
nodes = (
"656 520 LINE",
"456 520 LINE",
"332 266 LINE",
"330 266 LINE",
"224 520 LINE",
"28 520 LINE",
"225 50 LINE",
"195 -10 LINE SMOOTH",
"184 -32 OFFCURVE",
"160 -48 OFFCURVE",
"130 -48 CURVE SMOOTH",
"97 -48 OFFCURVE",
"69 -46 OFFCURVE",
"57 -40 CURVE",
"50 -198 LINE",
"66 -203 OFFCURVE",
"89 -207 OFFCURVE",
"117 -207 CURVE SMOOTH",
"234 -207 OFFCURVE",
"309 -200 OFFCURVE",
"381 -50 CURVE SMOOTH"
);
}
);
width = 648;
}
);
leftKerningGroup = y;
leftMetricsKey = "=|k";
rightKerningGroup = y;
rightMetricsKey = k;
unicode = 0079;
},
{
glyphname = z;
lastChange = "2023-09-05 23:29:11 +0000";
layers = (
{
anchors = (
{
name = Bottom;
position = "{220, 0}";
},
{
name = Top;
position = "{247, 520}";
}
);
layerId = "FD4D3FDD-DE85-408F-A52A-FF600B1C6101";
paths = (
{
closed = 1;
nodes = (
"429 520 LINE",
"82 520 LINE",
"79 480 LINE",
"368 480 LINE",
"25 40 LINE",
"23 0 LINE",
"394 0 LINE",
"396 40 LINE",
"84 40 LINE",
"426 480 LINE"
);
}
);
width = 452;
},
{
anchors = (
{
name = Bottom;
position = "{207, 0}";
},
{
name = Top;
position = "{248, 520}";
}
);
layerId = m002;
paths = (
{
closed = 1;
nodes = (
"439 520 LINE",
"49 520 LINE",
"39 370 LINE",
"225 370 LINE",
"12 150 LINE",
"3 0 LINE",
"404 0 LINE",
"414 150 LINE",
"215 150 LINE",
"429 370 LINE"
);
}
);
width = 432;
}
);
leftKerningGroup = z;
leftMetricsKey = n;
rightKerningGroup = z;
unicode = 007A;
},
{
color = 10;
glyphname = a.ss01;
lastChange = "2023-09-21 16:56:02 +0000";
layers = (
{
anchors = (
{
name = Bottom;
position = "{237, 0}";
},
{
name = Ogonek;
position = "{417, 0}";
},
{
name = Top;
position = "{271, 532}";
}
);
layerId = "FD4D3FDD-DE85-408F-A52A-FF600B1C6101";
paths = (
{
closed = 1;
nodes = (
"312 -13 OFFCURVE",
"376 20 OFFCURVE",
"407 77 CURVE",
"409 78 LINE",
"394 0 LINE",
"452 0 LINE",
"488 520 LINE",
"440 520 LINE",
"439 427 LINE",
"436 426 LINE",
"411 493 OFFCURVE",
"345 532 OFFCURVE",
"260 532 CURVE SMOOTH",
"115 532 OFFCURVE",
"29 419 OFFCURVE",
"29 227 CURVE SMOOTH",
"29 76 OFFCURVE",
"106 -13 OFFCURVE",
"235 -13 CURVE SMOOTH"
);
},
{
closed = 1;
nodes = (
"77 393 OFFCURVE",
"147 490 OFFCURVE",
"265 490 CURVE SMOOTH",
"364 490 OFFCURVE",
"423 417 OFFCURVE",
"423 293 CURVE SMOOTH",
"423 127 OFFCURVE",
"353 29 OFFCURVE",
"235 29 CURVE SMOOTH",
"136 29 OFFCURVE",
"77 103 OFFCURVE",
"77 229 CURVE SMOOTH"
);
}
);
width = 510;
},
{
anchors = (
{
name = Bottom;
position = "{247, 0}";
},
{
name = Ogonek;
position = "{498, 0}";
},
{
name = Top;
position = "{357, 532}";
}
);
layerId = m002;
paths = (
{
closed = 1;
nodes = (
"297 -13 OFFCURVE",
"340 8 OFFCURVE",
"372 38 CURVE",
"374 37 LINE",
"361 0 LINE",
"570 0 LINE",
"606 520 LINE",
"408 520 LINE",
"412 497 LINE",
"410 496 LINE",
"382 519 OFFCURVE",
"336 532 OFFCURVE",
"289 532 CURVE SMOOTH",
"113 532 OFFCURVE",
"9 422 OFFCURVE",
"9 236 CURVE SMOOTH",
"9 79 OFFCURVE",
"99 -13 OFFCURVE",
"252 -13 CURVE SMOOTH"
);
},
{
closed = 1;
nodes = (
"217 325 OFFCURVE",
"255 375 OFFCURVE",
"319 375 CURVE SMOOTH",
"364 375 OFFCURVE",
"391 340 OFFCURVE",
"391 282 CURVE SMOOTH",
"391 199 OFFCURVE",
"354 150 OFFCURVE",
"291 150 CURVE SMOOTH",
"244 150 OFFCURVE",
"217 184 OFFCURVE",
"217 241 CURVE SMOOTH"
);
}
);
width = 608;
}
);
leftKerningGroup = o;
leftMetricsKey = a;
rightKerningGroup = n;
rightMetricsKey = n;
subCategory = "";
},
{
color = 10;
glyphname = astroke.ss01;
lastChange = "2023-09-21 16:56:02 +0000";
layers = (
{
layerId = "FD4D3FDD-DE85-408F-A52A-FF600B1C6101";
paths = (
{
closed = 1;
nodes = (
"312 -13 OFFCURVE",
"376 20 OFFCURVE",
"407 77 CURVE",
"409 78 LINE",
"394 0 LINE",
"452 0 LINE",
"488 520 LINE",
"440 520 LINE",
"439 427 LINE",
"436 426 LINE",
"425 455 OFFCURVE",
"407 479 OFFCURVE",
"382 496 CURVE",
"409 558 LINE",
"357 558 LINE",
"340 519 LINE",
"316 527 OFFCURVE",
"289 532 OFFCURVE",
"260 532 CURVE SMOOTH",
"115 532 OFFCURVE",
"29 419 OFFCURVE",
"29 227 CURVE SMOOTH",
"29 128 OFFCURVE",
"62 55 OFFCURVE",
"122 17 CURVE",
"93 -50 LINE",
"144 -50 LINE",
"165 -3 LINE",
"186 -10 OFFCURVE",
"209 -13 OFFCURVE",
"235 -13 CURVE SMOOTH"
);
},
{
closed = 1;
nodes = (
"77 393 OFFCURVE",
"147 490 OFFCURVE",
"265 490 CURVE SMOOTH",
"286 490 OFFCURVE",
"306 487 OFFCURVE",
"323 480 CURVE",
"141 60 LINE",
"100 93 OFFCURVE",
"77 151 OFFCURVE",
"77 229 CURVE SMOOTH"
);
},
{
closed = 1;
nodes = (
"364 456 LINE",
"402 423 OFFCURVE",
"423 367 OFFCURVE",
"423 293 CURVE SMOOTH",
"423 127 OFFCURVE",
"353 29 OFFCURVE",
"235 29 CURVE SMOOTH",
"216 29 OFFCURVE",
"198 32 OFFCURVE",
"182 37 CURVE"
);
}
);
width = 510;
},
{
layerId = m002;
paths = (
{
closed = 1;
nodes = (
"295 -13 OFFCURVE",
"341 5 OFFCURVE",
"374 38 CURVE",
"374 40 LINE",
"361 0 LINE",
"570 0 LINE",
"606 520 LINE",
"408 520 LINE",
"412 497 LINE",
"407 496 LINE",
"404 499 OFFCURVE",
"400 502 OFFCURVE",
"396 504 CURVE",
"421 558 LINE",
"369 558 LINE",
"352 523 LINE",
"333 528 OFFCURVE",
"313 532 OFFCURVE",
"289 532 CURVE SMOOTH",
"125 532 OFFCURVE",
"22 433 OFFCURVE",
"10 266 CURVE SMOOTH",
"1 138 OFFCURVE",
"47 50 OFFCURVE",
"133 11 CURVE",
"104 -50 LINE",
"157 -50 LINE",
"178 -4 LINE",
"200 -9 OFFCURVE",
"224 -13 OFFCURVE",
"252 -13 CURVE SMOOTH"
);
},
{
closed = 1;
nodes = (
"221 310 OFFCURVE",
"244 353 OFFCURVE",
"284 366 CURVE SMOOTH",
"287 369 OFFCURVE",
"288 370 OFFCURVE",
"291 371 CURVE",
"219 213 LINE",
"217 225 OFFCURVE",
"217 242 OFFCURVE",
"218 256 CURVE SMOOTH"
);
},
{
closed = 1;
nodes = (
"342 372 LINE",
"378 361 OFFCURVE",
"394 323 OFFCURVE",
"390 266 CURVE SMOOTH",
"385 193 OFFCURVE",
"348 150 OFFCURVE",
"291 150 CURVE SMOOTH",
"275 150 OFFCURVE",
"260 154 OFFCURVE",
"247 163 CURVE"
);
}
);
width = 608;
}
);
leftKerningGroup = o;
leftMetricsKey = a;
rightKerningGroup = n;
rightMetricsKey = a;
subCategory = "";
},
{
color = 10;
glyphname = germandbls.ss01;
lastChange = "2023-09-21 16:56:02 +0000";
layers = (
{
layerId = "FD4D3FDD-DE85-408F-A52A-FF600B1C6101";
paths = (
{
closed = 1;
nodes = (
"70 0 LINE",
"110 582 LINE SMOOTH",
"115 649 OFFCURVE",
"161 694 OFFCURVE",
"224 694 CURVE SMOOTH",
"280 694 LINE",
"233 661 OFFCURVE",
"205 611 OFFCURVE",
"205 547 CURVE SMOOTH",
"205 375 OFFCURVE",
"470 338 OFFCURVE",
"470 181 CURVE SMOOTH",
"470 91 OFFCURVE",
"399 29 OFFCURVE",
"297 29 CURVE SMOOTH",
"259 29 OFFCURVE",
"208 38 OFFCURVE",
"172 52 CURVE",
"170 10 LINE",
"194 -4 OFFCURVE",
"243 -13 OFFCURVE",
"296 -13 CURVE SMOOTH",
"426 -13 OFFCURVE",
"518 68 OFFCURVE",
"518 189 CURVE SMOOTH",
"518 365 OFFCURVE",
"253 410 OFFCURVE",
"253 553 CURVE SMOOTH",
"253 636 OFFCURVE",
"323 694 OFFCURVE",
"423 694 CURVE",
"425 736 LINE",
"228 736 LINE SMOOTH",
"135 736 OFFCURVE",
"69 671 OFFCURVE",
"62 572 CURVE SMOOTH",
"22 0 LINE"
);
}
);
width = 554;
},
{
layerId = m002;
paths = (
{
closed = 1;
nodes = (
"200 0 LINE",
"236 521 LINE SMOOTH",
"238 552 OFFCURVE",
"260 574 OFFCURVE",
"287 574 CURVE SMOOTH",
"362 576 LINE",
"356 558 OFFCURVE",
"353 540 OFFCURVE",
"352 523 CURVE SMOOTH",
"342 381 OFFCURVE",
"452 304 OFFCURVE",
"452 214 CURVE SMOOTH",
"452 176 OFFCURVE",
"427 149 OFFCURVE",
"389 149 CURVE SMOOTH",
"363 149 OFFCURVE",
"323 157 OFFCURVE",
"289 171 CURVE",
"281 11 LINE",
"305 -3 OFFCURVE",
"355 -13 OFFCURVE",
"409 -13 CURVE SMOOTH",
"548 -13 OFFCURVE",
"660 63 OFFCURVE",
"660 220 CURVE SMOOTH",
"660 376 OFFCURVE",
"560 441 OFFCURVE",
"560 511 CURVE SMOOTH",
"560 548 OFFCURVE",
"581 574 OFFCURVE",
"606 574 CURVE",
"615 736 LINE",
"276 736 LINE SMOOTH",
"139 736 OFFCURVE",
"49 672 OFFCURVE",
"42 573 CURVE SMOOTH",
"2 0 LINE"
);
}
);
width = 674;
}
);
leftKerningGroup = n;
leftMetricsKey = n;
rightKerningGroup = germandbls;
rightMetricsKey = o;
subCategory = "";
},
{
color = 10;
glyphname = f_f;
lastChange = "2023-08-31 19:09:02 +0000";
layers = (
{
layerId = "FD4D3FDD-DE85-408F-A52A-FF600B1C6101";
paths = (
{
closed = 1;
nodes = (
"151 518 LINE",
"58 523 LINE",
"55 478 LINE",
"148 478 LINE",
"115 0 LINE",
"163 0 LINE",
"196 478 LINE",
"413 478 LINE",
"380 0 LINE",
"428 0 LINE",
"461 478 LINE",
"585 478 LINE",
"588 520 LINE",
"464 520 LINE",
"468 572 LINE SMOOTH",
"473 649 OFFCURVE",
"521 695 OFFCURVE",
"596 695 CURVE SMOOTH",
"617 695 OFFCURVE",
"639 689 OFFCURVE",
"654 681 CURVE",
"656 723 LINE",
"638 731 OFFCURVE",
"616 736 OFFCURVE",
"598 736 CURVE SMOOTH",
"493 736 OFFCURVE",
"427 676 OFFCURVE",
"420 574 CURVE SMOOTH",
"416 518 LINE",
"323 520 LINE",
"199 520 LINE",
"203 572 LINE SMOOTH",
"208 649 OFFCURVE",
"256 695 OFFCURVE",
"331 695 CURVE SMOOTH",
"352 695 OFFCURVE",
"374 689 OFFCURVE",
"389 681 CURVE",
"391 723 LINE",
"373 731 OFFCURVE",
"351 736 OFFCURVE",
"333 736 CURVE SMOOTH",
"228 736 OFFCURVE",
"162 676 OFFCURVE",
"155 574 CURVE SMOOTH"
);
}
);
width = 635;
},
{
layerId = m002;
paths = (
{
closed = 1;
nodes = (
"111 518 LINE",
"38 523 LINE",
"28 370 LINE",
"101 370 LINE",
"75 0 LINE",
"273 0 LINE",
"299 370 LINE",
"446 370 LINE",
"420 0 LINE",
"618 0 LINE",
"644 370 LINE",
"748 370 LINE",
"758 520 LINE",
"654 520 LINE",
"655 530 LINE SMOOTH",
"657 560 OFFCURVE",
"679 577 OFFCURVE",
"717 577 CURVE SMOOTH",
"730 577 OFFCURVE",
"756 572 OFFCURVE",
"777 564 CURVE",
"784 722 LINE",
"767 730 OFFCURVE",
"738 736 OFFCURVE",
"709 736 CURVE SMOOTH",
"552 736 OFFCURVE",
"467 675 OFFCURVE",
"458 554 CURVE SMOOTH",
"456 518 LINE",
"413 520 LINE",
"309 520 LINE",
"310 530 LINE SMOOTH",
"312 560 OFFCURVE",
"334 577 OFFCURVE",
"372 577 CURVE SMOOTH",
"385 577 OFFCURVE",
"411 572 OFFCURVE",
"432 564 CURVE",
"439 722 LINE",
"422 730 OFFCURVE",
"393 736 OFFCURVE",
"364 736 CURVE SMOOTH",
"207 736 OFFCURVE",
"122 675 OFFCURVE",
"113 554 CURVE SMOOTH"
);
}
);
width = 766;
}
);
leftKerningGroup = f;
leftMetricsKey = f;
rightKerningGroup = f;
rightMetricsKey = f;
unicode = FB00;
},
{
color = 10;
glyphname = f_f_i;
lastChange = "2023-09-08 16:44:30 +0000";
layers = (
{
layerId = "FD4D3FDD-DE85-408F-A52A-FF600B1C6101";
paths = (
{
closed = 1;
nodes = (
"151 518 LINE",
"58 523 LINE",
"55 478 LINE",
"148 478 LINE",
"115 0 LINE",
"163 0 LINE",
"196 478 LINE",
"373 478 LINE",
"340 0 LINE",
"388 0 LINE",
"421 478 LINE",
"639 478 LINE",
"606 0 LINE",
"654 0 LINE",
"690 520 LINE",
"424 520 LINE",
"428 572 LINE SMOOTH",
"433 649 OFFCURVE",
"481 695 OFFCURVE",
"556 695 CURVE SMOOTH",
"577 695 OFFCURVE",
"599 689 OFFCURVE",
"614 681 CURVE",
"616 723 LINE",
"598 731 OFFCURVE",
"576 736 OFFCURVE",
"558 736 CURVE SMOOTH",
"453 736 OFFCURVE",
"387 676 OFFCURVE",
"380 574 CURVE SMOOTH",
"376 518 LINE",
"283 520 LINE",
"199 520 LINE",
"203 572 LINE SMOOTH",
"208 649 OFFCURVE",
"256 695 OFFCURVE",
"331 695 CURVE SMOOTH",
"352 695 OFFCURVE",
"374 689 OFFCURVE",
"389 681 CURVE",
"391 723 LINE",
"373 731 OFFCURVE",
"351 736 OFFCURVE",
"333 736 CURVE SMOOTH",
"228 736 OFFCURVE",
"162 676 OFFCURVE",
"155 574 CURVE SMOOTH"
);
},
{
closed = 1;
nodes = (
"699 654 LINE",
"704 723 LINE",
"656 723 LINE",
"651 654 LINE"
);
}
);
width = 711;
},
{
layerId = m002;
paths = (
{
closed = 1;
nodes = (
"111 518 LINE",
"38 523 LINE",
"28 370 LINE",
"101 370 LINE",
"75 0 LINE",
"273 0 LINE",
"299 370 LINE",
"446 370 LINE",
"420 0 LINE",
"618 0 LINE",
"644 370 LINE",
"788 370 LINE",
"762 0 LINE",
"960 0 LINE",
"996 520 LINE",
"654 520 LINE",
"655 530 LINE SMOOTH",
"657 560 OFFCURVE",
"679 577 OFFCURVE",
"717 577 CURVE SMOOTH",
"730 577 OFFCURVE",
"756 572 OFFCURVE",
"777 564 CURVE",
"784 722 LINE",
"767 730 OFFCURVE",
"738 736 OFFCURVE",
"709 736 CURVE SMOOTH",
"552 736 OFFCURVE",
"467 675 OFFCURVE",
"458 554 CURVE SMOOTH",
"456 518 LINE",
"413 520 LINE",
"309 520 LINE",
"310 530 LINE SMOOTH",
"312 560 OFFCURVE",
"334 577 OFFCURVE",
"372 577 CURVE SMOOTH",
"385 577 OFFCURVE",
"411 572 OFFCURVE",
"432 564 CURVE",
"439 722 LINE",
"422 730 OFFCURVE",
"393 736 OFFCURVE",
"364 736 CURVE SMOOTH",
"207 736 OFFCURVE",
"122 675 OFFCURVE",
"113 554 CURVE SMOOTH"
);
},
{
closed = 1;
nodes = (
"998 553 LINE",
"1010 723 LINE",
"812 723 LINE",
"800 553 LINE"
);
}
);
width = 997;
}
);
leftKerningGroup = f;
leftMetricsKey = f;
rightKerningGroup = i;
rightMetricsKey = i;
unicode = FB03;
},
{
color = 10;
glyphname = f_t;
lastChange = "2023-08-31 19:09:02 +0000";
layers = (
{
layerId = "FD4D3FDD-DE85-408F-A52A-FF600B1C6101";
paths = (
{
closed = 1;
nodes = (
"151 518 LINE",
"58 523 LINE",
"55 478 LINE",
"148 478 LINE",
"115 0 LINE",
"163 0 LINE",
"196 478 LINE",
"413 478 LINE",
"389 140 LINE SMOOTH",
"382 31 OFFCURVE",
"420 -13 OFFCURVE",
"524 -13 CURVE SMOOTH",
"546 -13 OFFCURVE",
"561 -10 OFFCURVE",
"579 -3 CURVE",
"581 39 LINE",
"568 31 OFFCURVE",
"552 28 OFFCURVE",
"523 28 CURVE SMOOTH",
"456 28 OFFCURVE",
"432 59 OFFCURVE",
"437 138 CURVE SMOOTH",
"461 478 LINE",
"595 478 LINE",
"598 520 LINE",
"464 520 LINE",
"472 629 LINE",
"424 629 LINE",
"416 520 LINE",
"199 520 LINE",
"203 572 LINE SMOOTH",
"208 649 OFFCURVE",
"256 695 OFFCURVE",
"331 695 CURVE SMOOTH",
"352 695 OFFCURVE",
"374 689 OFFCURVE",
"389 681 CURVE",
"391 723 LINE",
"373 731 OFFCURVE",
"351 736 OFFCURVE",
"333 736 CURVE SMOOTH",
"228 736 OFFCURVE",
"162 676 OFFCURVE",
"155 574 CURVE SMOOTH"
);
}
);
width = 637;
},
{
layerId = m002;
paths = (
{
closed = 1;
nodes = (
"111 518 LINE",
"38 523 LINE",
"28 370 LINE",
"101 370 LINE",
"75 0 LINE",
"273 0 LINE",
"299 370 LINE",
"443 370 LINE",
"429 173 LINE SMOOTH",
"421 57 OFFCURVE",
"505 -13 OFFCURVE",
"653 -13 CURVE SMOOTH",
"688 -13 OFFCURVE",
"721 -9 OFFCURVE",
"740 -1 CURVE",
"747 161 LINE",
"723 152 OFFCURVE",
"693 146 OFFCURVE",
"664 146 CURVE SMOOTH",
"639 146 OFFCURVE",
"626 161 OFFCURVE",
"628 189 CURVE SMOOTH",
"641 370 LINE",
"745 370 LINE",
"755 520 LINE",
"651 520 LINE",
"659 629 LINE",
"461 629 LINE",
"453 518 LINE",
"380 520 LINE",
"309 520 LINE",
"312 560 OFFCURVE",
"334 577 OFFCURVE",
"372 577 CURVE SMOOTH",
"385 577 OFFCURVE",
"411 572 OFFCURVE",
"432 564 CURVE",
"439 722 LINE",
"422 730 OFFCURVE",
"393 736 OFFCURVE",
"364 736 CURVE SMOOTH",
"207 736 OFFCURVE",
"122 675 OFFCURVE",
"113 554 CURVE SMOOTH"
);
}
);
width = 778;
}
);
leftKerningGroup = f;
leftMetricsKey = f;
rightKerningGroup = t;
rightMetricsKey = t;
unicode = FB05;
},
{
color = 10;
glyphname = fi;
lastChange = "2023-09-08 16:44:38 +0000";
layers = (
{
layerId = "FD4D3FDD-DE85-408F-A52A-FF600B1C6101";
paths = (
{
closed = 1;
nodes = (
"151 518 LINE",
"58 523 LINE",
"55 478 LINE",
"148 478 LINE",
"115 0 LINE",
"163 0 LINE",
"196 478 LINE",
"384 478 LINE",
"351 0 LINE",
"399 0 LINE",
"435 520 LINE",
"199 520 LINE",
"203 574 LINE SMOOTH",
"208 653 OFFCURVE",
"246 695 OFFCURVE",
"311 695 CURVE SMOOTH",
"332 695 OFFCURVE",
"352 690 OFFCURVE",
"369 681 CURVE",
"371 723 LINE",
"353 731 OFFCURVE",
"331 736 OFFCURVE",
"309 736 CURVE SMOOTH",
"215 736 OFFCURVE",
"162 681 OFFCURVE",
"155 573 CURVE SMOOTH"
);
},
{
closed = 1;
nodes = (
"444 654 LINE",
"449 723 LINE",
"401 723 LINE",
"396 654 LINE"
);
}
);
width = 456;
},
{
layerId = m002;
paths = (
{
closed = 1;
nodes = (
"111 518 LINE",
"38 523 LINE",
"28 370 LINE",
"101 370 LINE",
"75 0 LINE",
"273 0 LINE",
"299 370 LINE",
"447 370 LINE",
"421 0 LINE",
"619 0 LINE",
"655 520 LINE",
"309 520 LINE",
"310 530 LINE SMOOTH",
"312 560 OFFCURVE",
"334 577 OFFCURVE",
"372 577 CURVE SMOOTH",
"385 577 OFFCURVE",
"411 572 OFFCURVE",
"432 564 CURVE",
"439 722 LINE",
"422 730 OFFCURVE",
"393 736 OFFCURVE",
"364 736 CURVE SMOOTH",
"207 736 OFFCURVE",
"122 675 OFFCURVE",
"113 554 CURVE SMOOTH"
);
},
{
closed = 1;
nodes = (
"657 553 LINE",
"669 723 LINE",
"471 723 LINE",
"459 553 LINE"
);
}
);
width = 656;
}
);
leftKerningGroup = f;
leftMetricsKey = f;
rightKerningGroup = i;
rightMetricsKey = i;
unicode = FB01;
},
{
color = 10;
glyphname = fl;
lastChange = "2023-08-31 19:09:02 +0000";
layers = (
{
layerId = "FD4D3FDD-DE85-408F-A52A-FF600B1C6101";
paths = (
{
closed = 1;
nodes = (
"377 520 LINE",
"199 520 LINE",
"203 574 LINE SMOOTH",
"208 653 OFFCURVE",
"246 695 OFFCURVE",
"311 695 CURVE SMOOTH",
"332 695 OFFCURVE",
"352 690 OFFCURVE",
"369 681 CURVE",
"371 723 LINE",
"353 731 OFFCURVE",
"331 736 OFFCURVE",
"309 736 CURVE SMOOTH",
"215 736 OFFCURVE",
"162 681 OFFCURVE",
"155 573 CURVE SMOOTH",
"151 518 LINE",
"58 523 LINE",
"55 478 LINE",
"148 478 LINE",
"115 0 LINE",
"163 0 LINE",
"196 478 LINE",
"374 478 LINE",
"341 0 LINE",
"389 0 LINE",
"438 704 LINE",
"391 723 LINE"
);
}
);
width = 447;
},
{
layerId = m002;
paths = (
{
closed = 1;
nodes = (
"457 520 LINE",
"309 520 LINE",
"310 530 LINE SMOOTH",
"312 560 OFFCURVE",
"334 577 OFFCURVE",
"372 577 CURVE SMOOTH",
"385 577 OFFCURVE",
"411 572 OFFCURVE",
"432 564 CURVE",
"439 722 LINE",
"422 730 OFFCURVE",
"393 736 OFFCURVE",
"364 736 CURVE SMOOTH",
"207 736 OFFCURVE",
"122 675 OFFCURVE",
"113 554 CURVE SMOOTH",
"111 518 LINE",
"38 523 LINE",
"28 370 LINE",
"101 370 LINE",
"75 0 LINE",
"273 0 LINE",
"299 370 LINE",
"447 370 LINE",
"421 0 LINE",
"589 0 LINE",
"635 669 LINE",
"471 723 LINE"
);
}
);
width = 627;
}
);
leftKerningGroup = f;
leftMetricsKey = f;
rightKerningGroup = l;
rightMetricsKey = l;
unicode = FB02;
},
{
color = 10;
glyphname = t_t;
lastChange = "2023-09-21 16:56:18 +0000";
layers = (
{
hints = (
{
place = "{149, 0}";
type = Stem;
},
{
place = "{461, 0}";
type = Stem;
}
);
layerId = "FD4D3FDD-DE85-408F-A52A-FF600B1C6101";
paths = (
{
closed = 1;
nodes = (
"117 31 OFFCURVE",
"155 -13 OFFCURVE",
"259 -13 CURVE SMOOTH",
"281 -13 OFFCURVE",
"296 -10 OFFCURVE",
"314 -3 CURVE",
"316 39 LINE",
"303 31 OFFCURVE",
"287 28 OFFCURVE",
"258 28 CURVE SMOOTH",
"191 28 OFFCURVE",
"167 59 OFFCURVE",
"172 138 CURVE SMOOTH",
"196 478 LINE",
"400 478 LINE",
"376 140 LINE SMOOTH",
"369 31 OFFCURVE",
"407 -13 OFFCURVE",
"511 -13 CURVE SMOOTH",
"533 -13 OFFCURVE",
"548 -10 OFFCURVE",
"566 -3 CURVE",
"568 39 LINE",
"555 31 OFFCURVE",
"539 28 OFFCURVE",
"510 28 CURVE SMOOTH",
"443 28 OFFCURVE",
"419 59 OFFCURVE",
"424 138 CURVE SMOOTH",
"448 478 LINE",
"582 478 LINE",
"585 520 LINE",
"451 520 LINE",
"459 629 LINE",
"411 629 LINE",
"403 518 LINE",
"320 520 LINE",
"199 520 LINE",
"207 629 LINE",
"159 629 LINE",
"151 518 LINE",
"58 523 LINE",
"55 478 LINE",
"148 478 LINE",
"124 140 LINE SMOOTH"
);
}
);
width = 624;
},
{
hints = (
{
place = "{149, 0}";
type = Stem;
},
{
place = "{504, 0}";
type = Stem;
}
);
layerId = m002;
paths = (
{
closed = 1;
nodes = (
"69 57 OFFCURVE",
"153 -13 OFFCURVE",
"301 -13 CURVE SMOOTH",
"336 -13 OFFCURVE",
"369 -9 OFFCURVE",
"388 -1 CURVE",
"395 161 LINE",
"371 152 OFFCURVE",
"341 146 OFFCURVE",
"312 146 CURVE SMOOTH",
"287 146 OFFCURVE",
"274 161 OFFCURVE",
"276 189 CURVE SMOOTH",
"289 370 LINE",
"436 370 LINE",
"422 173 LINE SMOOTH",
"414 57 OFFCURVE",
"498 -13 OFFCURVE",
"646 -13 CURVE SMOOTH",
"681 -13 OFFCURVE",
"714 -9 OFFCURVE",
"733 -1 CURVE",
"740 161 LINE",
"716 152 OFFCURVE",
"686 146 OFFCURVE",
"657 146 CURVE SMOOTH",
"632 146 OFFCURVE",
"619 161 OFFCURVE",
"621 189 CURVE SMOOTH",
"634 370 LINE",
"738 370 LINE",
"748 520 LINE",
"644 520 LINE",
"652 629 LINE",
"454 629 LINE",
"446 518 LINE",
"379 520 LINE",
"299 520 LINE",
"307 629 LINE",
"109 629 LINE",
"101 518 LINE",
"28 523 LINE",
"18 370 LINE",
"91 370 LINE",
"77 173 LINE SMOOTH"
);
}
);
width = 771;
}
);
leftKerningGroup = t;
leftMetricsKey = t;
rightKerningGroup = t;
rightMetricsKey = t;
category = Letter;
subCategory = Ligature;
},
{
color = 10;
glyphname = clickalveolar;
lastChange = "2023-08-31 16:48:25 +0000";
layers = (
{
layerId = "FD4D3FDD-DE85-408F-A52A-FF600B1C6101";
paths = (
{
closed = 1;
nodes = (
"198 518 LINE",
"58 523 LINE",
"55 478 LINE",
"195 478 LINE",
"188 369 LINE",
"48 374 LINE",
"45 329 LINE",
"185 329 LINE",
"149 -182 LINE",
"199 -182 LINE",
"235 329 LINE",
"370 329 LINE",
"373 371 LINE",
"238 371 LINE",
"245 478 LINE",
"380 478 LINE",
"383 520 LINE",
"248 520 LINE",
"262 714 LINE",
"212 714 LINE"
);
}
);
width = 405;
},
{
layerId = m002;
paths = (
{
closed = 1;
nodes = (
"167 523 LINE",
"29 528 LINE",
"18 375 LINE",
"156 375 LINE",
"150 283 LINE",
"12 288 LINE",
"1 135 LINE",
"139 135 LINE",
"117 -182 LINE",
"267 -182 LINE",
"289 135 LINE",
"426 135 LINE",
"437 285 LINE",
"300 285 LINE",
"306 375 LINE",
"443 375 LINE",
"453 525 LINE",
"317 525 LINE",
"330 714 LINE",
"180 714 LINE"
);
}
);
width = 455;
}
);
leftKerningGroup = t;
leftMetricsKey = t;
rightKerningGroup = t;
rightMetricsKey = t;
unicode = 01C2;
},
{
color = 10;
glyphname = ordfeminine;
lastChange = "2023-08-31 19:09:17 +0000";
layers = (
{
layerId = "FD4D3FDD-DE85-408F-A52A-FF600B1C6101";
paths = (
{
closed = 1;
nodes = (
"194 433 OFFCURVE",
"231 453 OFFCURVE",
"248 485 CURVE",
"249 486 LINE",
"243 440 LINE",
"282 440 LINE",
"301 708 LINE",
"263 708 LINE",
"261 660 LINE",
"259 659 LINE",
"247 691 OFFCURVE",
"213 714 OFFCURVE",
"175 714 CURVE SMOOTH",
"104 714 OFFCURVE",
"52 652 OFFCURVE",
"52 559 CURVE SMOOTH",
"52 483 OFFCURVE",
"93 433 OFFCURVE",
"156 433 CURVE SMOOTH"
);
},
{
closed = 1;
nodes = (
"90 631 OFFCURVE",
"128 682 OFFCURVE",
"182 682 CURVE SMOOTH",
"227 682 OFFCURVE",
"254 645 OFFCURVE",
"254 587 CURVE SMOOTH",
"254 514 OFFCURVE",
"215 464 OFFCURVE",
"162 464 CURVE SMOOTH",
"118 464 OFFCURVE",
"90 501 OFFCURVE",
"90 558 CURVE SMOOTH"
);
}
);
width = 310;
},
{
layerId = m002;
paths = (
{
closed = 1;
nodes = (
"181 433 OFFCURVE",
"209 441 OFFCURVE",
"221 457 CURVE SMOOTH",
"222 459 LINE",
"218 439 LINE",
"319 439 LINE",
"338 707 LINE",
"237 707 LINE",
"238 690 LINE",
"234 688 LINE",
"224 702 OFFCURVE",
"199 713 OFFCURVE",
"170 713 CURVE SMOOTH",
"89 713 OFFCURVE",
"32 653 OFFCURVE",
"32 564 CURVE SMOOTH",
"32 485 OFFCURVE",
"79 433 OFFCURVE",
"152 433 CURVE SMOOTH"
);
},
{
closed = 1;
nodes = (
"143 600 OFFCURVE",
"166 624 OFFCURVE",
"194 624 CURVE SMOOTH",
"215 624 OFFCURVE",
"228 608 OFFCURVE",
"228 584 CURVE SMOOTH",
"228 546 OFFCURVE",
"206 522 OFFCURVE",
"178 522 CURVE SMOOTH",
"156 522 OFFCURVE",
"143 538 OFFCURVE",
"143 563 CURVE SMOOTH"
);
}
);
width = 327;
}
);
leftKerningGroup = o;
leftMetricsKey = a;
rightKerningGroup = n;
rightMetricsKey = a;
unicode = 00AA;
},
{
color = 10;
glyphname = ordmasculine;
lastChange = "2023-08-31 19:09:20 +0000";
layers = (
{
layerId = "FD4D3FDD-DE85-408F-A52A-FF600B1C6101";
paths = (
{
closed = 1;
nodes = (
"109 714 OFFCURVE",
"58 659 OFFCURVE",
"52 574 CURVE SMOOTH",
"46 490 OFFCURVE",
"91 433 OFFCURVE",
"162 433 CURVE SMOOTH",
"234 433 OFFCURVE",
"285 488 OFFCURVE",
"291 572 CURVE SMOOTH",
"297 657 OFFCURVE",
"252 714 OFFCURVE",
"179 714 CURVE SMOOTH"
);
},
{
closed = 1;
nodes = (
"94 637 OFFCURVE",
"130 682 OFFCURVE",
"180 682 CURVE SMOOTH",
"228 682 OFFCURVE",
"257 639 OFFCURVE",
"253 574 CURVE SMOOTH",
"248 509 OFFCURVE",
"212 465 OFFCURVE",
"162 465 CURVE SMOOTH",
"114 465 OFFCURVE",
"85 507 OFFCURVE",
"90 572 CURVE SMOOTH"
);
}
);
width = 299;
},
{
layerId = m002;
paths = (
{
closed = 1;
nodes = (
"95 713 OFFCURVE",
"38 662 OFFCURVE",
"32 577 CURVE SMOOTH",
"26 486 OFFCURVE",
"79 432 OFFCURVE",
"174 432 CURVE SMOOTH",
"265 432 OFFCURVE",
"322 482 OFFCURVE",
"328 567 CURVE SMOOTH",
"335 659 OFFCURVE",
"282 713 OFFCURVE",
"185 713 CURVE SMOOTH"
);
},
{
closed = 1;
nodes = (
"145 603 OFFCURVE",
"162 624 OFFCURVE",
"188 624 CURVE SMOOTH",
"209 624 OFFCURVE",
"220 607 OFFCURVE",
"218 577 CURVE SMOOTH",
"216 542 OFFCURVE",
"199 521 OFFCURVE",
"172 521 CURVE SMOOTH",
"151 521 OFFCURVE",
"140 538 OFFCURVE",
"142 567 CURVE SMOOTH"
);
}
);
width = 317;
}
);
leftKerningGroup = o;
leftMetricsKey = o;
rightKerningGroup = o;
rightMetricsKey = o;
unicode = 00BA;
},
{
color = 10;
glyphname = "Be-cy";
lastChange = "2023-08-31 17:02:46 +0000";
layers = (
{
layerId = "FD4D3FDD-DE85-408F-A52A-FF600B1C6101";
paths = (
{
closed = 1;
nodes = (
"292 0 LINE SMOOTH",
"434 0 OFFCURVE",
"518 80 OFFCURVE",
"518 216 CURVE SMOOTH",
"518 330 OFFCURVE",
"440 398 OFFCURVE",
"307 398 CURVE SMOOTH",
"100 398 LINE",
"119 666 LINE",
"530 666 LINE",
"534 714 LINE",
"72 714 LINE",
"22 0 LINE"
);
},
{
closed = 1;
nodes = (
"97 351 LINE",
"305 351 LINE SMOOTH",
"407 351 OFFCURVE",
"468 299 OFFCURVE",
"468 212 CURVE SMOOTH",
"468 109 OFFCURVE",
"403 48 OFFCURVE",
"292 48 CURVE SMOOTH",
"75 48 LINE"
);
}
);
width = 562;
},
{
layerId = m002;
paths = (
{
closed = 1;
nodes = (
"344 0 LINE SMOOTH",
"517 0 OFFCURVE",
"620 89 OFFCURVE",
"620 240 CURVE SMOOTH",
"620 371 OFFCURVE",
"523 449 OFFCURVE",
"359 449 CURVE SMOOTH",
"243 449 LINE",
"250 546 LINE",
"612 546 LINE",
"624 714 LINE",
"52 714 LINE",
"2 0 LINE"
);
},
{
closed = 1;
nodes = (
"232 281 LINE",
"352 281 LINE SMOOTH",
"382 281 OFFCURVE",
"400 264 OFFCURVE",
"400 235 CURVE SMOOTH",
"400 193 OFFCURVE",
"381 168 OFFCURVE",
"349 168 CURVE SMOOTH",
"224 168 LINE"
);
}
);
width = 642;
}
);
leftKerningGroup = H;
leftMetricsKey = H;
rightKerningGroup = E;
rightMetricsKey = E;
unicode = 0411;
},
{
color = 10;
glyphname = "Ge-cy";
lastChange = "2023-08-31 17:02:46 +0000";
layers = (
{
anchors = (
{
name = Bottom;
position = "{266, 0}";
},
{
name = Top;
position = "{311, 714}";
}
);
layerId = "FD4D3FDD-DE85-408F-A52A-FF600B1C6101";
paths = (
{
closed = 1;
nodes = (
"119 666 LINE",
"530 666 LINE",
"534 714 LINE",
"72 714 LINE",
"22 0 LINE",
"72 0 LINE"
);
}
);
width = 522;
},
{
anchors = (
{
name = Bottom;
position = "{296, 0}";
},
{
name = Top;
position = "{341, 714}";
}
);
layerId = m002;
paths = (
{
closed = 1;
nodes = (
"250 546 LINE",
"582 546 LINE",
"594 714 LINE",
"52 714 LINE",
"2 0 LINE",
"212 0 LINE"
);
}
);
width = 572;
}
);
leftKerningGroup = H;
leftMetricsKey = H;
rightKerningGroup = "Ge-cy";
rightMetricsKey = T;
unicode = 0413;
},
{
color = 10;
glyphname = "Geupturn-cy";
lastChange = "2023-08-31 17:37:37 +0000";
layers = (
{
layerId = "FD4D3FDD-DE85-408F-A52A-FF600B1C6101";
paths = (
{
closed = 1;
nodes = (
"119 666 LINE",
"555 666 LINE",
"561 752 LINE",
"511 752 LINE",
"508 714 LINE",
"72 714 LINE",
"22 0 LINE",
"72 0 LINE"
);
}
);
width = 547;
},
{
layerId = m002;
paths = (
{
closed = 1;
nodes = (
"250 546 LINE",
"686 546 LINE",
"702 772 LINE",
"492 772 LINE",
"488 714 LINE",
"52 714 LINE",
"2 0 LINE",
"212 0 LINE"
);
}
);
width = 676;
}
);
leftKerningGroup = H;
leftMetricsKey = "Ge-cy";
rightKerningGroup = "Ge-cy";
rightMetricsKey = "Ge-cy";
unicode = 0490;
},
{
color = 10;
glyphname = "Gedescender-cy";
lastChange = "2023-08-31 18:06:45 +0000";
layers = (
{
layerId = "FD4D3FDD-DE85-408F-A52A-FF600B1C6101";
paths = (
{
closed = 1;
nodes = (
"65 -100 LINE",
"115 -100 LINE",
"125 48 LINE",
"75 48 LINE",
"119 666 LINE",
"530 666 LINE",
"534 714 LINE",
"72 714 LINE",
"22 0 LINE",
"72 0 LINE"
);
}
);
width = 522;
},
{
layerId = m002;
paths = (
{
closed = 1;
nodes = (
"205 -100 LINE",
"415 -100 LINE",
"433 168 LINE",
"224 168 LINE",
"250 546 LINE",
"582 546 LINE",
"594 714 LINE",
"52 714 LINE",
"2 0 LINE",
"212 0 LINE"
);
}
);
width = 572;
}
);
leftKerningGroup = H;
leftMetricsKey = "Ge-cy";
rightKerningGroup = "Ge-cy";
rightMetricsKey = "Ge-cy";
unicode = 04F6;
},
{
color = 10;
glyphname = "Gestroke-cy";
lastChange = "2023-08-31 17:39:19 +0000";
layers = (
{
layerId = "FD4D3FDD-DE85-408F-A52A-FF600B1C6101";
paths = (
{
closed = 1;
nodes = (
"157 344 LINE",
"477 344 LINE",
"479 384 LINE",
"160 384 LINE",
"180 666 LINE",
"591 666 LINE",
"595 714 LINE",
"133 714 LINE",
"110 384 LINE",
"49 384 LINE",
"47 344 LINE",
"107 344 LINE",
"83 0 LINE",
"133 0 LINE"
);
}
);
width = 583;
},
{
layerId = m002;
paths = (
{
closed = 1;
nodes = (
"289 233 LINE",
"574 233 LINE",
"584 383 LINE",
"300 383 LINE",
"311 546 LINE",
"643 546 LINE",
"655 714 LINE",
"113 714 LINE",
"90 383 LINE",
"29 383 LINE",
"19 233 LINE",
"79 233 LINE",
"63 0 LINE",
"273 0 LINE"
);
}
);
width = 633;
}
);
leftKerningGroup = "Ge-cy";
leftMetricsKey = "Ge-cy";
rightKerningGroup = "Ge-cy";
rightMetricsKey = "Ge-cy";
unicode = 0492;
},
{
color = 10;
glyphname = "Gemiddlehook-cy";
lastChange = "2023-08-31 18:07:01 +0000";
layers = (
{
layerId = "FD4D3FDD-DE85-408F-A52A-FF600B1C6101";
paths = (
{
closed = 1;
nodes = (
"506 348 OFFCURVE",
"427 432 OFFCURVE",
"286 432 CURVE SMOOTH",
"214 432 OFFCURVE",
"143 402 OFFCURVE",
"94 352 CURVE",
"92 353 LINE",
"106 420 LINE",
"124 666 LINE",
"530 666 LINE",
"534 714 LINE",
"72 714 LINE",
"22 0 LINE",
"72 0 LINE",
"92 289 LINE",
"145 347 OFFCURVE",
"216 382 OFFCURVE",
"283 382 CURVE SMOOTH",
"389 382 OFFCURVE",
"450 325 OFFCURVE",
"450 227 CURVE SMOOTH",
"450 138 OFFCURVE",
"411 3 OFFCURVE",
"308 -69 CURVE",
"338 -105 LINE",
"428 -43 OFFCURVE",
"487 72 OFFCURVE",
"496 207 CURVE SMOOTH"
);
}
);
width = 532;
},
{
layerId = m002;
paths = (
{
closed = 1;
nodes = (
"692 325 OFFCURVE",
"589 432 OFFCURVE",
"402 432 CURVE SMOOTH",
"336 432 OFFCURVE",
"274 412 OFFCURVE",
"232 382 CURVE",
"230 383 LINE",
"243 439 LINE",
"250 546 LINE",
"582 546 LINE",
"594 714 LINE",
"52 714 LINE",
"2 0 LINE",
"212 0 LINE",
"226 187 LINE",
"269 234 OFFCURVE",
"326 264 OFFCURVE",
"380 264 CURVE SMOOTH",
"431 264 OFFCURVE",
"461 229 OFFCURVE",
"461 168 CURVE SMOOTH",
"461 73 OFFCURVE",
"415 -2 OFFCURVE",
"347 -34 CURVE",
"459 -167 LINE",
"591 -85 OFFCURVE",
"672 31 OFFCURVE",
"680 143 CURVE SMOOTH"
);
}
);
width = 698;
}
);
leftKerningGroup = H;
leftMetricsKey = H;
rightKerningGroup = "Dje-cy";
rightMetricsKey = b;
unicode = 0494;
},
{
color = 10;
glyphname = "De-cy";
lastChange = "2023-08-31 17:03:10 +0000";
layers = (
{
layerId = "FD4D3FDD-DE85-408F-A52A-FF600B1C6101";
paths = (
{
closed = 1;
nodes = (
"250 714 LINE",
"171 164 LINE SMOOTH",
"160 88 OFFCURVE",
"113 48 OFFCURVE",
"36 48 CURVE SMOOTH",
"15 48 LINE",
"5 -100 LINE",
"55 -100 LINE",
"62 0 LINE",
"602 0 LINE",
"595 -100 LINE",
"645 -100 LINE",
"655 48 LINE",
"605 48 LINE",
"652 714 LINE"
);
},
{
closed = 1;
nodes = (
"197 75 OFFCURVE",
"214 113 OFFCURVE",
"221 162 CURVE SMOOTH",
"293 666 LINE",
"599 666 LINE",
"555 48 LINE",
"169 48 LINE"
);
}
);
width = 690;
},
{
layerId = m002;
paths = (
{
closed = 1;
nodes = (
"312 714 LINE",
"243 293 LINE SMOOTH",
"230 212 OFFCURVE",
"184 168 OFFCURVE",
"114 168 CURVE SMOOTH",
"14 168 LINE",
"-4 -100 LINE",
"206 -100 LINE",
"213 0 LINE",
"667 0 LINE",
"660 -100 LINE",
"870 -100 LINE",
"888 168 LINE",
"785 168 LINE",
"823 714 LINE"
);
},
{
closed = 1;
nodes = (
"433 203 OFFCURVE",
"445 244 OFFCURVE",
"453 291 CURVE SMOOTH",
"495 546 LINE",
"601 546 LINE",
"575 168 LINE",
"417 168 LINE"
);
}
);
width = 915;
}
);
leftKerningGroup = "De-cy";
leftMetricsKey = J;
rightKerningGroup = "De-cy";
rightMetricsKey = L;
unicode = 0414;
},
{
color = 10;
glyphname = "Zhe-cy";
lastChange = "2023-08-31 17:03:31 +0000";
layers = (
{
anchors = (
{
name = Bottom;
position = "{318, 0}";
},
{
name = Top;
position = "{368, 714}";
}
);
layerId = "FD4D3FDD-DE85-408F-A52A-FF600B1C6101";
paths = (
{
closed = 1;
nodes = (
"366 326 LINE",
"368 326 LINE",
"574 0 LINE",
"632 0 LINE",
"407 357 LINE",
"683 714 LINE",
"623 714 LINE",
"372 388 LINE",
"370 388 LINE",
"393 714 LINE",
"343 714 LINE",
"320 388 LINE",
"318 388 LINE",
"111 714 LINE",
"53 714 LINE",
"278 358 LINE",
"2 0 LINE",
"62 0 LINE",
"314 326 LINE",
"316 326 LINE",
"293 0 LINE",
"343 0 LINE"
);
}
);
width = 671;
},
{
anchors = (
{
name = Bottom;
position = "{540, 0}";
},
{
name = Top;
position = "{590, 714}";
}
);
layerId = m002;
paths = (
{
closed = 1;
nodes = (
"665 282 LINE",
"668 282 LINE",
"849 0 LINE",
"1076 0 LINE",
"848 355 LINE",
"1127 714 LINE",
"897 714 LINE",
"677 431 LINE",
"675 431 LINE",
"695 714 LINE",
"485 714 LINE",
"465 431 LINE",
"463 431 LINE",
"281 714 LINE",
"53 714 LINE",
"281 359 LINE",
"2 0 LINE",
"233 0 LINE",
"452 282 LINE",
"455 282 LINE",
"435 0 LINE",
"645 0 LINE"
);
}
);
width = 1115;
}
);
leftKerningGroup = "Zhe-cy";
leftMetricsKey = A;
rightKerningGroup = "Zhe-cy";
rightMetricsKey = A;
unicode = 0416;
},
{
color = 10;
glyphname = "Ze-cy";
lastChange = "2023-08-31 17:03:41 +0000";
layers = (
{
anchors = (
{
name = Bottom;
position = "{247, 0}";
},
{
name = Top;
position = "{297, 714}";
}
);
layerId = "FD4D3FDD-DE85-408F-A52A-FF600B1C6101";
paths = (
{
closed = 1;
nodes = (
"445 101 OFFCURVE",
"364 35 OFFCURVE",
"251 35 CURVE SMOOTH",
"138 35 OFFCURVE",
"68 97 OFFCURVE",
"75 192 CURVE",
"25 194 LINE",
"17 70 OFFCURVE",
"106 -13 OFFCURVE",
"249 -13 CURVE SMOOTH",
"392 -13 OFFCURVE",
"493 70 OFFCURVE",
"501 196 CURVE SMOOTH",
"508 284 OFFCURVE",
"454 355 OFFCURVE",
"368 371 CURVE",
"369 373 LINE",
"444 399 OFFCURVE",
"497 461 OFFCURVE",
"502 529 CURVE SMOOTH",
"510 646 OFFCURVE",
"428 725 OFFCURVE",
"297 725 CURVE SMOOTH",
"160 725 OFFCURVE",
"64 648 OFFCURVE",
"56 530 CURVE",
"106 528 LINE",
"112 617 OFFCURVE",
"188 677 OFFCURVE",
"295 677 CURVE SMOOTH",
"396 677 OFFCURVE",
"458 619 OFFCURVE",
"452 531 CURVE SMOOTH",
"446 451 OFFCURVE",
"375 396 OFFCURVE",
"274 396 CURVE SMOOTH",
"227 396 LINE",
"224 348 LINE",
"272 348 LINE SMOOTH",
"387 348 OFFCURVE",
"458 289 OFFCURVE",
"451 198 CURVE SMOOTH"
);
}
);
width = 535;
},
{
anchors = (
{
name = Bottom;
position = "{282, 0}";
},
{
name = Top;
position = "{332, 714}";
}
);
layerId = m002;
paths = (
{
closed = 1;
nodes = (
"401 186 OFFCURVE",
"358 155 OFFCURVE",
"295 155 CURVE SMOOTH",
"238 155 OFFCURVE",
"208 182 OFFCURVE",
"212 231 CURVE",
"12 235 LINE",
"1 80 OFFCURVE",
"105 -13 OFFCURVE",
"288 -13 CURVE SMOOTH",
"477 -13 OFFCURVE",
"593 70 OFFCURVE",
"603 215 CURVE SMOOTH",
"608 287 OFFCURVE",
"569 345 OFFCURVE",
"500 370 CURVE",
"506 372 LINE",
"562 398 OFFCURVE",
"596 448 OFFCURVE",
"600 509 CURVE SMOOTH",
"610 644 OFFCURVE",
"509 726 OFFCURVE",
"333 726 CURVE SMOOTH",
"149 726 OFFCURVE",
"37 637 OFFCURVE",
"26 482 CURVE",
"226 478 LINE",
"229 527 OFFCURVE",
"268 558 OFFCURVE",
"326 558 CURVE SMOOTH",
"376 558 OFFCURVE",
"402 537 OFFCURVE",
"400 499 CURVE SMOOTH",
"397 461 OFFCURVE",
"366 437 OFFCURVE",
"319 437 CURVE SMOOTH",
"269 437 LINE",
"260 307 LINE",
"314 307 LINE SMOOTH",
"375 307 OFFCURVE",
"407 281 OFFCURVE",
"404 234 CURVE SMOOTH"
);
}
);
width = 616;
}
);
leftKerningGroup = "Ze-cy";
leftMetricsKey = O;
rightKerningGroup = "Ze-cy";
rightMetricsKey = O;
unicode = 0417;
},
{
color = 10;
glyphname = "Ii-cy";
lastChange = "2023-08-31 17:03:47 +0000";
layers = (
{
anchors = (
{
name = Bottom;
position = "{286, 0}";
},
{
name = Top;
position = "{331, 714}";
}
);
layerId = "FD4D3FDD-DE85-408F-A52A-FF600B1C6101";
paths = (
{
closed = 1;
nodes = (
"80 88 LINE",
"78 88 LINE",
"122 714 LINE",
"72 714 LINE",
"22 0 LINE",
"72 0 LINE",
"540 626 LINE",
"541 626 LINE",
"497 0 LINE",
"547 0 LINE",
"597 714 LINE",
"547 714 LINE"
);
}
);
width = 605;
},
{
anchors = (
{
name = Bottom;
position = "{350, 0}";
},
{
name = Top;
position = "{395, 714}";
}
);
layerId = m002;
paths = (
{
closed = 1;
nodes = (
"237 335 LINE",
"235 335 LINE",
"262 714 LINE",
"52 714 LINE",
"2 0 LINE",
"212 0 LINE",
"512 379 LINE",
"514 379 LINE",
"487 0 LINE",
"697 0 LINE",
"747 714 LINE",
"537 714 LINE"
);
}
);
width = 735;
}
);
leftKerningGroup = H;
leftMetricsKey = N;
rightKerningGroup = H;
rightMetricsKey = N;
unicode = 0418;
},
{
color = 10;
glyphname = "Ka-cy";
lastChange = "2023-08-31 17:04:00 +0000";
layers = (
{
anchors = (
{
name = Bottom;
position = "{216, 0}";
},
{
name = Top;
position = "{261, 714}";
}
);
layerId = "FD4D3FDD-DE85-408F-A52A-FF600B1C6101";
paths = (
{
closed = 1;
nodes = (
"22 0 LINE",
"72 0 LINE",
"98 369 LINE",
"100 370 LINE",
"398 0 LINE",
"467 0 LINE",
"155 383 LINE",
"518 714 LINE",
"447 714 LINE",
"102 400 LINE",
"100 401 LINE",
"122 714 LINE",
"72 714 LINE"
);
}
);
width = 506;
},
{
anchors = (
{
name = Bottom;
position = "{340, 0}";
},
{
name = Top;
position = "{385, 714}";
}
);
layerId = m002;
paths = (
{
closed = 1;
nodes = (
"2 0 LINE",
"212 0 LINE",
"232 288 LINE",
"234 289 LINE",
"468 0 LINE",
"737 0 LINE",
"424 382 LINE",
"788 714 LINE",
"517 714 LINE",
"247 467 LINE",
"245 468 LINE",
"262 714 LINE",
"52 714 LINE"
);
}
);
width = 776;
}
);
leftKerningGroup = H;
leftMetricsKey = K;
rightKerningGroup = K;
rightMetricsKey = K;
unicode = 041A;
},
{
color = 10;
glyphname = "El-cy";
lastChange = "2023-08-31 17:04:11 +0000";
layers = (
{
layerId = "FD4D3FDD-DE85-408F-A52A-FF600B1C6101";
paths = (
{
closed = 1;
nodes = (
"209 714 LINE",
"170 164 LINE SMOOTH",
"165 91 OFFCURVE",
"125 47 OFFCURVE",
"63 47 CURVE SMOOTH",
"44 47 OFFCURVE",
"26 48 OFFCURVE",
"15 51 CURVE",
"12 3 LINE",
"27 1 OFFCURVE",
"45 0 OFFCURVE",
"61 0 CURVE SMOOTH",
"154 0 OFFCURVE",
"213 60 OFFCURVE",
"220 162 CURVE SMOOTH",
"256 666 LINE",
"598 666 LINE",
"551 0 LINE",
"601 0 LINE",
"651 714 LINE"
);
}
);
width = 659;
},
{
layerId = m002;
paths = (
{
closed = 1;
nodes = (
"142 714 LINE",
"107 221 LINE SMOOTH",
"105 188 OFFCURVE",
"83 167 OFFCURVE",
"51 167 CURVE SMOOTH",
"35 167 OFFCURVE",
"27 167 OFFCURVE",
"14 170 CURVE",
"7 3 LINE",
"18 1 OFFCURVE",
"44 0 OFFCURVE",
"77 0 CURVE SMOOTH",
"219 0 OFFCURVE",
"307 81 OFFCURVE",
"317 221 CURVE SMOOTH",
"340 546 LINE",
"540 546 LINE",
"502 0 LINE",
"712 0 LINE",
"762 714 LINE"
);
}
);
width = 750;
}
);
leftKerningGroup = "El-cy";
leftMetricsKey = J;
rightKerningGroup = N;
rightMetricsKey = N;
unicode = 041B;
},
{
color = 10;
glyphname = "Pe-cy";
lastChange = "2023-08-31 17:04:33 +0000";
layers = (
{
layerId = "FD4D3FDD-DE85-408F-A52A-FF600B1C6101";
paths = (
{
closed = 1;
nodes = (
"119 666 LINE",
"563 666 LINE",
"516 0 LINE",
"566 0 LINE",
"616 714 LINE",
"72 714 LINE",
"22 0 LINE",
"72 0 LINE"
);
}
);
width = 624;
},
{
layerId = m002;
paths = (
{
closed = 1;
nodes = (
"250 546 LINE",
"504 546 LINE",
"466 0 LINE",
"676 0 LINE",
"726 714 LINE",
"52 714 LINE",
"2 0 LINE",
"212 0 LINE"
);
}
);
width = 714;
}
);
leftKerningGroup = H;
leftMetricsKey = H;
rightKerningGroup = H;
rightMetricsKey = H;
unicode = 041F;
},
{
color = 10;
glyphname = "U-cy";
lastChange = "2023-08-31 17:05:06 +0000";
layers = (
{
anchors = (
{
name = Top;
position = "{296, 714}";
}
);
layerId = "FD4D3FDD-DE85-408F-A52A-FF600B1C6101";
paths = (
{
closed = 1;
nodes = (
"539 715 LINE",
"488 715 LINE",
"280 270 LINE",
"279 270 LINE",
"101 715 LINE",
"52 715 LINE",
"252 210 LINE",
"213 126 LINE SMOOTH",
"185 66 OFFCURVE",
"144 34 OFFCURVE",
"96 34 CURVE SMOOTH",
"77 34 OFFCURVE",
"56 37 OFFCURVE",
"45 43 CURVE",
"43 -5 LINE",
"57 -10 OFFCURVE",
"74 -13 OFFCURVE",
"91 -13 CURVE SMOOTH",
"165 -13 OFFCURVE",
"219 29 OFFCURVE",
"264 124 CURVE SMOOTH"
);
}
);
width = 527;
},
{
anchors = (
{
name = Top;
position = "{369, 714}";
}
);
layerId = m002;
paths = (
{
closed = 1;
nodes = (
"685 714 LINE",
"476 714 LINE",
"359 477 LINE",
"358 477 LINE",
"259 714 LINE",
"52 714 LINE",
"247 249 LINE",
"229 212 LINE SMOOTH",
"211 175 OFFCURVE",
"173 154 OFFCURVE",
"120 154 CURVE SMOOTH",
"110 154 OFFCURVE",
"96 156 OFFCURVE",
"82 162 CURVE",
"75 -4 LINE",
"90 -9 OFFCURVE",
"115 -13 OFFCURVE",
"153 -13 CURVE SMOOTH",
"277 -13 OFFCURVE",
"370 59 OFFCURVE",
"447 219 CURVE SMOOTH"
);
}
);
width = 673;
}
);
leftKerningGroup = "U-cy";
leftMetricsKey = Y;
rightKerningGroup = "U-cy";
rightMetricsKey = Y;
unicode = 0423;
},
